<?xml version="1.0" standalone="no"?>
<!DOCTYPE svg PUBLIC "-//W3C//DTD SVG 1.1//EN" "http://www.w3.org/Graphics/SVG/1.1/DTD/svg11.dtd" >
<svg>
<metadata>
Created by FontForge 20090914 at Sun Jul 14 14:28:48 2013
 By www-data
&#194;&#169; 2009 Microsoft Corporation. All Rights Reserved.
</metadata>
<defs>
<font id="SegoeUI-SemiBold" horiz-adv-x="0" >
  <font-face 
    font-family="Segoe UI Semibold"
    font-weight="600"
    font-stretch="normal"
    units-per-em="2048"
    panose-1="2 11 7 2 4 2 4 2 2 3"
    ascent="1638"
    descent="-410"
    x-height="1024"
    cap-height="1434"
    bbox="-887 -514 2811 2159"
    underline-thickness="119"
    underline-position="-119"
    unicode-range="U+000D-U+FE23"
  />
<missing-glyph horiz-adv-x="1322" 
d="M166 0v1398h990v-1398h-990zM314 148h694v1102h-694v-1102z" />
    <glyph glyph-name=".notdef" horiz-adv-x="1322" 
d="M166 0v1398h990v-1398h-990zM314 148h694v1102h-694v-1102z" />
    <glyph glyph-name="null" unicode="&#xd;" 
 />
    <glyph glyph-name="space" unicode=" " horiz-adv-x="563" 
 />
    <glyph glyph-name="exclam" unicode="!" horiz-adv-x="622" 
d="M422 1434l-19 -1012h-190l-26 1012h235zM311 -20c-40 0 -74 12.833 -102 38.5s-42 56.834 -42 93.501c0 38 14 70.333 42 97s62 40 102 40c38.667 0 72.167 -13.333 100.5 -40s42.5 -59 42.5 -97c0 -36.667 -14.167 -67.834 -42.5 -93.501s-61.833 -38.5 -100.5 -38.5z
" />
    <glyph glyph-name="quotedbl" unicode="&#x22;" horiz-adv-x="896" 
d="M374 1442l-30 -447h-152l-30 447h212zM735 1442l-30 -447h-153l-30 447h213z" />
    <glyph glyph-name="numbersign" unicode="#" horiz-adv-x="1211" 
d="M1170 1049l-31 -140h-227l-58 -276h248l-35 -140h-242l-82 -370h-159l80 370h-242l-78 -370h-159l78 370h-229l28 140h232l55 276h-244l29 140h244l80 385h161l-79 -385h242l82 385h158l-80 -385h228zM754 909h-244l-60 -276h245z" />
    <glyph glyph-name="dollar" unicode="$" horiz-adv-x="1137" 
d="M642 8l-0.00292969 -216.999h-123v209c-148 0 -268.333 28.667 -361 86v223c40.667 -35.333 95.834 -65 165.501 -89s134.834 -36 195.501 -36v445c-157.333 72.667 -259.166 139.667 -305.499 201s-69.5 134 -69.5 218c0 99.333 35.333 185.166 106 257.499
s160.334 115.833 269.001 130.5v180h123v-176c140 -4 236.667 -22.667 290 -56v-214c-72.667 53.333 -169.334 82 -290.001 86v-461c146.667 -68 247 -134 301 -198s81 -136.333 81 -217c0 -98 -33.667 -180 -101 -246s-161 -108 -281 -126zM518.997 852.001v399
c-50 -10 -89.667 -31.333 -119 -64s-44 -72.334 -44 -119.001c0 -49.333 12 -89.666 36 -120.999s66.333 -63 127 -95zM641.997 575.001v-385c113.333 24 170 83 170 177c0 78.667 -56.667 148 -170 208z" />
    <glyph glyph-name="percent" unicode="%" horiz-adv-x="1721" 
d="M416 714c-101.333 0 -182 32.5 -242 97.5s-90 151.833 -90 260.5c0 118.667 31.833 212.167 95.5 280.5s149.5 102.5 257.5 102.5c104.667 0 185.834 -31.667 243.501 -95s86.5 -152.333 86.5 -267s-32.333 -206.5 -97 -275.5s-149.334 -103.5 -254.001 -103.5zM430 1315
c-54.667 0 -97.833 -21 -129.5 -63s-47.5 -99.667 -47.5 -173c0 -72 15.5 -128 46.5 -168s73.5 -60 127.5 -60s96.333 20.833 127 62.5s46 99.5 46 173.5c0 72 -15.167 128 -45.5 168s-71.833 60 -124.5 60zM1387 1434l-920 -1444h-143l919 1444h144zM1258 -22
c-101.333 0 -182 32.5 -242 97.5s-90 151.833 -90 260.5c0 118.667 31.833 212.167 95.5 280.5s149.5 102.5 257.5 102.5c104.667 0 185.834 -31.667 243.501 -95s86.5 -152.333 86.5 -267s-32.333 -206.5 -97 -275.5s-149.334 -103.5 -254.001 -103.5zM1272 579
c-54.667 0 -97.833 -21 -129.5 -63s-47.5 -99.667 -47.5 -173c0 -72 15.5 -128 46.5 -168s73.5 -60 127.5 -60s96.333 20.833 127 62.5s46 99.5 46 173.5c0 72 -15.167 128 -45.5 168s-71.833 60 -124.5 60z" />
    <glyph glyph-name="ampersand" unicode="&#x26;" horiz-adv-x="1684" 
d="M1479 -23c-42 0 -78.9971 4.66504 -110.997 13.998s-61.5 22.666 -88.5 39.999s-53.167 38.333 -78.5 63s-52 53 -80 85c-27.333 -26 -58.833 -51 -94.5 -75s-75.334 -45.5 -119.001 -64.5s-91.334 -34 -143.001 -45s-107.834 -16.5 -168.501 -16.5
c-73.333 0 -140.666 9 -201.999 27s-113.833 44.5 -157.5 79.5s-77.5 78.167 -101.5 129.5s-36 110 -36 176c0 102 29.333 189.167 88 261.5s141 131.5 247 177.5c-20 14.667 -40 31.834 -60 51.501s-37.833 42 -53.5 67s-28.334 52.667 -38.001 83s-14.5 63.5 -14.5 99.5
c0 52.667 10.167 99.334 30.5 140.001s48.5 75 84.5 103s78.5 49.167 127.5 63.5s101.833 21.5 158.5 21.5c56 0 107.333 -7.16699 154 -21.5s86.667 -34.833 120 -61.5s59.333 -58.667 78 -96s28 -78.666 28 -123.999c0 -80.667 -22.833 -147.334 -68.5 -200.001
s-114.167 -97.667 -205.5 -135c46 -16.667 87.667 -36.834 125 -60.501s71.833 -50.167 103.5 -79.5s60 -60.833 85 -94.5s49.5 -68.5 73.5 -104.5c50 72 87.667 151.167 113 237.5s38 176.833 38 271.5c0 24 -1.5 46.667 -4.5 68s-7.16699 42.333 -12.5 63h208
c6.66699 -21.333 10.667 -41.333 12 -60l5 -68c0 -58 -7 -116.333 -21 -175s-32.667 -115.667 -56 -171s-50.666 -110.666 -81.999 -165.999s-64 -108.666 -98 -159.999c23.333 -25.333 44.666 -47.5 63.999 -66.5s39.166 -34.833 59.499 -47.5s41 -22 62 -28
s44.833 -9 71.5 -9c20.667 0 41.334 2.66699 62.001 8s42 12 64 20v-185c-26.667 -12 -54.5 -21 -83.5 -27s-57.167 -9 -84.5 -9zM629.003 162.998c46.667 0 89.5029 5 128.503 15s75 23.167 108 39.5s63 35.333 90 57s51.5 44.5 73.5 68.5
c-38.667 56.667 -74.334 105.167 -107.001 145.5s-65.5 75 -98.5 104s-68.333 54 -106 75s-81.167 40.5 -130.5 58.5c-36.667 -14.667 -70.334 -31.167 -101.001 -49.5s-57.167 -39.833 -79.5 -64.5s-39.833 -53.5 -52.5 -86.5s-19 -71.5 -19 -115.5
c0 -40.667 7.66699 -76.5 23 -107.5s36.333 -56.833 63 -77.5s57.667 -36.167 93 -46.5s73.666 -15.5 114.999 -15.5zM838.006 1129c0 28.667 -5.33203 53.1689 -15.999 73.502s-24.167 37.166 -40.5 50.499s-34.5 23 -54.5 29s-39.667 9 -59 9
c-56.667 0 -101.667 -15.333 -135 -46s-50.333 -72.334 -51 -125.001c0 -23.333 3.5 -45.5 10.5 -66.5s17 -40.5 30 -58.5s28.167 -33.833 45.5 -47.5s35.666 -25.5 54.999 -35.5c72 25.333 125.833 55 161.5 89s53.5 76.667 53.5 128z" />
    <glyph glyph-name="quotesingle" unicode="'" horiz-adv-x="529" 
d="M371 1442l-30 -447h-153l-30 447h213z" />
    <glyph glyph-name="parenleft" unicode="(" horiz-adv-x="680" 
d="M660 -326h-196c-210.667 236 -316 527 -316 873c0 347.333 105.333 643 316 887h197c-206.667 -253.333 -310 -548.333 -310 -885c0 -334 103 -625.667 309 -875z" />
    <glyph glyph-name="parenright" unicode=")" horiz-adv-x="680" 
d="M217 -326h-196c206.667 249.333 310 541 310 875c0 336.667 -103.667 631.667 -311 885h198c211.333 -244 317 -539.667 317 -887c0 -346 -106 -637 -318 -873z" />
    <glyph glyph-name="asterisk" unicode="*" horiz-adv-x="889" 
d="M818 1081l-274 -47l192 -229l-142 -98l-148 260l-148 -260l-143 98l193 229l-275 47l57 160l257 -103l-32 296h182l-32 -296l257 103z" />
    <glyph glyph-name="plus" unicode="+" horiz-adv-x="1422" 
d="M1190 510h-395v-395h-165v395h-395v165h395v396h165v-396h395v-165z" />
    <glyph glyph-name="comma" unicode="," horiz-adv-x="494" 
d="M368 239l-155 -499h-174l110 499h219z" />
    <glyph glyph-name="hyphen" unicode="-" horiz-adv-x="823" 
d="M690 474h-546v171h546v-171z" />
    <glyph glyph-name="period" unicode="." horiz-adv-x="494" 
d="M247 -22c-40 0 -74 13.167 -102 39.5s-42 57.833 -42 94.5c0 37.333 14 69.333 42 96s62 40 102 40c40.667 0 75.167 -13.333 103.5 -40s42.5 -58.667 42.5 -96c0 -36.667 -14.167 -68.167 -42.5 -94.5s-62.833 -39.5 -103.5 -39.5z" />
    <glyph glyph-name="slash" unicode="/" horiz-adv-x="847" 
d="M867 1434l-693 -1672h-211l690 1672h214z" />
    <glyph glyph-name="zero" unicode="0" horiz-adv-x="1137" 
d="M553 -24c-149.333 0 -265.833 61.001 -349.5 183.001s-125.5 298.333 -125.5 529c0 253.333 43.667 445 131 575s213.333 195 378 195c315.333 0 473 -245 473 -735c0 -242.667 -44.5 -427.834 -133.5 -555.501s-213.5 -191.5 -373.5 -191.5zM576 1273
c-174 0 -261 -191.667 -261 -575c0 -358.667 85.333 -538 256 -538c168 0 252 182.333 252 547c0 377.333 -82.333 566 -247 566z" />
    <glyph glyph-name="one" unicode="1" horiz-adv-x="1137" 
d="M1027 0h-854v192h312v1014l-320 -85v202l552 138v-1269h310v-192z" />
    <glyph glyph-name="two" unicode="2" horiz-adv-x="1137" 
d="M1001 0l-899.999 -0.000976562v191l397 385c101.333 98 173.666 179.5 216.999 244.5s65 134.5 65 208.5c0 76 -22.5 134.833 -67.5 176.5s-109.167 62.5 -192.5 62.5c-122 0 -238.667 -54.667 -350 -164v223c118 87.333 255 131 411 131
c134.667 0 240.667 -33.833 318 -101.5s116 -165.5 116 -293.5c0 -86 -24 -170.167 -72 -252.5s-140.333 -190.166 -277 -323.499l-295 -283v-5h630v-199z" />
    <glyph glyph-name="three" unicode="3" horiz-adv-x="1137" 
d="M138 53l0.000976562 217.999c93.333 -74 198.666 -111 315.999 -111c95.333 0 171.5 21.667 228.5 65s85.5 102 85.5 176c0 162.667 -124.333 244 -373 244h-111v186h106c220.667 0 331 76.667 331 230c0 141.333 -86 212 -258 212c-96 0 -186.333 -34.333 -271 -103v206
c97.333 54.667 212.333 82 345 82c127.333 0 229.333 -32 306 -96s115 -146 115 -246c0 -188.667 -96 -310 -288 -364v-4c103.333 -10 185 -46.167 245 -108.5s90 -140.166 90 -233.499c0 -128.667 -48.333 -232.5 -145 -311.5s-224 -118.5 -382 -118.5
c-142 0 -255.333 25.667 -340 77z" />
    <glyph glyph-name="four" unicode="4" horiz-adv-x="1137" 
d="M1074 346h-179v-346h-218v346h-652v150l622 938h248v-913h179v-175zM677 521v555c0 39.333 1.33301 83.333 4 132h-4c-8 -21.333 -24.333 -54 -49 -98l-390 -589h439z" />
    <glyph glyph-name="five" unicode="5" horiz-adv-x="1137" 
d="M164 33l0.00292969 223c94 -63.333 189.333 -95 286 -95c97.333 0 175.666 24.833 234.999 74.5s89 115.834 89 198.501c0 81.333 -30.167 144.666 -90.5 189.999s-146.833 68 -259.5 68c-38.667 0 -110.334 -4 -215.001 -12v754h737v-198h-533v-359
c43.333 2.66699 83.666 4 120.999 4c152 0 269.5 -39 352.5 -117s124.5 -184.667 124.5 -320c0 -142 -47.5 -255.833 -142.5 -341.5s-225.5 -128.5 -391.5 -128.5c-140 0 -244.333 19.667 -313 59z" />
    <glyph glyph-name="six" unicode="6" horiz-adv-x="1137" 
d="M967 1417v-201c-71.333 38 -146.333 57 -225 57c-122 0 -219.667 -49.333 -293 -148s-110 -231 -110 -397h4c64.667 120 171.334 180 320.001 180c122 0 219 -40.667 291 -122s108 -190 108 -326c0 -142.667 -44.5 -259 -133.5 -349s-201.833 -135 -338.5 -135
c-151.333 0 -270 57.333 -356 172s-129 275.667 -129 483c0 251.333 56.167 452 168.5 602s261.166 225 446.499 225c104 0 186.333 -13.667 247 -41zM593 726c-72 0 -130.501 -25.166 -175.501 -75.499s-67.5 -109.833 -67.5 -178.5c0 -86 22.333 -159.5 67 -220.5
s104 -91.5 178 -91.5c70 0 126.667 26.5 170 79.5s65 120.167 65 201.5c0 89.333 -20.667 159.166 -62 209.499s-99.666 75.5 -174.999 75.5z" />
    <glyph glyph-name="seven" unicode="7" horiz-adv-x="1137" 
d="M1048 1340l-540 -1340h-244l525 1236h-699v198h958v-94z" />
    <glyph glyph-name="eight" unicode="8" horiz-adv-x="1137" 
d="M392 752v4c-168.667 80 -253 195.667 -253 347c0 104 42.333 189.167 127 255.5s193.667 99.5 327 99.5c120.667 0 219.667 -31 297 -93s116 -141.667 116 -239c0 -158.667 -88.667 -282 -266 -370v-4c205.333 -74.667 308 -204 308 -388c0 -118.667 -45 -213 -135 -283
s-215.333 -105 -376 -105c-130 0 -236.833 34.667 -320.5 104s-125.5 159.333 -125.5 270c0 184 100.333 318 301 402zM780 1091c0 58 -18.166 103.834 -54.499 137.501s-85.833 50.5 -148.5 50.5c-58.667 0 -108.334 -17.5 -149.001 -52.5s-61 -79.5 -61 -133.5
c0 -110 68.333 -193 205 -249c138.667 57.333 208 139.666 208 246.999zM560.001 651.001c-161.333 -64.667 -242 -158 -242 -280c0 -63.333 23.5 -115.333 70.5 -156s108.833 -61 185.5 -61c72.667 0 132.167 20 178.5 60s69.5 90.333 69.5 151
c0 128 -87.333 223.333 -262 286z" />
    <glyph glyph-name="nine" unicode="9" horiz-adv-x="1137" 
d="M166 27l-0.00292969 200.999c77.333 -45.333 159.333 -68 246 -68c126 0 224 45.833 294 137.5s105 221.834 105 390.501c-1.33301 -0.666992 -2.66602 -0.666992 -3.99902 0c-59.333 -110.667 -162.666 -166 -309.999 -166c-119.333 0 -217.5 42.167 -294.5 126.5
s-115.5 192.833 -115.5 325.5c0 141.333 45.333 257.333 136 348s206.334 136 347.001 136c148 0 263.5 -55.833 346.5 -167.5s124.5 -274.5 124.5 -488.5c0 -264 -54 -467.667 -162 -611s-258 -215 -450 -215c-101.333 0 -189 17 -263 51zM553.997 1273
c-67.333 0 -123.666 -26.3311 -168.999 -78.998s-68 -119.334 -68 -200.001c0 -89.333 22.167 -159.333 66.5 -210s104.5 -76 180.5 -76c66 0 121.833 23.167 167.5 69.5s68.5 103.166 68.5 170.499c0 95.333 -22.833 173.333 -68.5 234s-104.834 91 -177.501 91z" />
    <glyph glyph-name="colon" unicode=":" horiz-adv-x="494" 
d="M247 -22c-40 0 -74 13.167 -102 39.5s-42 57.833 -42 94.5c0 37.333 14 69.333 42 96s62 40 102 40c40.667 0 75.167 -13.333 103.5 -40s42.5 -58.667 42.5 -96c0 -36.667 -14.167 -68.167 -42.5 -94.5s-62.833 -39.5 -103.5 -39.5zM247 769c-40 0 -74 13.167 -102 39.5
s-42 57.833 -42 94.5c0 37.333 14 69.333 42 96s62 40 102 40c40.667 0 75.167 -13.333 103.5 -40s42.5 -58.667 42.5 -96c0 -36.667 -14.167 -68.167 -42.5 -94.5s-62.833 -39.5 -103.5 -39.5z" />
    <glyph glyph-name="semicolon" unicode=";" horiz-adv-x="494" 
d="M247 771c-39.333 0 -72.5 13.5 -99.5 40.5s-40.5 59.167 -40.5 96.5s13.5 69 40.5 95s60.167 39 99.5 39c38 0 70.667 -13 98 -39s41 -57.667 41 -95s-13.667 -69.5 -41 -96.5s-60 -40.5 -98 -40.5zM368 239l-152 -503h-177l109 503h220z" />
    <glyph glyph-name="less" unicode="&#x3c;" horiz-adv-x="1422" 
d="M1159 98l-893 429v106l893 466v-190l-653 -324v-4l653 -294v-189z" />
    <glyph glyph-name="equal" unicode="=" horiz-adv-x="1422" 
d="M1190 724h-955v165h955v-165zM1190 295h-955v164h955v-164z" />
    <glyph glyph-name="greater" unicode="&#x3e;" horiz-adv-x="1422" 
d="M1159 533l-893 -429v189l654 291v6l-654 324v190l893 -465v-106z" />
    <glyph glyph-name="question" unicode="?" horiz-adv-x="909" 
d="M303 405c-6 16.667 -11.3311 38.332 -15.998 64.999s-7 53 -7 79c0 40.667 8.16699 77.5 24.5 110.5s36.666 63.833 60.999 92.5s50.666 56.334 78.999 83.001s54.666 52.667 78.999 78s44.666 52 60.999 80s24.5 58.667 24.5 92c0 30 -6 56.167 -18 78.5
s-28.5 41 -49.5 56s-45 26.167 -72 33.5s-55.833 11 -86.5 11c-99.333 0 -194 -44.333 -284 -133v231c109.333 64 222.666 96 339.999 96c54 0 105 -7 153 -21s90 -34.667 126 -62s64.333 -61.333 85 -102s31 -88 31 -142c0 -51.333 -8.66699 -97 -26 -137
s-39.166 -76.833 -65.499 -110.5s-54.666 -63.5 -84.999 -89.5s-58.666 -52 -84.999 -78s-48.166 -53 -65.499 -81s-26 -59 -26 -93c0 -28.667 3.66699 -54.667 11 -78s14.666 -43 21.999 -59h-211zM417.002 -18.002c-38 0 -71.6689 13 -101.002 39
c-28 25.333 -42 56.666 -42 93.999c0 38 14 69.333 42 94c28.667 26.667 62.334 40 101.001 40c38 0 71.333 -13.333 100 -40c28 -24.667 42 -56 42 -94c0 -37.333 -14 -68.666 -42 -93.999c-29.333 -26 -62.666 -39 -99.999 -39z" />
    <glyph glyph-name="at" unicode="@" horiz-adv-x="1955" 
d="M1147 397l-5.00195 0.00292969c-48 -143.333 -142 -215 -282 -215c-89.333 0 -161.333 33.5 -216 100.5s-82 157.167 -82 270.5c0 150 37.5 274.667 112.5 374s173.833 149 296.5 149c46.667 0 88.334 -12.833 125.001 -38.5s60.334 -56.5 71.001 -92.5h3
c2 18.667 7 57 15 115h166c-31.333 -352 -47 -531.333 -47 -538c0 -132 34.333 -198 103 -198c62.667 0 114.667 36.833 156 110.5s62 169.167 62 286.5c0 173.333 -55.833 314.833 -167.5 424.5s-266.5 164.5 -464.5 164.5c-190 0 -347.333 -66.333 -472 -199
s-187 -298.667 -187 -498c0 -196.667 60 -355.334 180 -476.001s281.667 -181 485 -181c160 0 297 27.333 411 82v-154c-116.667 -49.333 -262.334 -74 -437.001 -74c-245.333 0 -443 73.333 -593 220s-225 338.667 -225 576c0 244 79.333 446.333 238 607
s361.334 241 608.001 241c231.333 0 422.833 -67.333 574.5 -202s227.5 -310.334 227.5 -527.001c0 -158.667 -41.167 -288.834 -123.5 -390.501s-182.833 -152.5 -301.5 -152.5c-153.333 0 -230.333 71.667 -231 215zM987.998 934.003
c-73.333 0 -132.5 -36.001 -177.5 -108.001s-67.5 -161.667 -67.5 -269c0 -72 15.167 -128.833 45.5 -170.5s70.833 -62.5 121.5 -62.5c73.333 0 131.333 37.833 174 113.5s64 175.834 64 300.501c0 130.667 -53.333 196 -160 196z" />
    <glyph glyph-name="A" unicode="A" horiz-adv-x="1375" 
d="M1355 0h-261l-129 365h-564l-124 -365h-260l537 1434h268zM902 559l-199 572c-6 18.667 -12.333 48.667 -19 90h-4c-6 -38 -12.667 -68 -20 -90l-197 -572h439z" />
    <glyph glyph-name="B" unicode="B" horiz-adv-x="1237" 
d="M177 0v1434h455c138.667 0 248.5 -30.333 329.5 -91s121.5 -139.667 121.5 -237c0 -81.333 -23 -152 -69 -212s-109.667 -102.667 -191 -128v-4c98.667 -11.333 177.5 -47.833 236.5 -109.5s88.5 -141.834 88.5 -240.501c0 -122.667 -48.333 -222 -145 -298
s-218.667 -114 -366 -114h-460zM414 1243v-408h154c82.667 0 147.5 19.5 194.5 58.5s70.5 94.167 70.5 165.5c0 122.667 -82 184 -246 184h-173zM414 644.001v-454h203c88.667 0 157.167 20.5 205.5 61.5s72.5 97.5 72.5 169.5c0 148.667 -103 223 -309 223h-172z" />
    <glyph glyph-name="C" unicode="C" horiz-adv-x="1272" 
d="M1177 60c-108 -56 -242.332 -83.998 -402.999 -83.998c-208 0 -374.667 65.667 -500 197s-188 303.666 -188 516.999c0 229.333 70.5 414.666 211.5 555.999s319.167 212 534.5 212c138.667 0 253.667 -19.667 345 -59v-236c-96.667 57.333 -203.334 86 -320.001 86
c-155.333 0 -281.166 -49.667 -377.499 -149s-144.5 -232 -144.5 -398c0 -158 45 -283.833 135 -377.5s208.333 -140.5 355 -140.5c135.333 0 252.666 32 351.999 96v-220z" />
    <glyph glyph-name="D" unicode="D" horiz-adv-x="1469" 
d="M177 0l0.000976562 1434h414c528.667 0 793 -233 793 -699c0 -221.333 -73.333 -399.166 -220 -533.499s-343.334 -201.5 -590.001 -201.5h-397zM414.001 1232v-1031h190c167.333 0 297.5 46 390.5 138s139.5 222 139.5 390c0 335.333 -173.667 503 -521 503h-199z" />
    <glyph glyph-name="E" unicode="E" horiz-adv-x="1060" 
d="M982 0h-805v1434h773v-202h-535v-406h493v-201h-493v-424h567v-201z" />
    <glyph glyph-name="F" unicode="F" horiz-adv-x="1029" 
d="M951 1232h-536v-431h494v-201h-494v-600h-238v1434h774v-202z" />
    <glyph glyph-name="G" unicode="G" horiz-adv-x="1428" 
d="M1296 98c-149.333 -81.333 -315.666 -122 -498.999 -122c-212 0 -383.667 66 -515 198s-197 306.667 -197 524c0 222 71.833 404.167 215.5 546.5s326.167 213.5 547.5 213.5c159.333 0 293.333 -23.333 402 -70v-245c-110 73.333 -241 110 -393 110
c-152.667 0 -277.834 -50.333 -375.501 -151s-146.5 -231 -146.5 -391c0 -164.667 42 -294.167 126 -388.5s198 -141.5 342 -141.5c98.667 0 184 19 256 57v341h-302v200h539v-681z" />
    <glyph glyph-name="H" unicode="H" horiz-adv-x="1506" 
d="M1329 0h-239v622h-675v-622h-238v1434h238v-603h675v603h239v-1434z" />
    <glyph glyph-name="I" unicode="I" horiz-adv-x="592" 
d="M546 1434v-192h-131v-1050h131v-192h-500v192h131v1050h-131v192h500z" />
    <glyph glyph-name="J" unicode="J" horiz-adv-x="812" 
d="M648 514c0 -170 -42 -302.167 -126 -396.5s-196 -141.5 -336 -141.5c-65.333 0 -119 7.66699 -161 23v224c38 -26 87 -39 147 -39c158.667 0 238 122.667 238 368v882h238v-920z" />
    <glyph glyph-name="K" unicode="K" horiz-adv-x="1251" 
d="M1262 0l-310 -0.000976562l-499 656c-18.667 24.667 -30 41.334 -34 50.001h-4v-706h-238v1434h238v-674h4c8 14.667 19.333 31 34 49l481 625h285l-563 -688z" />
    <glyph glyph-name="L" unicode="L" horiz-adv-x="1001" 
d="M971 0h-794v1434h238v-1233h556v-201z" />
    <glyph glyph-name="M" unicode="M" horiz-adv-x="1893" 
d="M1717 0h-236.001v928c0 76 4.66699 169 14 279h-4c-14.667 -62.667 -27.667 -107.667 -39 -135l-428 -1072h-164l-429 1064c-12 31.333 -24.667 79 -38 143h-4c5.33301 -57.333 8 -151 8 -281v-926h-220v1434h335l377 -955c28.667 -73.333 47.334 -128 56.001 -164h5
c24.667 75.333 44.667 131.333 60 168l384 951h323v-1434z" />
    <glyph glyph-name="N" unicode="N" horiz-adv-x="1571" 
d="M1393 0h-260.001l-685 1054c-17.333 26.667 -31.666 54.334 -42.999 83.001h-6c5.33301 -30.667 8 -96.334 8 -197.001v-940h-230v1434h277l662 -1029c28 -42.667 46 -72 54 -88h4c-6.66699 38 -10 102.333 -10 193v924h229v-1434z" />
    <glyph glyph-name="O" unicode="O" horiz-adv-x="1548" 
d="M768 -24c-206.667 0 -372.167 66.999 -496.5 200.999s-186.5 308.333 -186.5 523c0 230.667 63.333 414.667 190 552s298.667 206 516 206c201.333 0 363.5 -66.667 486.5 -200s184.5 -307.666 184.5 -522.999c0 -234 -63 -419 -189 -555s-294.333 -204 -505 -204z
M779 1249c-131.333 0 -238.166 -49.001 -320.499 -147.001s-123.5 -227 -123.5 -387c0 -159.333 40 -287.666 120 -384.999s184.667 -146 314 -146c137.333 0 245.666 46.333 324.999 139s119 222.334 119 389.001c0 171.333 -38.5 303.666 -115.5 396.999
s-183.167 140 -318.5 140z" />
    <glyph glyph-name="P" unicode="P" horiz-adv-x="1197" 
d="M414 520l-0.000976562 -520h-237v1434h435c164.667 0 292.334 -38.333 383.001 -115s136 -184.667 136 -324s-47.333 -253.333 -142 -342s-222.667 -133 -384 -133h-191zM413.999 1238v-524h154c102 0 179.667 23.667 233 71s80 114 80 200c0 168.667 -98 253 -294 253
h-173z" />
    <glyph glyph-name="Q" unicode="Q" horiz-adv-x="1548" 
d="M741 -23c-42 0 -84.835 4.16406 -128.502 12.4971s-86 21 -127 38s-80.167 38.167 -117.5 63.5s-71.333 54.666 -102 87.999c-120.667 134 -181 309 -181 525c0 230.667 63 414.334 189 551.001c127.333 137.333 301.333 206 522 206c198 0 358.667 -66.667 482 -200
s185 -307.666 185 -522.999c0 -89.333 -9.66699 -173.666 -29 -252.999s-48.5 -151 -87.5 -215s-88 -118.167 -147 -162.5s-129.167 -76.166 -210.5 -95.499c35.333 -34 68.5 -64 99.5 -90s61.833 -47.833 92.5 -65.5s62.667 -31.167 96 -40.5s70 -14 110 -14
c10.667 0 22.334 0.5 35.001 1.5s25.334 2.66699 38.001 5s24.834 5 36.501 8s22.5 6.5 32.5 10.5v-212c-11.333 -4 -24.333 -7.33301 -39 -10s-29.334 -5 -44.001 -7s-29.167 -3.5 -43.5 -4.5s-27.833 -1.5 -40.5 -1.5c-69.333 0 -131.5 10 -186.5 30
s-106.5 47.5 -154.5 82.5s-94.333 75.833 -139 122.5zM778.998 1249c-132 0 -239.334 -49 -322.001 -147c-82 -98 -123 -227 -123 -387c0 -158.667 40 -287.334 120 -386.001c80.667 -96.667 185.334 -145 314.001 -145c138 0 246.667 46.333 326 139
s119 222.334 119 389.001c0 172 -38.667 304.333 -116 397c-76.667 93.333 -182.667 140 -318 140z" />
    <glyph glyph-name="R" unicode="R" horiz-adv-x="1275" 
d="M1285 0l-277.998 0.00195312l-229 384c-20.667 35.333 -40.834 65.5 -60.501 90.5s-39.667 45.5 -60 61.5s-42.5 27.667 -66.5 35s-51 11 -81 11h-96v-582h-237v1434h472c67.333 0 129.333 -8 186 -24s106 -40.167 148 -72.5s74.833 -72.666 98.5 -120.999
s35.5 -104.833 35.5 -169.5c0 -50.667 -7.5 -97.167 -22.5 -139.5s-36.333 -80 -64 -113s-61 -61.167 -100 -84.5s-82.833 -41.333 -131.5 -54v-4c26 -14.667 48.667 -30.834 68 -48.501s37.666 -35.834 54.999 -54.501s34.5 -39.834 51.5 -63.501l56.5 -82.5zM414.002 1241
l-0.00195312 -466h198c36.667 0 70.5 5.66699 101.5 17s57.833 27.666 80.5 48.999s40.334 47.333 53.001 78s19 65 19 103c0 68.667 -21.667 122.334 -65 161.001s-105.666 58 -186.999 58h-200z" />
    <glyph glyph-name="S" unicode="S" horiz-adv-x="1115" 
d="M111 57v244.998c22 -20 48.167 -38 78.5 -54s62.5 -29.5 96.5 -40.5s68 -19.5 102 -25.5s65.333 -9 94 -9c100 0 174.5 16.667 223.5 50s73.5 81.666 73.5 144.999c0 34 -8.16699 63.5 -24.5 88.5s-39.166 47.833 -68.499 68.5s-63.833 40.5 -103.5 59.5l-127.5 59.5
c-48.667 26 -94 52.333 -136 79s-78.5 56.167 -109.5 88.5s-55.333 68.833 -73 109.5s-26.5 88.334 -26.5 143.001c0 67.333 15.167 125.833 45.5 175.5s70.333 90.667 120 123s106.167 56.333 169.5 72s128 23.5 194 23.5c150 0 259.333 -17 328 -51v-235
c-81.333 58.667 -186 88 -314 88c-35.333 0 -70.5 -3.33301 -105.5 -10s-66.333 -17.667 -94 -33s-50.167 -35 -67.5 -59s-26 -53 -26 -87c0 -32 6.66699 -59.667 20 -83s32.833 -44.666 58.5 -63.999s57 -38.166 94 -56.499s79.833 -38.166 128.5 -59.499
c50 -26 97.167 -53.333 141.5 -82s83.333 -60.334 117 -95.001s60.334 -73.167 80.001 -115.5s29.5 -90.5 29.5 -144.5c0 -72.667 -14.667 -134 -44 -184s-68.833 -90.667 -118.5 -122s-106.834 -54 -171.501 -68s-133 -21 -205 -21c-24 0 -53.5 1.83301 -88.5 5.5
s-70.833 9 -107.5 16s-71.334 15.5 -104.001 25.5s-59 21.333 -79 34z" />
    <glyph glyph-name="T" unicode="T" horiz-adv-x="1130" 
d="M1097 1232h-412v-1232h-238v1232h-411v202h1061v-202z" />
    <glyph glyph-name="U" unicode="U" horiz-adv-x="1440" 
d="M1280 580c0 -402.667 -190.667 -604 -572 -604c-365.333 0 -548 193.667 -548 581v877h238v-828c0 -281.333 109.333 -422 328 -422c210.667 0 316 135.667 316 407v843h238v-854z" />
    <glyph glyph-name="V" unicode="V" horiz-adv-x="1314" 
d="M1301 1434l-515.001 -1434h-266l-506 1434h260l354 -1088c11.333 -34.667 20 -75 26 -121h4c4.66699 38 14.334 79 29.001 123l362 1086h252z" />
    <glyph glyph-name="W" unicode="W" horiz-adv-x="1978" 
d="M1956 1434l-393.001 -1434h-269l-273 1003c-11.333 42.667 -18.333 89.334 -21 140.001h-4c-3.33301 -47.333 -11.333 -93.333 -24 -138l-274 -1005h-275l-401 1434h261l260 -1050c10.667 -44 17.334 -90 20.001 -138h5c2.66699 34 12 80 28 138l294 1050h245l272 -1058
c9.33301 -36 16.333 -78.667 21 -128h4c2 33.333 9.66699 77.333 23 132l255 1054h246z" />
    <glyph glyph-name="X" unicode="X" horiz-adv-x="1268" 
d="M1249 0l-284.999 0.000976562l-294 526c-8.66699 16 -18.334 38.667 -29.001 68h-4c-6 -14.667 -16 -37.334 -30 -68.001l-303 -526h-287l470 721l-432 713h291l259 -484c16.667 -32 31.667 -64 45 -96h3c19.333 42 36 75.333 50 100l269 480h268l-442 -711z" />
    <glyph glyph-name="Y" unicode="Y" horiz-adv-x="1182" 
d="M1176 1434l-470 -913v-521h-238v516l-458 918h271l282 -615c3.33301 -7.33301 13.333 -35 30 -83h3c6 21.333 17 49 33 83l295 615h252z" />
    <glyph glyph-name="Z" unicode="Z" horiz-adv-x="1202" 
d="M1155 1330l-786 -1129h776v-201h-1109v109l789 1123h-728v202h1058v-104z" />
    <glyph glyph-name="bracketleft" unicode="[" horiz-adv-x="680" 
d="M621 -326h-413v1760h413v-156h-216v-1448h216v-156z" />
    <glyph glyph-name="backslash" unicode="\" horiz-adv-x="829" 
d="M869 -240h-206l-676 1674h210z" />
    <glyph glyph-name="bracketright" unicode="]" horiz-adv-x="680" 
d="M474 -326h-413v156h216v1448h-216v156h413v-1760z" />
    <glyph glyph-name="asciicircum" unicode="^" horiz-adv-x="1422" 
d="M1208 618h-192l-312 604h-6l-291 -604h-189l425 840h109z" />
    <glyph glyph-name="underscore" unicode="_" horiz-adv-x="850" 
d="M850 -297h-850v119h850v-119z" />
    <glyph glyph-name="grave" unicode="`" horiz-adv-x="591" 
d="M527 1204h-173l-262 328h214z" />
    <glyph glyph-name="a" unicode="a" horiz-adv-x="1069" 
d="M937 0h-224.999v160h-4c-70.667 -122.667 -174.334 -184 -311.001 -184c-100.667 0 -179.5 27.333 -236.5 82s-85.5 127 -85.5 217c0 193.333 111.333 306 334 338l304 43c0 146 -69.333 219 -208 219c-122 0 -232 -42 -330 -126v203c108 64 232.667 96 374 96
c258.667 0 388 -127.333 388 -382v-666zM713.001 503l-214.999 -29.999c-66.667 -8.66699 -116.834 -24.834 -150.501 -48.501s-50.5 -65.167 -50.5 -124.5c0 -43.333 15.5 -78.833 46.5 -106.5s72.5 -41.5 124.5 -41.5c70.667 0 129.167 24.833 175.5 74.5
s69.5 112.167 69.5 187.5v89z" />
    <glyph glyph-name="b" unicode="b" horiz-adv-x="1234" 
d="M387 148h-4v-148h-232v1516h232v-672h4c79.333 136 195.333 204 348 204c129.333 0 230.5 -45.833 303.5 -137.5s109.5 -214.5 109.5 -368.5c0 -171.333 -41 -308.5 -123 -411.5s-194 -154.5 -336 -154.5c-133.333 0 -234 57.333 -302 172zM381 555v-127
c0 -74.667 23.833 -138 71.5 -190s108.167 -78 181.5 -78c86 0 153.5 33.5 202.5 100.5s73.5 160.5 73.5 280.5c0 100.667 -22.833 179.5 -68.5 236.5s-107.5 85.5 -185.5 85.5c-82.667 0 -149.167 -29.333 -199.5 -88s-75.5 -132 -75.5 -220z" />
    <glyph glyph-name="c" unicode="c" horiz-adv-x="963" 
d="M884 47c-82 -47.333 -178.999 -71.001 -290.999 -71.001c-152 0 -274.667 47.5 -368 142.5s-140 218.167 -140 369.5c0 168.667 50.167 304.167 150.5 406.5s234.5 153.5 402.5 153.5c93.333 0 175.666 -16.333 246.999 -49v-216c-71.333 53.333 -147.333 80 -228 80
c-98 0 -178.333 -33.167 -241 -99.5s-94 -153.166 -94 -260.499c0 -106 29.5 -189.667 88.5 -251s138.167 -92 237.5 -92c83.333 0 162 29.667 236 89v-202z" />
    <glyph glyph-name="d" unicode="d" horiz-adv-x="1234" 
d="M1082 0h-232v174h-4c-74.667 -132 -189.667 -198 -345 -198c-126 0 -226.833 45.833 -302.5 137.5s-113.5 216.5 -113.5 374.5c0 169.333 41.833 305 125.5 407s195.167 153 334.5 153c138 0 238.333 -55.333 301 -166h4v634h232v-1516zM853 468v134
c0 72.667 -23.667 134.334 -71 185.001s-107.666 76 -180.999 76c-86.667 0 -154.834 -32.333 -204.501 -97s-74.5 -154.334 -74.5 -269.001c0 -104 23.833 -186.167 71.5 -246.5s111.834 -90.5 192.501 -90.5c79.333 0 143.666 29.167 192.999 87.5s74 131.833 74 220.5z
" />
    <glyph glyph-name="e" unicode="e" horiz-adv-x="1088" 
d="M1018 449l-698 0.000976562c2.66699 -94.667 31.834 -167.667 87.501 -219s132.167 -77 229.5 -77c109.333 0 209.666 32.667 300.999 98v-187c-93.333 -58.667 -216.666 -88 -369.999 -88c-150.667 0 -268.834 46.5 -354.501 139.5s-128.5 223.833 -128.5 392.5
c0 159.333 47.167 289.166 141.5 389.499s211.5 150.5 351.5 150.5s248.333 -45 325 -135s115 -215 115 -375v-89zM794 613.001c-0.666992 83.333 -20.333 148.168 -59 194.501s-92 69.5 -160 69.5c-66.667 0 -123.167 -24.333 -169.5 -73s-74.833 -112.334 -85.5 -191.001
h474z" />
    <glyph glyph-name="f" unicode="f" horiz-adv-x="706" 
d="M730 1327c-31.333 18 -66.999 27 -106.999 27c-112.667 0 -169 -63.667 -169 -191v-139h238v-182h-237v-842h-232v842h-175v182h175v166c0 108 35.333 193.167 106 255.5s159 93.5 265 93.5c57.333 0 102.666 -6.33301 135.999 -19v-193z" />
    <glyph glyph-name="g" unicode="g" horiz-adv-x="1234" 
d="M1083 82c0 -376 -189 -564 -567 -564c-133.333 0 -249.666 22.333 -348.999 67v212c112 -64 218.333 -96 319 -96c243.333 0 365 119.667 365 359v112h-4c-76.667 -130.667 -192 -196 -346 -196c-124.667 0 -225.167 45.5 -301.5 136.5s-114.5 213.167 -114.5 366.5
c0 174 41 312.333 123 415s194.667 154 338 154c135.333 0 235.666 -55.333 300.999 -166h4v142h232v-942zM853 469l-0.000976562 133c0 72 -23.833 133.5 -71.5 184.5s-107.167 76.5 -178.5 76.5c-88 0 -156.833 -32.5 -206.5 -97.5s-74.5 -155.833 -74.5 -272.5
c0 -100.667 23.833 -181.167 71.5 -241.5s110.834 -90.5 189.501 -90.5c80 0 145 28.833 195 86.5s75 131.5 75 221.5z" />
    <glyph glyph-name="h" unicode="h" horiz-adv-x="1192" 
d="M1061 0h-232v560c0 202.667 -67.667 304 -203 304c-68 0 -125.333 -29.333 -172 -88s-70 -133.667 -70 -225v-551h-233v1516h233v-662h4c77.333 129.333 188 194 332 194c227.333 0 341 -139 341 -417v-631z" />
    <glyph glyph-name="i" unicode="i" horiz-adv-x="535" 
d="M268 1239c-38 0 -70.5 12.333 -97.5 37s-40.5 56 -40.5 94s13.5 69.667 40.5 95s59.5 38 97.5 38c39.333 0 72.666 -12.667 99.999 -38s41 -57 41 -95c0 -36 -13.667 -66.833 -41 -92.5s-60.666 -38.5 -99.999 -38.5zM383 0h-232v1024h232v-1024z" />
    <glyph glyph-name="j" unicode="j" horiz-adv-x="535" 
d="M383 43c0 -168 -35.333 -297.5 -106 -388.5s-171.667 -136.5 -303 -136.5c-48.667 0 -96 10.667 -142 32v199c43.333 -30 84.333 -45 123 -45c130.667 0 196 115.333 196 346v974h232v-981zM269 1239c-38 0 -70.5 12.333 -97.5 37s-40.5 56 -40.5 94s13.5 69.667 40.5 95
s59.5 38 97.5 38c38.667 0 71.667 -12.667 99 -38s41 -57 41 -95c0 -36 -13.667 -66.833 -41 -92.5s-60.333 -38.5 -99 -38.5z" />
    <glyph glyph-name="k" unicode="k" horiz-adv-x="1075" 
d="M1080 0h-294l-398 492h-4v-492h-233v1516h233v-961h4l376 469h279l-423 -494z" />
    <glyph glyph-name="l" unicode="l" horiz-adv-x="535" 
d="M384 0h-233v1516h233v-1516z" />
    <glyph glyph-name="m" unicode="m" horiz-adv-x="1814" 
d="M1682 0h-232v558c0 107.333 -15.167 185 -45.5 233s-81.5 72 -153.5 72c-60.667 0 -112.167 -30.333 -154.5 -91s-63.5 -133.334 -63.5 -218.001v-554h-233v577c0 190.667 -67.333 286 -202 286c-62.667 0 -114.167 -28.667 -154.5 -86s-60.5 -131.666 -60.5 -222.999
v-554h-232v1024h232v-162h4c74 124 181.667 186 323 186c70.667 0 132.5 -19.5 185.5 -58.5s89.167 -90.167 108.5 -153.5c76 141.333 189.333 212 340 212c225.333 0 338 -139 338 -417v-631z" />
    <glyph glyph-name="n" unicode="n" horiz-adv-x="1195" 
d="M1063 0h-232.001v577c0 191.333 -67.667 287 -203 287c-70.667 0 -129 -26.5 -175 -79.5s-69 -119.833 -69 -200.5v-584h-233v1024h233v-170h4c76.667 129.333 187.334 194 332.001 194c111.333 0 196.333 -36.167 255 -108.5s88 -176.833 88 -313.5v-626z" />
    <glyph glyph-name="o" unicode="o" horiz-adv-x="1223" 
d="M605 -24c-158 0 -284.167 47.832 -378.5 143.499s-141.5 222.5 -141.5 380.5c0 172 49.167 306.333 147.5 403s230.833 145 397.5 145c160 0 284.667 -47 374 -141s134 -224.333 134 -391c0 -163.333 -48.167 -294.166 -144.5 -392.499s-225.833 -147.5 -388.5 -147.5z
M616 862.999c-90.667 0 -162.332 -31.668 -214.999 -95.001s-79 -150.666 -79 -261.999c0 -107.333 26.667 -191.833 80 -253.5s124.666 -92.5 213.999 -92.5c91.333 0 161.5 30.333 210.5 91s73.5 147 73.5 259c0 112.667 -24.5 199.667 -73.5 261s-119.167 92 -210.5 92z
" />
    <glyph glyph-name="p" unicode="p" horiz-adv-x="1234" 
d="M387 151l-3.99902 0.000976562v-622h-232v1495h232v-180h4c79.333 136 195.333 204 348 204c130 0 231.333 -45.667 304 -137s109 -214 109 -368c0 -170.667 -41 -307.334 -123 -410.001s-194 -154 -336 -154c-130.667 0 -231.334 57.333 -302.001 172zM381.001 555.001
v-127c0 -74.667 23.833 -138 71.5 -190s108.167 -78 181.5 -78c86 0 153.5 33.5 202.5 100.5s73.5 160.5 73.5 280.5c0 100.667 -22.833 179.5 -68.5 236.5s-107.5 85.5 -185.5 85.5c-82.667 0 -149.167 -29.333 -199.5 -88s-75.5 -132 -75.5 -220z" />
    <glyph glyph-name="q" unicode="q" horiz-adv-x="1234" 
d="M1082 -471h-231.999v647h-4c-70 -133.333 -184.333 -200 -343 -200c-126 0 -227.167 45.833 -303.5 137.5s-114.5 216.5 -114.5 374.5c0 170 41.833 305.833 125.5 407.5s196.167 152.5 337.5 152.5c137.333 0 236.666 -55.333 297.999 -166h4v142h232v-1495z
M853.001 466l0.000976562 131.999c0 74 -23.833 136.667 -71.5 188s-108.167 77 -181.5 77c-86 0 -153.833 -32.167 -203.5 -96.5s-74.5 -155.166 -74.5 -272.499c0 -104 24 -185.667 72 -245s110 -89 186 -89c83.333 0 149.666 29 198.999 87s74 131 74 219z" />
    <glyph glyph-name="r" unicode="r" horiz-adv-x="758" 
d="M745 803c-28 22 -68.333 33 -121 33c-68.667 0 -126 -31 -172 -93s-69 -146.333 -69 -253v-490h-232v1024h232v-211h4c22.667 72 57.5 128.167 104.5 168.5s99.5 60.5 157.5 60.5c42 0 74 -6.33301 96 -19v-220z" />
    <glyph glyph-name="s" unicode="s" horiz-adv-x="883" 
d="M87 32v214.999c86.667 -66 182.334 -99 287.001 -99c140 0 210 41.333 210 124c0 23.333 -6 43.166 -18 59.499s-28.167 30.833 -48.5 43.5s-44.333 24 -72 34l-92.5 34c-42 16.667 -79.833 34.334 -113.5 53.001s-61.667 39.834 -84 63.501s-39.166 50.5 -50.499 80.5
s-17 65 -17 105c0 49.333 11.667 92.833 35 130.5s54.666 69.334 93.999 95.001s84 45 134 58s101.667 19.5 155 19.5c94.667 0 179.334 -14.333 254.001 -43v-203c-72 49.333 -154.667 74 -248 74c-29.333 0 -55.833 -3 -79.5 -9s-43.834 -14.333 -60.501 -25
s-29.667 -23.5 -39 -38.5s-14 -31.5 -14 -49.5c0 -22 4.66699 -40.667 14 -56s23.166 -28.833 41.499 -40.5s40.333 -22.334 66 -32.001s55.167 -20.167 88.5 -31.5c44 -18 83.5 -36.333 118.5 -55s64.833 -39.834 89.5 -63.501s43.667 -51 57 -82s20 -67.833 20 -110.5
c0 -52 -12 -97.333 -36 -136s-56 -70.667 -96 -96s-86.167 -44.166 -138.5 -56.499s-107.5 -18.5 -165.5 -18.5c-112 0 -209 18.667 -291 56z" />
    <glyph glyph-name="t" unicode="t" horiz-adv-x="740" 
d="M691 11c-45.333 -22.667 -105 -34 -179 -34c-198.667 0 -298 95.333 -298 286v579h-171v182h171v237l232 66v-303h245v-182h-245v-512c0 -60.667 11 -104 33 -130s58.667 -39 110 -39c39.333 0 73.333 11.333 102 34v-184z" />
    <glyph glyph-name="u" unicode="u" horiz-adv-x="1195" 
d="M1044 0h-232v162h-4c-67.333 -124 -172 -186 -314 -186c-242 0 -363 145.333 -363 436v612h232v-588c0 -184 71 -276 213 -276c68.667 0 125.167 25.333 169.5 76s66.5 117 66.5 199v589h232v-1024z" />
    <glyph glyph-name="v" unicode="v" horiz-adv-x="1039" 
d="M1033 1024l-396 -1024h-251l-377 1024h252l227 -716c17.333 -52.667 28 -98.667 32 -138h3c6 49.333 15.333 94 28 134l238 720h244z" />
    <glyph glyph-name="w" unicode="w" horiz-adv-x="1549" 
d="M1528 1024l-302 -1024h-243l-186 694c-7.33301 26.667 -12 56.667 -14 90h-4c-1.33301 -22.667 -7.33301 -52 -18 -88l-202 -696h-238l-301 1024h240l186 -738c6 -22 10 -51.333 12 -88h7c2 28 7.33301 58 16 90l207 736h218l184 -741
c6 -23.333 10.333 -52.666 13 -87.999h7c1.33301 24.667 6.33301 54 15 88l182 741h221z" />
    <glyph glyph-name="x" unicode="x" horiz-adv-x="1026" 
d="M1007 1024l-341.001 -518l337 -506h-269l-180 317c-11.333 19.333 -24.666 44 -39.999 74h-4c-2.66699 -6 -16.667 -30.667 -42 -74l-183 -317h-268l348 502l-330 522h270l177 -333c13.333 -24.667 26.333 -50 39 -76h3l229 409h254z" />
    <glyph glyph-name="y" unicode="y" horiz-adv-x="1041" 
d="M1038 1024l-462 -1188c-96 -212 -230.667 -318 -404 -318c-48.667 0 -89.334 4.33301 -122.001 13v193c36.667 -12 70 -18 100 -18c86.667 0 151.334 42.667 194.001 128l69 168l-407 1022h257l244 -744c2.66699 -9.33301 8.66699 -34 18 -74h5
c3.33301 15.333 9.33301 39.333 18 72l256 746h234z" />
    <glyph glyph-name="z" unicode="z" horiz-adv-x="951" 
d="M907 927l-553 -746h551v-181h-876v87l565 756h-511v181h824v-97z" />
    <glyph glyph-name="braceleft" unicode="{" horiz-adv-x="680" 
d="M608 -326c-237.333 2.66699 -356.001 103.996 -356.001 303.996v295c0 132 -52 201.333 -156 208v146c104 6.66699 156 77.334 156 212.001v287c0 202.667 118.667 305.334 356 308.001v-155c-106 -2.66699 -159 -66.334 -159 -191.001v-282
c0 -134.667 -66.333 -217.667 -199 -249v-3c132.667 -29.333 199 -111.666 199 -246.999v-279c0 -71.333 11.833 -122.166 35.5 -152.499s64.834 -46.166 123.501 -47.499v-154z" />
    <glyph glyph-name="bar" unicode="|" horiz-adv-x="570" 
d="M383 -482h-194v2048h194v-2048z" />
    <glyph glyph-name="braceright" unicode="}" horiz-adv-x="680" 
d="M583 481c-103.333 -6.66699 -155 -75.999 -155 -207.999v-295c0 -200 -118 -301.333 -354 -304v154c58 1.33301 99.167 17.333 123.5 48s36.5 81.334 36.5 152.001v279c0 135.333 65.667 217.666 197 246.999v3c-131.333 31.333 -197 114.333 -197 249v282
c0 124.667 -53.333 188.334 -160 191.001v155c236 -2.66699 354 -105.334 354 -308.001v-287c0 -134.667 51.667 -205.334 155 -212.001v-146z" />
    <glyph glyph-name="asciitilde" unicode="~" horiz-adv-x="1422" 
d="M1220 759c-4.66699 -106 -31.501 -188.167 -80.501 -246.5s-115.5 -87.5 -199.5 -87.5c-72.667 0 -161.334 32.667 -266.001 98c-64.667 44.667 -117.667 67 -159 67c-93.333 0 -142 -56.333 -146 -169h-166c3.33301 103.333 29.833 185 79.5 245s116.834 90 201.501 90
c75.333 0 154 -25.333 236 -76c88 -60.667 153.667 -91 197 -91c40.667 0 73.334 15.667 98.001 47s37.667 72.333 39 123h166z" />
    <glyph glyph-name="uni00A0" unicode="&#xa0;" horiz-adv-x="563" 
 />
    <glyph glyph-name="exclamdown" unicode="&#xa1;" horiz-adv-x="622" 
d="M311 778c-40 0 -74 13 -102 39s-42 57.667 -42 95s14.167 69.166 42.5 95.499s62.5 39.5 102.5 39.5c38.667 0 72 -13.167 100 -39.5s42 -58.166 42 -95.499s-14.167 -69 -42.5 -95s-61.833 -39 -100.5 -39zM435 -406h-244l27 1011h189z" />
    <glyph glyph-name="cent" unicode="&#xa2;" horiz-adv-x="1137" 
d="M975 208c-58.667 -38.667 -126.334 -61.3359 -203.001 -68.0029v-189h-141v191c-138.667 14.667 -249 68.334 -331 161.001s-123 208 -123 346c0 146 41 268.167 123 366.5s192.333 159.833 331 184.5v214h141v-203c75.333 -1.33301 143 -18.666 203 -51.999v-213
c-62 44.667 -129.667 69.334 -203 74.001v-690c74.667 8 142.334 36.667 203.001 86v-208zM631 338.998l-0.00195312 670c-71.333 -18 -127.166 -57.167 -167.499 -117.5s-60.5 -134.5 -60.5 -222.5s20.333 -161 61 -219s96.334 -95 167.001 -111z" />
    <glyph glyph-name="sterling" unicode="&#xa3;" horiz-adv-x="1137" 
d="M1055 0l-932 -0.000976562v176c137.333 41.333 206 135 206 281v168h-185v175h185v245c0 120.667 38.5 219.667 115.5 297s176.833 116 299.5 116c82.667 0 158 -13.667 226 -41v-201c-63.333 38 -130.333 57 -201 57c-145.333 0 -218 -89 -218 -267v-206h284v-175h-284
v-138c0 -143.333 -64.333 -243.666 -193 -300.999h697v-186z" />
    <glyph glyph-name="currency" unicode="&#xa4;" horiz-adv-x="1138" 
d="M1060 356l-114 -118.001l-140 139c-69.333 -47.333 -148 -71 -236 -71c-91.333 0 -171.666 22.667 -240.999 68l-137 -136l-114 118l140 136c-48 74 -72 151.667 -72 233c0 84.667 24 162.334 72 233.001l-140 138l114 118l141 -139c72.667 48 151.667 72 237 72
s163.666 -24 234.999 -72l141 139l114 -118l-139 -138c49.333 -73.333 74 -151 74 -233c0 -79.333 -24.667 -157 -74 -233zM570 984.999c-72.667 0 -134 -25.333 -184 -76s-75 -111.334 -75 -182.001s25.333 -131.334 76 -182.001s111.667 -76 183 -76
c70.667 0 131.667 25.333 183 76s77 111.334 77 182.001s-26 131.334 -78 182.001s-112.667 76 -182 76z" />
    <glyph glyph-name="yen" unicode="&#xa5;" horiz-adv-x="1137" 
d="M1093 1434l-354.999 -650.001h270v-161h-321v-183h321v-161h-321v-279h-228v279h-331v161h331v183h-331v161h275l-348 650h250l231 -494c17.333 -37.333 31.666 -73 42.999 -107h4c8 26.667 23 64.334 45 113.001l229 488h236z" />
    <glyph glyph-name="brokenbar" unicode="&#xa6;" horiz-adv-x="570" 
d="M383 701h-194v865h194v-865zM383 -482h-194v872h194v-872z" />
    <glyph glyph-name="section" unicode="&#xa7;" horiz-adv-x="952" 
d="M697 424c60 -50 90.001 -113 90.001 -189c0 -89.333 -35.667 -161.833 -107 -217.5s-162.333 -83.5 -273 -83.5c-93.333 0 -178.333 18.667 -255 56v196c88 -52.667 172.333 -79 253 -79c56.667 0 100.5 11.833 131.5 35.5s46.5 53.834 46.5 90.501
c0 31.333 -11.833 58 -35.5 80s-84.167 56.333 -181.5 103c-156.667 80 -235 184.333 -235 313c0 107.333 48.333 187.666 145 240.999c-70.667 56 -106 131.333 -106 226c0 86 33.167 156.667 99.5 212s153.5 83 261.5 83c92 0 169.667 -14.333 233 -43v-191
c-66.667 41.333 -140.334 62 -221.001 62c-110.667 0 -166 -42.667 -166 -128c0 -32 13.667 -61.333 41 -88s96 -63 206 -109c150 -71.333 225 -169.333 225 -294c0 -113.333 -50.667 -205.333 -152 -276zM423.001 884c-63.333 -30 -95 -77 -95 -141
c0 -42.667 17.667 -80 53 -112s97 -66.667 185 -104c55.333 40 83 90.667 83 152c0 42.667 -16.5 79 -49.5 109s-91.833 62 -176.5 96z" />
    <glyph glyph-name="dieresis" unicode="&#xa8;" horiz-adv-x="892" 
d="M649 1203c-33.333 0 -62.166 11.001 -86.499 33.001s-36.5 50 -36.5 84c0 32.667 11.667 60 35 82s51.666 33 84.999 33c35.333 0 65.166 -11.167 89.499 -33.5s36.5 -49.5 36.5 -81.5c0 -32.667 -11.667 -60.334 -35 -83.001s-52.666 -34 -87.999 -34zM233 1203
c-34.667 0 -64.333 11.501 -89 34.501s-37 50.5 -37 82.5c0 32.667 11.833 60 35.5 82s52.5 33 86.5 33s63.5 -11.167 88.5 -33.5s37.5 -49.5 37.5 -81.5c0 -32.667 -12 -60.334 -36 -83.001s-52.667 -34 -86 -34z" />
    <glyph glyph-name="copyright" unicode="&#xa9;" horiz-adv-x="1808" 
d="M905 -29c-209.333 0 -387.833 72.833 -535.5 218.5s-221.5 321.5 -221.5 527.5s73.833 381.833 221.5 527.5s326.167 218.5 535.5 218.5c208.667 0 386.834 -72.833 534.501 -218.5s221.5 -321.5 221.5 -527.5s-73.833 -381.833 -221.5 -527.5
s-325.834 -218.5 -534.501 -218.5zM905 1364c-179.333 0 -332.333 -63.167 -459 -189.5s-190 -278.833 -190 -457.5s63.333 -331.167 190 -457.5s279.667 -189.5 459 -189.5s332.166 63.167 458.499 189.5s189.5 278.833 189.5 457.5s-63.167 331.167 -189.5 457.5
s-279.166 189.5 -458.499 189.5zM1206 275c-75.333 -43.333 -164.667 -65.002 -268 -65.002c-138 0 -253.833 46 -347.5 138s-140.5 207 -140.5 345c0 160.667 47.833 288.834 143.5 384.501s220.167 143.5 373.5 143.5c88 0 166.333 -17 235 -51v-190
c-58.667 48 -136.667 72 -234 72c-96 0 -175.167 -31 -237.5 -93s-93.5 -145 -93.5 -249c0 -101.333 31.833 -182.666 95.5 -243.999s144.5 -92 242.5 -92c90 0 167 26 231 78v-177z" />
    <glyph glyph-name="ordfeminine" unicode="&#xaa;" horiz-adv-x="820" 
d="M711 717l-167 0.000976562v100h-4c-51.333 -80 -126.333 -120 -225 -120c-71.333 0 -128.833 20.167 -172.5 60.5s-65.5 91.833 -65.5 154.5c0 136 81 215 243 237l224 31c0 95.333 -48.333 143 -145 143c-89.333 0 -173 -27.333 -251 -82v150
c76.667 42.667 168.667 64 276 64c90 0 160.333 -23.833 211 -71.5s76 -114.834 76 -201.501v-465zM544 1066l-155 -22c-96 -13.333 -144 -52 -144 -116c0 -30.667 11.333 -55.5 34 -74.5s53 -28.5 91 -28.5c46 0 86.5 17.833 121.5 53.5s52.5 78.5 52.5 128.5v59z" />
    <glyph glyph-name="guillemotleft" unicode="&#xab;" horiz-adv-x="1105" 
d="M1032 200h-214l-311 336l311 344h214l-318 -344zM599 200h-212l-313 336l313 344h211l-317 -344z" />
    <glyph glyph-name="logicalnot" unicode="&#xac;" horiz-adv-x="1422" 
d="M1190 259h-164v412h-791v164h955v-576z" />
    <glyph glyph-name="uni00AD" unicode="&#xad;" horiz-adv-x="823" 
d="M690 474h-546v171h546v-171z" />
    <glyph glyph-name="registered" unicode="&#xae;" horiz-adv-x="1808" 
d="M905 -29c-209.333 0 -387.833 72.833 -535.5 218.5s-221.5 321.5 -221.5 527.5s73.833 381.833 221.5 527.5s326.167 218.5 535.5 218.5c208.667 0 386.834 -72.833 534.501 -218.5s221.5 -321.5 221.5 -527.5s-73.833 -381.833 -221.5 -527.5
s-325.834 -218.5 -534.501 -218.5zM905 1364c-179.333 0 -332.333 -63.167 -459 -189.5s-190 -278.833 -190 -457.5s63.333 -331.167 190 -457.5s279.667 -189.5 459 -189.5s332.166 63.167 458.499 189.5s189.5 278.833 189.5 457.5s-63.167 331.167 -189.5 457.5
s-279.166 189.5 -458.499 189.5zM1293 255l-210 -0.000976562l-92 217c-46.667 108.667 -97 163 -151 163h-78v-380h-168v940h282c117.333 0 207.833 -23 271.5 -69s95.5 -108.333 95.5 -187c0 -64.667 -19.5 -119.667 -58.5 -165s-96.5 -75.666 -172.5 -90.999v-4
c52.667 -11.333 105 -69.333 157 -174zM762 1053v-282.999h126c115.333 0 173 47.333 173 142c0 51.333 -15.5 87.666 -46.5 108.999s-80.167 32 -147.5 32h-105z" />
    <glyph glyph-name="uni00AF" unicode="&#xaf;" horiz-adv-x="850" 
d="M850 1396h-850v120h850v-120z" />
    <glyph glyph-name="degree" unicode="&#xb0;" horiz-adv-x="775" 
d="M392 896c-78 0 -144.333 27.335 -199 82.002s-82 121.334 -82 200.001c0 77.333 27 142.666 81 195.999s119.667 80 197 80c78.667 0 145.5 -26.833 200.5 -80.5s82.5 -118.834 82.5 -195.501c0 -78.667 -27.333 -145.334 -82 -200.001s-120.667 -82 -198 -82zM392 1321
c-40 0 -74.168 -14.001 -102.501 -42.001s-42.5 -62 -42.5 -102c0 -40.667 13.833 -75.5 41.5 -104.5s61.5 -43.5 101.5 -43.5c39.333 0 73.5 14.667 102.5 44s43.5 64 43.5 104c0 40.667 -14.167 74.834 -42.5 102.501s-62.166 41.5 -101.499 41.5z" />
    <glyph glyph-name="plusminus" unicode="&#xb1;" horiz-adv-x="1422" 
d="M1190 671h-395v-396h-163v396h-396v164h396v398h163v-398h395v-164zM1189 0h-954v164h954v-164z" />
    <glyph glyph-name="uni00B2" unicode="&#xb2;" horiz-adv-x="785" 
d="M686 884h-577v133l230 220c66 63.333 108 112 126 146s27 68 27 102s-11.167 61.667 -33.5 83s-51.833 32 -88.5 32c-78 0 -149.333 -34 -214 -102v179c58 51.333 138.667 77 242 77c84 0 150.5 -22.833 199.5 -68.5s73.5 -105.834 73.5 -180.501
c0 -95.333 -64.333 -203.666 -193 -324.999l-155 -145v-4h363v-147z" />
    <glyph glyph-name="uni00B3" unicode="&#xb3;" horiz-adv-x="785" 
d="M130 916l-0.000976562 160c69.333 -48.667 142.333 -73 219 -73c50 0 89.5 11 118.5 33s43.5 51.667 43.5 89c0 82.667 -71.667 124 -215 124h-82v140h78c128 0 192 39 192 117c0 70.667 -44 106 -132 106c-64.667 0 -128.667 -22.333 -192 -67v155
c61.333 36 136.333 54 225 54c81.333 0 146 -20.167 194 -60.5s72 -92.833 72 -157.5c0 -98 -48 -164.667 -144 -200v-4c116 -28 174 -94.667 174 -200c0 -79.333 -30 -144 -90 -194s-140.333 -75 -241 -75c-93.333 0 -166.666 17.667 -219.999 53z" />
    <glyph glyph-name="acute" unicode="&#xb4;" horiz-adv-x="597" 
d="M568 1546l-286 -328h-172l242 328h216z" />
    <glyph glyph-name="uni00B5" unicode="&#xb5;" horiz-adv-x="1215" 
d="M1098 0l-238.999 -0.000976562c-15.333 46 -23 99.667 -23 161h-5c-48.667 -122.667 -130 -184 -244 -184c-94 0 -161 32 -201 96h-3v-468h-232v1419h232v-610c0 -74.667 19.667 -134.167 59 -178.5s90.666 -66.5 153.999 -66.5c68.667 0 124.5 26 167.5 78
s64.5 122 64.5 210v567h235v-759c0 -125.333 11.667 -213.666 35 -264.999z" />
    <glyph glyph-name="paragraph" unicode="&#xb6;" horiz-adv-x="985" 
d="M884 1304l-123 0.000976562v-1304h-136v1304h-140v-1304h-139v874c-75.333 0 -137.833 26.667 -187.5 80s-74.5 120.666 -74.5 201.999c0 82 26.5 148.833 79.5 200.5s117.5 77.5 193.5 77.5h527v-130z" />
    <glyph glyph-name="periodcentered" unicode="&#xb7;" horiz-adv-x="494" 
d="M245 499c-39.333 0 -72.833 13.333 -100.5 40s-41.5 58.667 -41.5 96c0 38 14.167 70.167 42.5 96.5s62.5 39.5 102.5 39.5s74.167 -13.167 102.5 -39.5s42.5 -58.5 42.5 -96.5c0 -37.333 -14.333 -69.333 -43 -96s-63.667 -40 -105 -40z" />
    <glyph glyph-name="cedilla" unicode="&#xb8;" horiz-adv-x="429" 
d="M420 -248c0 -129.333 -96 -194 -288 -194c-31.333 0 -58.333 1 -81 3v111c29.333 -4 53 -6 71 -6c88.667 0 133 27.333 133 82c0 49.333 -40.333 74 -121 74c-6.66699 0 -19.667 -1.33301 -39 -4v182h136v-94c58 0 104 -13.5 138 -40.5s51 -64.833 51 -113.5z" />
    <glyph glyph-name="uni00B9" unicode="&#xb9;" horiz-adv-x="759" 
d="M676 884h-531v139h181v541l-192 -48v149l361 90v-732h181v-139z" />
    <glyph glyph-name="ordmasculine" unicode="&#xba;" horiz-adv-x="905" 
d="M446 696c-116 0 -207.001 33.834 -273.001 101.501s-99 159.5 -99 275.5c0 119.333 35.333 212.666 106 279.999s164.334 101 281.001 101c113.333 0 202.833 -33 268.5 -99s98.5 -156 98.5 -270c0 -118.667 -34.5 -213.167 -103.5 -283.5s-161.833 -105.5 -278.5 -105.5
zM452.999 1315c-61.333 0 -110.001 -21.5 -146.001 -64.5s-54 -102.167 -54 -177.5c0 -74 17.167 -132 51.5 -174s83.5 -63 147.5 -63c60.667 0 108.834 21.667 144.501 65s53.5 102 53.5 176s-17.5 132.167 -52.5 174.5s-83.167 63.5 -144.5 63.5z" />
    <glyph glyph-name="guillemotright" unicode="&#xbb;" horiz-adv-x="1105" 
d="M1033 538l-313 -338h-211l315 338l-315 342h211zM600 538l-312 -338h-214l320 338l-320 342h214z" />
    <glyph glyph-name="onequarter" unicode="&#xbc;" horiz-adv-x="1898" 
d="M657 584h-531v139h181v541l-192 -48v149l361 90v-732h181v-139zM1447 1434l-875 -1434h-189l873 1434h191zM1769 192h-110v-191h-169v191h-394v114l361 545h202v-529h110v-130zM1494 704l-5 0.000976562c-8 -20.667 -21 -45.334 -39 -74.001l-195 -308h235v300
c0 20 1.33301 47.333 4 82z" />
    <glyph glyph-name="onehalf" unicode="&#xbd;" horiz-adv-x="1938" 
d="M657 584h-531v139h181v541l-192 -48v149l361 90v-732h181v-139zM1790 1h-577v133l230 220c66 63.333 108 112 126 146s27 68 27 102s-11.167 61.667 -33.5 83s-51.833 32 -88.5 32c-78 0 -149.333 -34 -214 -102v179c58 51.333 138.667 77 242 77
c84 0 150.5 -22.833 199.5 -68.5s73.5 -105.834 73.5 -180.501c0 -95.333 -64.333 -203.666 -193 -324.999l-155 -145v-4h363v-147zM1445 1434l-875 -1434h-189l873 1434h191z" />
    <glyph glyph-name="threequarters" unicode="&#xbe;" horiz-adv-x="1975" 
d="M130 616l-0.000976562 160c69.333 -48.667 142.333 -73 219 -73c50 0 89.5 11 118.5 33s43.5 51.667 43.5 89c0 82.667 -71.667 124 -215 124h-82v140h78c128 0 192 39 192 117c0 70.667 -44 106 -132 106c-64.667 0 -128.667 -22.333 -192 -67v155
c61.333 36 136.333 54 225 54c81.333 0 146 -20.167 194 -60.5s72 -92.833 72 -157.5c0 -98 -48 -164.667 -144 -200v-4c116 -28 174 -94.667 174 -200c0 -79.333 -30 -144 -90 -194s-140.333 -75 -241 -75c-93.333 0 -166.666 17.667 -219.999 53zM1511 1434l-875 -1434
h-189l873 1434h191zM1825 192h-110v-191h-169v191h-394v114l361 545h202v-529h110v-130zM1550 704l-5 0.000976562c-8 -20.667 -21 -45.334 -39 -74.001l-195 -308h235v300c0 20 1.33301 47.333 4 82z" />
    <glyph glyph-name="questiondown" unicode="&#xbf;" horiz-adv-x="909" 
d="M634 621c6 -16.667 11.3311 -38 15.998 -64s7 -52 7 -78c0 -40 -8 -76.333 -24 -109s-36 -63.167 -60 -91.5s-50 -55.5 -78 -81.5s-54 -52.333 -78 -79s-44 -54.667 -60 -84s-24 -61.666 -24 -96.999c0 -28 5.33301 -52.833 16 -74.5s25 -39.834 43 -54.501
s39 -25.667 63 -33s49.333 -11 76 -11c117.333 0 219.333 44 306 132v-232c-107.333 -62.667 -218.666 -94 -333.999 -94c-55.333 0 -107.166 7.16699 -155.499 21.5s-90.666 35.5 -126.999 63.5s-65.166 63 -86.499 105s-32 90.667 -32 146
c0 48.667 8.66699 92.167 26 130.5s39.166 73.666 65.499 105.999s54.833 62.333 85.5 90s59.167 55.167 85.5 82.5s48.166 55.833 65.499 85.5s26 62.5 26 98.5c0 25.333 -3.16699 48.333 -9.5 69s-12.5 38.334 -18.5 53.001h206zM518.998 1047c38 0 72 -13 102 -39
c28.667 -25.333 43 -57.333 43 -96c0 -37.333 -14.333 -69 -43 -95c-28.667 -26.667 -62.667 -40 -102 -40c-38.667 0 -72 13.333 -100 40c-28.667 26 -43 57.667 -43 95c0 38.667 14.333 70.667 43 96c28.667 26 62 39 100 39z" />
    <glyph glyph-name="Agrave" unicode="&#xc0;" horiz-adv-x="1375" 
d="M1355 0h-261l-129 365h-564l-124 -365h-260l537 1434h268zM902 559l-199 572c-6 18.667 -12.333 48.667 -19 90h-4c-6 -38 -12.667 -68 -20 -90l-197 -572h439zM828 1566h-173l-262 328h214z" />
    <glyph glyph-name="Aacute" unicode="&#xc1;" horiz-adv-x="1375" 
d="M1355 0h-261l-129 365h-564l-124 -365h-260l537 1434h268zM902 559l-199 572c-6 18.667 -12.333 48.667 -19 90h-4c-6 -38 -12.667 -68 -20 -90l-197 -572h439zM954 1908l-286 -328h-172l242 328h216z" />
    <glyph glyph-name="Acircumflex" unicode="&#xc2;" horiz-adv-x="1375" 
d="M1355 0h-261l-129 365h-564l-124 -365h-260l537 1434h268zM902 559l-199 572c-6 18.667 -12.333 48.667 -19 90h-4c-6 -38 -12.667 -68 -20 -90l-197 -572h439zM994 1566h-160l-161 211l-157 -211h-155l224 328h184z" />
    <glyph glyph-name="Atilde" unicode="&#xc3;" horiz-adv-x="1375" 
d="M1355 0h-261l-129 365h-564l-124 -365h-260l537 1434h268zM902 559l-199 572c-6 18.667 -12.333 48.667 -19 90h-4c-6 -38 -12.667 -68 -20 -90l-197 -572h439zM1021 1836c0 -77.333 -17.166 -140.5 -51.499 -189.5s-80.833 -73.5 -139.5 -73.5c-48 0 -103 16 -165 48
c-52 30 -92.333 45 -121 45c-56 0 -84 -37 -84 -111h-115c0 79.333 17 142.833 51 190.5s81.667 71.5 143 71.5c45.333 0 97.666 -17 156.999 -51c48 -29.333 89.667 -44 125 -44c54 0 81 38 81 114h119z" />
    <glyph glyph-name="Adieresis" unicode="&#xc4;" horiz-adv-x="1375" 
d="M1355 0h-261l-129 365h-564l-124 -365h-260l537 1434h268zM902 559l-199 572c-6 18.667 -12.333 48.667 -19 90h-4c-6 -38 -12.667 -68 -20 -90l-197 -572h439zM886 1565c-33.333 0 -62.166 11.001 -86.499 33.001s-36.5 50 -36.5 84c0 32.667 11.667 60 35 82
s51.666 33 84.999 33c35.333 0 65.166 -11.167 89.499 -33.5s36.5 -49.5 36.5 -81.5c0 -32.667 -11.667 -60.334 -35 -83.001s-52.666 -34 -87.999 -34zM470 1565c-34.667 0 -64.333 11.501 -89 34.501s-37 50.5 -37 82.5c0 32.667 11.833 60 35.5 82s52.5 33 86.5 33
s63.5 -11.167 88.5 -33.5s37.5 -49.5 37.5 -81.5c0 -32.667 -12 -60.334 -36 -83.001s-52.667 -34 -86 -34z" />
    <glyph glyph-name="Aring" unicode="&#xc5;" horiz-adv-x="1375" 
d="M1355 0h-261l-129 365h-564l-124 -365h-260l537 1434h268zM902 559l-199 572c-6 18.667 -12.333 48.667 -19 90h-4c-6 -38 -12.667 -68 -20 -90l-197 -572h439zM679 1333c-62.667 0 -114.5 18 -155.5 54s-61.5 83.333 -61.5 142c0 65.333 21 117.333 63 156
s95.667 58 161 58c64 0 116.5 -19.5 157.5 -58.5s61.5 -88.833 61.5 -149.5c0 -58 -21.833 -106.167 -65.5 -144.5s-97.167 -57.5 -160.5 -57.5zM679 1643c-30 0 -54.833 -10 -74.5 -30s-29.5 -44.667 -29.5 -74c0 -69.333 34.667 -104 104 -104
c32 0 58.5 9.83301 79.5 29.5s31.5 44.5 31.5 74.5s-10.5 54.833 -31.5 74.5s-47.5 29.5 -79.5 29.5z" />
    <glyph glyph-name="AE" unicode="&#xc6;" horiz-adv-x="1831" 
d="M1749 0h-804v365h-492l-172 -365h-275l710 1434h1000v-202h-534v-406h497v-201h-497v-424h567v-201zM945 559v673h-87l-317 -673h404z" />
    <glyph glyph-name="Ccedilla" unicode="&#xc7;" horiz-adv-x="1272" 
d="M1177 60c-108 -56 -242.332 -83.998 -402.999 -83.998c-208 0 -374.667 65.667 -500 197s-188 303.666 -188 516.999c0 229.333 70.5 414.666 211.5 555.999s319.167 212 534.5 212c138.667 0 253.667 -19.667 345 -59v-236c-96.667 57.333 -203.334 86 -320.001 86
c-155.333 0 -281.166 -49.667 -377.499 -149s-144.5 -232 -144.5 -398c0 -158 45 -283.833 135 -377.5s208.333 -140.5 355 -140.5c135.333 0 252.666 32 351.999 96v-220zM984.001 -247.998c0 -129.333 -96 -194 -288 -194c-31.333 0 -58.333 1 -81 3v111
c29.333 -4 53 -6 71 -6c88.667 0 133 27.333 133 82c0 49.333 -40.333 74 -121 74c-6.66699 0 -19.667 -1.33301 -39 -4v182h136v-94c58 0 104 -13.5 138 -40.5s51 -64.833 51 -113.5z" />
    <glyph glyph-name="Egrave" unicode="&#xc8;" horiz-adv-x="1060" 
d="M982 0h-805v1434h773v-202h-535v-406h493v-201h-493v-424h567v-201zM731 1566h-173l-262 328h214z" />
    <glyph glyph-name="Eacute" unicode="&#xc9;" horiz-adv-x="1060" 
d="M982 0h-805v1434h773v-202h-535v-406h493v-201h-493v-424h567v-201zM873 1908l-286 -328h-172l242 328h216z" />
    <glyph glyph-name="Ecircumflex" unicode="&#xca;" horiz-adv-x="1060" 
d="M982 0h-805v1434h773v-202h-535v-406h493v-201h-493v-424h567v-201zM873 1567h-160l-161 211l-157 -211h-155l224 328h184z" />
    <glyph glyph-name="Edieresis" unicode="&#xcb;" horiz-adv-x="1060" 
d="M982 0h-805v1434h773v-202h-535v-406h493v-201h-493v-424h567v-201zM776 1565c-33.333 0 -62.166 11.001 -86.499 33.001s-36.5 50 -36.5 84c0 32.667 11.667 60 35 82s51.666 33 84.999 33c35.333 0 65.166 -11.167 89.499 -33.5s36.5 -49.5 36.5 -81.5
c0 -32.667 -11.667 -60.334 -35 -83.001s-52.666 -34 -87.999 -34zM360 1565c-34.667 0 -64.333 11.501 -89 34.501s-37 50.5 -37 82.5c0 32.667 11.833 60 35.5 82s52.5 33 86.5 33s63.5 -11.167 88.5 -33.5s37.5 -49.5 37.5 -81.5c0 -32.667 -12 -60.334 -36 -83.001
s-52.667 -34 -86 -34z" />
    <glyph glyph-name="Igrave" unicode="&#xcc;" horiz-adv-x="592" 
d="M546 1434v-192h-131v-1050h131v-192h-500v192h131v1050h-131v192h500zM469 1566h-173l-262 328h214z" />
    <glyph glyph-name="Iacute" unicode="&#xcd;" horiz-adv-x="592" 
d="M546 1434v-192h-131v-1050h131v-192h-500v192h131v1050h-131v192h500zM584 1908l-286 -328h-172l242 328h216z" />
    <glyph glyph-name="Icircumflex" unicode="&#xce;" horiz-adv-x="592" 
d="M546 1434v-192h-131v-1050h131v-192h-500v192h131v1050h-131v192h500zM620 1567h-160l-161 211l-157 -211h-155l224 328h184z" />
    <glyph glyph-name="Idieresis" unicode="&#xcf;" horiz-adv-x="592" 
d="M546 1434v-192h-131v-1050h131v-192h-500v192h131v1050h-131v192h500zM511 1565c-33.333 0 -62.166 11.001 -86.499 33.001s-36.5 50 -36.5 84c0 32.667 11.667 60 35 82s51.666 33 84.999 33c35.333 0 65.166 -11.167 89.499 -33.5s36.5 -49.5 36.5 -81.5
c0 -32.667 -11.667 -60.334 -35 -83.001s-52.666 -34 -87.999 -34zM95 1565c-34.667 0 -64.333 11.501 -89 34.501s-37 50.5 -37 82.5c0 32.667 11.833 60 35.5 82s52.5 33 86.5 33s63.5 -11.167 88.5 -33.5s37.5 -49.5 37.5 -81.5c0 -32.667 -12 -60.334 -36 -83.001
s-52.667 -34 -86 -34z" />
    <glyph glyph-name="Eth" unicode="&#xd0;" horiz-adv-x="1469" 
d="M177 0l0.000976562 616.001h-162v205h162v613h414c528.667 0 793 -233 793 -699c0 -222.667 -73.333 -400.834 -220 -534.501s-343.334 -200.5 -590.001 -200.5h-397zM414.001 1232v-411h307v-205h-307v-415h190c167.333 0 297.5 46 390.5 138s139.5 222.667 139.5 392
c0 334 -173.667 501 -521 501h-199z" />
    <glyph glyph-name="Ntilde" unicode="&#xd1;" horiz-adv-x="1571" 
d="M1393 0h-260.001l-685 1054c-17.333 26.667 -31.666 54.334 -42.999 83.001h-6c5.33301 -30.667 8 -96.334 8 -197.001v-940h-230v1434h277l662 -1029c28 -42.667 46 -72 54 -88h4c-6.66699 38 -10 102.333 -10 193v924h229v-1434zM1154 1836
c0 -77.333 -17.166 -140.5 -51.499 -189.5s-80.833 -73.5 -139.5 -73.5c-48 0 -103 16 -165 48c-52 30 -92.333 45 -121 45c-56 0 -84 -37 -84 -111h-115c0 79.333 17 142.833 51 190.5s81.667 71.5 143 71.5c45.333 0 97.666 -17 156.999 -51
c48 -29.333 89.667 -44 125 -44c54 0 81 38 81 114h119z" />
    <glyph glyph-name="Ograve" unicode="&#xd2;" horiz-adv-x="1548" 
d="M768 -24c-206.667 0 -372.167 66.999 -496.5 200.999s-186.5 308.333 -186.5 523c0 230.667 63.333 414.667 190 552s298.667 206 516 206c201.333 0 363.5 -66.667 486.5 -200s184.5 -307.666 184.5 -522.999c0 -234 -63 -419 -189 -555s-294.333 -204 -505 -204z
M779 1249c-131.333 0 -238.166 -49.001 -320.499 -147.001s-123.5 -227 -123.5 -387c0 -159.333 40 -287.666 120 -384.999s184.667 -146 314 -146c137.333 0 245.666 46.333 324.999 139s119 222.334 119 389.001c0 171.333 -38.5 303.666 -115.5 396.999
s-183.167 140 -318.5 140zM920 1566h-173l-262 328h214z" />
    <glyph glyph-name="Oacute" unicode="&#xd3;" horiz-adv-x="1548" 
d="M768 -24c-206.667 0 -372.167 66.999 -496.5 200.999s-186.5 308.333 -186.5 523c0 230.667 63.333 414.667 190 552s298.667 206 516 206c201.333 0 363.5 -66.667 486.5 -200s184.5 -307.666 184.5 -522.999c0 -234 -63 -419 -189 -555s-294.333 -204 -505 -204z
M779 1249c-131.333 0 -238.166 -49.001 -320.499 -147.001s-123.5 -227 -123.5 -387c0 -159.333 40 -287.666 120 -384.999s184.667 -146 314 -146c137.333 0 245.666 46.333 324.999 139s119 222.334 119 389.001c0 171.333 -38.5 303.666 -115.5 396.999
s-183.167 140 -318.5 140zM1076 1908l-286 -328h-172l242 328h216z" />
    <glyph glyph-name="Ocircumflex" unicode="&#xd4;" horiz-adv-x="1548" 
d="M768 -24c-206.667 0 -372.167 66.999 -496.5 200.999s-186.5 308.333 -186.5 523c0 230.667 63.333 414.667 190 552s298.667 206 516 206c201.333 0 363.5 -66.667 486.5 -200s184.5 -307.666 184.5 -522.999c0 -234 -63 -419 -189 -555s-294.333 -204 -505 -204z
M779 1249c-131.333 0 -238.166 -49.001 -320.499 -147.001s-123.5 -227 -123.5 -387c0 -159.333 40 -287.666 120 -384.999s184.667 -146 314 -146c137.333 0 245.666 46.333 324.999 139s119 222.334 119 389.001c0 171.333 -38.5 303.666 -115.5 396.999
s-183.167 140 -318.5 140zM1101 1566h-160l-161 211l-157 -211h-155l224 328h184z" />
    <glyph glyph-name="Otilde" unicode="&#xd5;" horiz-adv-x="1548" 
d="M768 -24c-206.667 0 -372.167 66.999 -496.5 200.999s-186.5 308.333 -186.5 523c0 230.667 63.333 414.667 190 552s298.667 206 516 206c201.333 0 363.5 -66.667 486.5 -200s184.5 -307.666 184.5 -522.999c0 -234 -63 -419 -189 -555s-294.333 -204 -505 -204z
M779 1249c-131.333 0 -238.166 -49.001 -320.499 -147.001s-123.5 -227 -123.5 -387c0 -159.333 40 -287.666 120 -384.999s184.667 -146 314 -146c137.333 0 245.666 46.333 324.999 139s119 222.334 119 389.001c0 171.333 -38.5 303.666 -115.5 396.999
s-183.167 140 -318.5 140zM1122 1835c0 -77.333 -17.166 -140.5 -51.499 -189.5s-80.833 -73.5 -139.5 -73.5c-48 0 -103 16 -165 48c-52 30 -92.333 45 -121 45c-56 0 -84 -37 -84 -111h-115c0 79.333 17 142.833 51 190.5s81.667 71.5 143 71.5
c45.333 0 97.666 -17 156.999 -51c48 -29.333 89.667 -44 125 -44c54 0 81 38 81 114h119z" />
    <glyph glyph-name="Odieresis" unicode="&#xd6;" horiz-adv-x="1548" 
d="M768 -24c-206.667 0 -372.167 66.999 -496.5 200.999s-186.5 308.333 -186.5 523c0 230.667 63.333 414.667 190 552s298.667 206 516 206c201.333 0 363.5 -66.667 486.5 -200s184.5 -307.666 184.5 -522.999c0 -234 -63 -419 -189 -555s-294.333 -204 -505 -204z
M779 1249c-131.333 0 -238.166 -49.001 -320.499 -147.001s-123.5 -227 -123.5 -387c0 -159.333 40 -287.666 120 -384.999s184.667 -146 314 -146c137.333 0 245.666 46.333 324.999 139s119 222.334 119 389.001c0 171.333 -38.5 303.666 -115.5 396.999
s-183.167 140 -318.5 140zM983 1564c-33.333 0 -62.166 11.001 -86.499 33.001s-36.5 50 -36.5 84c0 32.667 11.667 60 35 82s51.666 33 84.999 33c35.333 0 65.166 -11.167 89.499 -33.5s36.5 -49.5 36.5 -81.5c0 -32.667 -11.667 -60.334 -35 -83.001
s-52.666 -34 -87.999 -34zM567 1564c-34.667 0 -64.333 11.501 -89 34.501s-37 50.5 -37 82.5c0 32.667 11.833 60 35.5 82s52.5 33 86.5 33s63.5 -11.167 88.5 -33.5s37.5 -49.5 37.5 -81.5c0 -32.667 -12 -60.334 -36 -83.001s-52.667 -34 -86 -34z" />
    <glyph glyph-name="multiply" unicode="&#xd7;" horiz-adv-x="1422" 
d="M1168 253l-116 -116l-340 340l-339 -340l-117 117l340 337l-340 340l115 117l341 -340l341 340l114 -119l-339 -338z" />
    <glyph glyph-name="Oslash" unicode="&#xd8;" horiz-adv-x="1548" 
d="M335 121l-148 -177l-99 83l154 184c-104.667 128.667 -157 291.667 -157 489c0 228.667 63.167 412.167 189.5 550.5s298.833 207.5 517.5 207.5c155.333 0 289 -41.667 401 -125l132 157l99 -81l-137 -162c117.333 -129.333 176 -300 176 -512
c0 -234 -63 -419 -189 -555s-294.667 -204 -506 -204c-174 0 -318.333 48.333 -433 145zM1057 1171c-74 60 -166 90 -276 90c-136 0 -246.167 -50.5 -330.5 -151.5s-126.5 -232.5 -126.5 -394.5c0 -128 25 -235 75 -321zM1136 1069l-658.999 -780c76 -78 173 -117 291 -117
c141.333 0 252.666 47.5 333.999 142.5s122 227.5 122 397.5c0 148 -29.333 267 -88 357z" />
    <glyph glyph-name="Ugrave" unicode="&#xd9;" horiz-adv-x="1440" 
d="M1280 580c0 -402.667 -190.667 -604 -572 -604c-365.333 0 -548 193.667 -548 581v877h238v-828c0 -281.333 109.333 -422 328 -422c210.667 0 316 135.667 316 407v843h238v-854zM870 1566h-173l-262 328h214z" />
    <glyph glyph-name="Uacute" unicode="&#xda;" horiz-adv-x="1440" 
d="M1280 580c0 -402.667 -190.667 -604 -572 -604c-365.333 0 -548 193.667 -548 581v877h238v-828c0 -281.333 109.333 -422 328 -422c210.667 0 316 135.667 316 407v843h238v-854zM1029 1908l-286 -328h-172l242 328h216z" />
    <glyph glyph-name="Ucircumflex" unicode="&#xdb;" horiz-adv-x="1440" 
d="M1280 580c0 -402.667 -190.667 -604 -572 -604c-365.333 0 -548 193.667 -548 581v877h238v-828c0 -281.333 109.333 -422 328 -422c210.667 0 316 135.667 316 407v843h238v-854zM1037 1567h-160l-161 211l-157 -211h-155l224 328h184z" />
    <glyph glyph-name="Udieresis" unicode="&#xdc;" horiz-adv-x="1440" 
d="M1280 580c0 -402.667 -190.667 -604 -572 -604c-365.333 0 -548 193.667 -548 581v877h238v-828c0 -281.333 109.333 -422 328 -422c210.667 0 316 135.667 316 407v843h238v-854zM927 1566c-33.333 0 -62.166 11.001 -86.499 33.001s-36.5 50 -36.5 84
c0 32.667 11.667 60 35 82s51.666 33 84.999 33c35.333 0 65.166 -11.167 89.499 -33.5s36.5 -49.5 36.5 -81.5c0 -32.667 -11.667 -60.334 -35 -83.001s-52.666 -34 -87.999 -34zM511 1566c-34.667 0 -64.333 11.501 -89 34.501s-37 50.5 -37 82.5
c0 32.667 11.833 60 35.5 82s52.5 33 86.5 33s63.5 -11.167 88.5 -33.5s37.5 -49.5 37.5 -81.5c0 -32.667 -12 -60.334 -36 -83.001s-52.667 -34 -86 -34z" />
    <glyph glyph-name="Yacute" unicode="&#xdd;" horiz-adv-x="1182" 
d="M1176 1434l-470 -913v-521h-238v516l-458 918h271l282 -615c3.33301 -7.33301 13.333 -35 30 -83h3c6 21.333 17 49 33 83l295 615h252zM908 1894l-286 -328h-172l242 328h216z" />
    <glyph glyph-name="Thorn" unicode="&#xde;" horiz-adv-x="1197" 
d="M415 301l-0.000976562 -300.999h-238v1434h238v-219h207c163.333 0 289 -38.333 377 -115s132 -185.334 132 -326.001c0 -139.333 -47.667 -253 -143 -341s-223.666 -132 -384.999 -132h-188zM414.999 1020l-0.000976562 -524h154c100.667 0 177.834 23 231.501 69
s80.5 112 80.5 198c0 171.333 -98 257 -294 257h-172z" />
    <glyph glyph-name="germandbls" unicode="&#xdf;" horiz-adv-x="1191" 
d="M498 2l-0.00195312 205.998c46.667 -32 99.334 -48 158.001 -48c68 0 123.333 21.5 166 64.5s64 100.5 64 172.5c0 87.333 -31.833 158.333 -95.5 213s-151.5 87.667 -263.5 99v171c72.667 12 132.667 42.833 180 92.5s71 108.5 71 176.5
c0 64.667 -16.667 114.834 -50 150.501s-78.666 53.5 -135.999 53.5c-139.333 0 -209 -93.333 -209 -280v-1073h-232v1084c0 137.333 41.167 247.333 123.5 330s193.166 124 332.499 124c124 0 223.167 -32 297.5 -96s111.5 -148.333 111.5 -253
c0 -86 -24.333 -163 -73 -231s-112 -115 -190 -141v-5c247.333 -49.333 371 -190 371 -422c0 -117.333 -39.833 -215.666 -119.5 -294.999s-185.167 -119 -316.5 -119c-71.333 0 -134.666 8.66699 -189.999 26z" />
    <glyph glyph-name="agrave" unicode="&#xe0;" horiz-adv-x="1069" 
d="M937 0h-224.999v160h-4c-70.667 -122.667 -174.334 -184 -311.001 -184c-100.667 0 -179.5 27.333 -236.5 82s-85.5 127 -85.5 217c0 193.333 111.333 306 334 338l304 43c0 146 -69.333 219 -208 219c-122 0 -232 -42 -330 -126v203c108 64 232.667 96 374 96
c258.667 0 388 -127.333 388 -382v-666zM713.001 503l-214.999 -29.999c-66.667 -8.66699 -116.834 -24.834 -150.501 -48.501s-50.5 -65.167 -50.5 -124.5c0 -43.333 15.5 -78.833 46.5 -106.5s72.5 -41.5 124.5 -41.5c70.667 0 129.167 24.833 175.5 74.5
s69.5 112.167 69.5 187.5v89zM719.002 1204h-173l-262 328h214z" />
    <glyph glyph-name="aacute" unicode="&#xe1;" horiz-adv-x="1069" 
d="M937 0h-224.999v160h-4c-70.667 -122.667 -174.334 -184 -311.001 -184c-100.667 0 -179.5 27.333 -236.5 82s-85.5 127 -85.5 217c0 193.333 111.333 306 334 338l304 43c0 146 -69.333 219 -208 219c-122 0 -232 -42 -330 -126v203c108 64 232.667 96 374 96
c258.667 0 388 -127.333 388 -382v-666zM713.001 503l-214.999 -29.999c-66.667 -8.66699 -116.834 -24.834 -150.501 -48.501s-50.5 -65.167 -50.5 -124.5c0 -43.333 15.5 -78.833 46.5 -106.5s72.5 -41.5 124.5 -41.5c70.667 0 129.167 24.833 175.5 74.5
s69.5 112.167 69.5 187.5v89zM828.002 1546l-286 -328h-172l242 328h216z" />
    <glyph glyph-name="acircumflex" unicode="&#xe2;" horiz-adv-x="1069" 
d="M937 0h-224.999v160h-4c-70.667 -122.667 -174.334 -184 -311.001 -184c-100.667 0 -179.5 27.333 -236.5 82s-85.5 127 -85.5 217c0 193.333 111.333 306 334 338l304 43c0 146 -69.333 219 -208 219c-122 0 -232 -42 -330 -126v203c108 64 232.667 96 374 96
c258.667 0 388 -127.333 388 -382v-666zM713.001 503l-214.999 -29.999c-66.667 -8.66699 -116.834 -24.834 -150.501 -48.501s-50.5 -65.167 -50.5 -124.5c0 -43.333 15.5 -78.833 46.5 -106.5s72.5 -41.5 124.5 -41.5c70.667 0 129.167 24.833 175.5 74.5
s69.5 112.167 69.5 187.5v89zM854.002 1204h-160l-161 211l-157 -211h-155l224 328h184z" />
    <glyph glyph-name="atilde" unicode="&#xe3;" horiz-adv-x="1069" 
d="M937 0h-224.999v160h-4c-70.667 -122.667 -174.334 -184 -311.001 -184c-100.667 0 -179.5 27.333 -236.5 82s-85.5 127 -85.5 217c0 193.333 111.333 306 334 338l304 43c0 146 -69.333 219 -208 219c-122 0 -232 -42 -330 -126v203c108 64 232.667 96 374 96
c258.667 0 388 -127.333 388 -382v-666zM713.001 503l-214.999 -29.999c-66.667 -8.66699 -116.834 -24.834 -150.501 -48.501s-50.5 -65.167 -50.5 -124.5c0 -43.333 15.5 -78.833 46.5 -106.5s72.5 -41.5 124.5 -41.5c70.667 0 129.167 24.833 175.5 74.5
s69.5 112.167 69.5 187.5v89zM872.002 1475c0 -77.333 -17.166 -140.5 -51.499 -189.5s-80.833 -73.5 -139.5 -73.5c-48 0 -103 16 -165 48c-52 30 -92.333 45 -121 45c-56 0 -84 -37 -84 -111h-115c0 79.333 17 142.833 51 190.5s81.667 71.5 143 71.5
c45.333 0 97.666 -17 156.999 -51c48 -29.333 89.667 -44 125 -44c54 0 81 38 81 114h119z" />
    <glyph glyph-name="adieresis" unicode="&#xe4;" horiz-adv-x="1069" 
d="M937 0h-224.999v160h-4c-70.667 -122.667 -174.334 -184 -311.001 -184c-100.667 0 -179.5 27.333 -236.5 82s-85.5 127 -85.5 217c0 193.333 111.333 306 334 338l304 43c0 146 -69.333 219 -208 219c-122 0 -232 -42 -330 -126v203c108 64 232.667 96 374 96
c258.667 0 388 -127.333 388 -382v-666zM713.001 503l-214.999 -29.999c-66.667 -8.66699 -116.834 -24.834 -150.501 -48.501s-50.5 -65.167 -50.5 -124.5c0 -43.333 15.5 -78.833 46.5 -106.5s72.5 -41.5 124.5 -41.5c70.667 0 129.167 24.833 175.5 74.5
s69.5 112.167 69.5 187.5v89zM742.002 1203c-33.333 0 -62.166 11.001 -86.499 33.001s-36.5 50 -36.5 84c0 32.667 11.667 60 35 82s51.666 33 84.999 33c35.333 0 65.166 -11.167 89.499 -33.5s36.5 -49.5 36.5 -81.5c0 -32.667 -11.667 -60.334 -35 -83.001
s-52.666 -34 -87.999 -34zM326.002 1203c-34.667 0 -64.333 11.501 -89 34.501s-37 50.5 -37 82.5c0 32.667 11.833 60 35.5 82s52.5 33 86.5 33s63.5 -11.167 88.5 -33.5s37.5 -49.5 37.5 -81.5c0 -32.667 -12 -60.334 -36 -83.001s-52.667 -34 -86 -34z" />
    <glyph glyph-name="aring" unicode="&#xe5;" horiz-adv-x="1069" 
d="M937 0h-224.999v160h-4c-70.667 -122.667 -174.334 -184 -311.001 -184c-100.667 0 -179.5 27.333 -236.5 82s-85.5 127 -85.5 217c0 193.333 111.333 306 334 338l304 43c0 146 -69.333 219 -208 219c-122 0 -232 -42 -330 -126v203c108 64 232.667 96 374 96
c258.667 0 388 -127.333 388 -382v-666zM713.001 503l-214.999 -29.999c-66.667 -8.66699 -116.834 -24.834 -150.501 -48.501s-50.5 -65.167 -50.5 -124.5c0 -43.333 15.5 -78.833 46.5 -106.5s72.5 -41.5 124.5 -41.5c70.667 0 129.167 24.833 175.5 74.5
s69.5 112.167 69.5 187.5v89zM541.002 1180c-62.667 0 -114.5 18 -155.5 54s-61.5 83.333 -61.5 142c0 65.333 21 117.333 63 156s95.667 58 161 58c64 0 116.5 -19.5 157.5 -58.5s61.5 -88.833 61.5 -149.5c0 -58 -21.833 -106.167 -65.5 -144.5
s-97.167 -57.5 -160.5 -57.5zM541.002 1490c-30 0 -54.833 -10 -74.5 -30s-29.5 -44.667 -29.5 -74c0 -69.333 34.667 -104 104 -104c32 0 58.5 9.83301 79.5 29.5s31.5 44.5 31.5 74.5s-10.5 54.833 -31.5 74.5s-47.5 29.5 -79.5 29.5z" />
    <glyph glyph-name="ae" unicode="&#xe6;" horiz-adv-x="1700" 
d="M1630 449l-699 0.000976562c2 -94.667 30.333 -167.834 85 -219.501s129.667 -77.5 225 -77.5c114 0 217.333 33 310 99v-186c-90 -59.333 -212.333 -89 -367 -89c-183.333 0 -313.333 68.667 -390 206h-4c-93.333 -137.333 -217.333 -206 -372 -206
c-106.667 0 -190.5 27.5 -251.5 82.5s-91.5 128.5 -91.5 220.5c0 204 126.333 314.333 379 331l259 16c0 166.667 -67 250 -201 250c-118.667 0 -230.667 -38.333 -336 -115v196c101.333 60.667 220.333 91 357 91c160 0 263.667 -56.667 311 -170h4
c76 113.333 192.333 170 349 170c137.333 0 243.833 -45.167 319.5 -135.5s113.5 -215.833 113.5 -376.5v-87zM1406 613.001c-1.33301 84.667 -21 149.833 -59 195.5s-91.333 68.5 -160 68.5c-65.333 0 -121.5 -24 -168.5 -72s-75.833 -112 -86.5 -192h474zM713 412
l0.000976562 55l-177 -11c-80.667 -4.66699 -140.834 -19 -180.501 -43s-59.5 -63.667 -59.5 -119c0 -42.667 15.5 -77 46.5 -103s72.833 -39 125.5 -39c68.667 0 126.667 24.667 174 74s71 111.333 71 186z" />
    <glyph glyph-name="ccedilla" unicode="&#xe7;" horiz-adv-x="963" 
d="M884 47c-82 -47.333 -178.999 -71.001 -290.999 -71.001c-152 0 -274.667 47.5 -368 142.5s-140 218.167 -140 369.5c0 168.667 50.167 304.167 150.5 406.5s234.5 153.5 402.5 153.5c93.333 0 175.666 -16.333 246.999 -49v-216c-71.333 53.333 -147.333 80 -228 80
c-98 0 -178.333 -33.167 -241 -99.5s-94 -153.166 -94 -260.499c0 -106 29.5 -189.667 88.5 -251s138.167 -92 237.5 -92c83.333 0 162 29.667 236 89v-202zM801.001 -248.001c0 -129.333 -96 -194 -288 -194c-31.333 0 -58.333 1 -81 3v111c29.333 -4 53 -6 71 -6
c88.667 0 133 27.333 133 82c0 49.333 -40.333 74 -121 74c-6.66699 0 -19.667 -1.33301 -39 -4v182h136v-94c58 0 104 -13.5 138 -40.5s51 -64.833 51 -113.5z" />
    <glyph glyph-name="egrave" unicode="&#xe8;" horiz-adv-x="1088" 
d="M1018 449l-698 0.000976562c2.66699 -94.667 31.834 -167.667 87.501 -219s132.167 -77 229.5 -77c109.333 0 209.666 32.667 300.999 98v-187c-93.333 -58.667 -216.666 -88 -369.999 -88c-150.667 0 -268.834 46.5 -354.501 139.5s-128.5 223.833 -128.5 392.5
c0 159.333 47.167 289.166 141.5 389.499s211.5 150.5 351.5 150.5s248.333 -45 325 -135s115 -215 115 -375v-89zM794 613.001c-0.666992 83.333 -20.333 148.168 -59 194.501s-92 69.5 -160 69.5c-66.667 0 -123.167 -24.333 -169.5 -73s-74.833 -112.334 -85.5 -191.001
h474zM756.001 1204h-173l-262 328h214z" />
    <glyph glyph-name="eacute" unicode="&#xe9;" horiz-adv-x="1088" 
d="M1018 449l-698 0.000976562c2.66699 -94.667 31.834 -167.667 87.501 -219s132.167 -77 229.5 -77c109.333 0 209.666 32.667 300.999 98v-187c-93.333 -58.667 -216.666 -88 -369.999 -88c-150.667 0 -268.834 46.5 -354.501 139.5s-128.5 223.833 -128.5 392.5
c0 159.333 47.167 289.166 141.5 389.499s211.5 150.5 351.5 150.5s248.333 -45 325 -135s115 -215 115 -375v-89zM794 613.001c-0.666992 83.333 -20.333 148.168 -59 194.501s-92 69.5 -160 69.5c-66.667 0 -123.167 -24.333 -169.5 -73s-74.833 -112.334 -85.5 -191.001
h474zM863.001 1546l-286 -328h-172l242 328h216z" />
    <glyph glyph-name="ecircumflex" unicode="&#xea;" horiz-adv-x="1088" 
d="M1018 449l-698 0.000976562c2.66699 -94.667 31.834 -167.667 87.501 -219s132.167 -77 229.5 -77c109.333 0 209.666 32.667 300.999 98v-187c-93.333 -58.667 -216.666 -88 -369.999 -88c-150.667 0 -268.834 46.5 -354.501 139.5s-128.5 223.833 -128.5 392.5
c0 159.333 47.167 289.166 141.5 389.499s211.5 150.5 351.5 150.5s248.333 -45 325 -135s115 -215 115 -375v-89zM794 613.001c-0.666992 83.333 -20.333 148.168 -59 194.501s-92 69.5 -160 69.5c-66.667 0 -123.167 -24.333 -169.5 -73s-74.833 -112.334 -85.5 -191.001
h474zM888.001 1204h-160l-161 211l-157 -211h-155l224 328h184z" />
    <glyph glyph-name="edieresis" unicode="&#xeb;" horiz-adv-x="1088" 
d="M1018 449l-698 0.000976562c2.66699 -94.667 31.834 -167.667 87.501 -219s132.167 -77 229.5 -77c109.333 0 209.666 32.667 300.999 98v-187c-93.333 -58.667 -216.666 -88 -369.999 -88c-150.667 0 -268.834 46.5 -354.501 139.5s-128.5 223.833 -128.5 392.5
c0 159.333 47.167 289.166 141.5 389.499s211.5 150.5 351.5 150.5s248.333 -45 325 -135s115 -215 115 -375v-89zM794 613.001c-0.666992 83.333 -20.333 148.168 -59 194.501s-92 69.5 -160 69.5c-66.667 0 -123.167 -24.333 -169.5 -73s-74.833 -112.334 -85.5 -191.001
h474zM773.001 1203c-33.333 0 -62.166 11.001 -86.499 33.001s-36.5 50 -36.5 84c0 32.667 11.667 60 35 82s51.666 33 84.999 33c35.333 0 65.166 -11.167 89.499 -33.5s36.5 -49.5 36.5 -81.5c0 -32.667 -11.667 -60.334 -35 -83.001s-52.666 -34 -87.999 -34z
M357.001 1203c-34.667 0 -64.333 11.501 -89 34.501s-37 50.5 -37 82.5c0 32.667 11.833 60 35.5 82s52.5 33 86.5 33s63.5 -11.167 88.5 -33.5s37.5 -49.5 37.5 -81.5c0 -32.667 -12 -60.334 -36 -83.001s-52.667 -34 -86 -34z" />
    <glyph glyph-name="igrave" unicode="&#xec;" horiz-adv-x="535" 
d="M384 0h-233v1024h233v-1024zM435 1204h-173l-262 328h214z" />
    <glyph glyph-name="iacute" unicode="&#xed;" horiz-adv-x="535" 
d="M384 0h-233v1024h233v-1024zM551 1546l-286 -328h-172l242 328h216z" />
    <glyph glyph-name="icircumflex" unicode="&#xee;" horiz-adv-x="535" 
d="M384 0h-233v1024h233v-1024zM582 1204h-160l-161 211l-157 -211h-155l224 328h184z" />
    <glyph glyph-name="idieresis" unicode="&#xef;" horiz-adv-x="535" 
d="M384 0h-233v1024h233v-1024zM474 1203c-33.333 0 -62.166 11.001 -86.499 33.001s-36.5 50 -36.5 84c0 32.667 11.667 60 35 82s51.666 33 84.999 33c35.333 0 65.166 -11.167 89.499 -33.5s36.5 -49.5 36.5 -81.5c0 -32.667 -11.667 -60.334 -35 -83.001
s-52.666 -34 -87.999 -34zM58 1203c-34.667 0 -64.333 11.501 -89 34.501s-37 50.5 -37 82.5c0 32.667 11.833 60 35.5 82s52.5 33 86.5 33s63.5 -11.167 88.5 -33.5s37.5 -49.5 37.5 -81.5c0 -32.667 -12 -60.334 -36 -83.001s-52.667 -34 -86 -34z" />
    <glyph glyph-name="eth" unicode="&#xf0;" horiz-adv-x="1176" 
d="M772 966l4.00098 3.00293c-60 102.667 -125.667 187 -197 253l-295 -148l-65 118l257 123c-79.333 70 -168 137 -266 201h280c44.667 -30 95.667 -69.667 153 -119l282 139l65 -113l-242 -119c228 -204.667 342 -458.667 342 -762
c0 -164.667 -45.333 -299.834 -136 -405.501s-214 -158.5 -370 -158.5c-156.667 0 -279 47.167 -367 141.5s-132 223.166 -132 386.499c0 159.333 43.167 288.666 129.5 387.999s202.833 149 349.5 149c81.333 0 150.666 -25.667 207.999 -77zM595.001 863.003
c-84.667 0 -151.333 -31.667 -200 -95s-73 -149.666 -73 -258.999c0 -107.333 23.667 -192.333 71 -255s113.333 -94 198 -94c80.667 0 144.5 32.167 191.5 96.5s70.5 150.166 70.5 257.499c0 232.667 -86 349 -258 349z" />
    <glyph glyph-name="ntilde" unicode="&#xf1;" horiz-adv-x="1195" 
d="M1063 0h-232.001v577c0 191.333 -67.667 287 -203 287c-70.667 0 -129 -26.5 -175 -79.5s-69 -119.833 -69 -200.5v-584h-233v1024h233v-170h4c76.667 129.333 187.334 194 332.001 194c111.333 0 196.333 -36.167 255 -108.5s88 -176.833 88 -313.5v-626zM940.999 1475
c0 -77.333 -17.166 -140.5 -51.499 -189.5s-80.833 -73.5 -139.5 -73.5c-48 0 -103 16 -165 48c-52 30 -92.333 45 -121 45c-56 0 -84 -37 -84 -111h-115c0 79.333 17 142.833 51 190.5s81.667 71.5 143 71.5c45.333 0 97.666 -17 156.999 -51
c48 -29.333 89.667 -44 125 -44c54 0 81 38 81 114h119z" />
    <glyph glyph-name="ograve" unicode="&#xf2;" horiz-adv-x="1223" 
d="M605 -24c-158 0 -284.167 47.832 -378.5 143.499s-141.5 222.5 -141.5 380.5c0 172 49.167 306.333 147.5 403s230.833 145 397.5 145c160 0 284.667 -47 374 -141s134 -224.333 134 -391c0 -163.333 -48.167 -294.166 -144.5 -392.499s-225.833 -147.5 -388.5 -147.5z
M616 862.999c-90.667 0 -162.332 -31.668 -214.999 -95.001s-79 -150.666 -79 -261.999c0 -107.333 26.667 -191.833 80 -253.5s124.666 -92.5 213.999 -92.5c91.333 0 161.5 30.333 210.5 91s73.5 147 73.5 259c0 112.667 -24.5 199.667 -73.5 261s-119.167 92 -210.5 92z
M794.002 1204h-173l-262 328h214z" />
    <glyph glyph-name="oacute" unicode="&#xf3;" horiz-adv-x="1223" 
d="M605 -24c-158 0 -284.167 47.832 -378.5 143.499s-141.5 222.5 -141.5 380.5c0 172 49.167 306.333 147.5 403s230.833 145 397.5 145c160 0 284.667 -47 374 -141s134 -224.333 134 -391c0 -163.333 -48.167 -294.166 -144.5 -392.499s-225.833 -147.5 -388.5 -147.5z
M616 862.999c-90.667 0 -162.332 -31.668 -214.999 -95.001s-79 -150.666 -79 -261.999c0 -107.333 26.667 -191.833 80 -253.5s124.666 -92.5 213.999 -92.5c91.333 0 161.5 30.333 210.5 91s73.5 147 73.5 259c0 112.667 -24.5 199.667 -73.5 261s-119.167 92 -210.5 92z
M912.002 1546l-286 -328h-172l242 328h216z" />
    <glyph glyph-name="ocircumflex" unicode="&#xf4;" horiz-adv-x="1223" 
d="M605 -24c-158 0 -284.167 47.832 -378.5 143.499s-141.5 222.5 -141.5 380.5c0 172 49.167 306.333 147.5 403s230.833 145 397.5 145c160 0 284.667 -47 374 -141s134 -224.333 134 -391c0 -163.333 -48.167 -294.166 -144.5 -392.499s-225.833 -147.5 -388.5 -147.5z
M616 862.999c-90.667 0 -162.332 -31.668 -214.999 -95.001s-79 -150.666 -79 -261.999c0 -107.333 26.667 -191.833 80 -253.5s124.666 -92.5 213.999 -92.5c91.333 0 161.5 30.333 210.5 91s73.5 147 73.5 259c0 112.667 -24.5 199.667 -73.5 261s-119.167 92 -210.5 92z
M931.002 1204h-160l-161 211l-157 -211h-155l224 328h184z" />
    <glyph glyph-name="otilde" unicode="&#xf5;" horiz-adv-x="1223" 
d="M605 -24c-158 0 -284.167 47.832 -378.5 143.499s-141.5 222.5 -141.5 380.5c0 172 49.167 306.333 147.5 403s230.833 145 397.5 145c160 0 284.667 -47 374 -141s134 -224.333 134 -391c0 -163.333 -48.167 -294.166 -144.5 -392.499s-225.833 -147.5 -388.5 -147.5z
M616 862.999c-90.667 0 -162.332 -31.668 -214.999 -95.001s-79 -150.666 -79 -261.999c0 -107.333 26.667 -191.833 80 -253.5s124.666 -92.5 213.999 -92.5c91.333 0 161.5 30.333 210.5 91s73.5 147 73.5 259c0 112.667 -24.5 199.667 -73.5 261s-119.167 92 -210.5 92z
M955.002 1475c0 -77.333 -17.166 -140.5 -51.499 -189.5s-80.833 -73.5 -139.5 -73.5c-48 0 -103 16 -165 48c-52 30 -92.333 45 -121 45c-56 0 -84 -37 -84 -111h-115c0 79.333 17 142.833 51 190.5s81.667 71.5 143 71.5c45.333 0 97.666 -17 156.999 -51
c48 -29.333 89.667 -44 125 -44c54 0 81 38 81 114h119z" />
    <glyph glyph-name="odieresis" unicode="&#xf6;" horiz-adv-x="1223" 
d="M605 -24c-158 0 -284.167 47.832 -378.5 143.499s-141.5 222.5 -141.5 380.5c0 172 49.167 306.333 147.5 403s230.833 145 397.5 145c160 0 284.667 -47 374 -141s134 -224.333 134 -391c0 -163.333 -48.167 -294.166 -144.5 -392.499s-225.833 -147.5 -388.5 -147.5z
M616 862.999c-90.667 0 -162.332 -31.668 -214.999 -95.001s-79 -150.666 -79 -261.999c0 -107.333 26.667 -191.833 80 -253.5s124.666 -92.5 213.999 -92.5c91.333 0 161.5 30.333 210.5 91s73.5 147 73.5 259c0 112.667 -24.5 199.667 -73.5 261s-119.167 92 -210.5 92z
M822.002 1203c-33.333 0 -62.166 11.001 -86.499 33.001s-36.5 50 -36.5 84c0 32.667 11.667 60 35 82s51.666 33 84.999 33c35.333 0 65.166 -11.167 89.499 -33.5s36.5 -49.5 36.5 -81.5c0 -32.667 -11.667 -60.334 -35 -83.001s-52.666 -34 -87.999 -34zM406.002 1203
c-34.667 0 -64.333 11.501 -89 34.501s-37 50.5 -37 82.5c0 32.667 11.833 60 35.5 82s52.5 33 86.5 33s63.5 -11.167 88.5 -33.5s37.5 -49.5 37.5 -81.5c0 -32.667 -12 -60.334 -36 -83.001s-52.667 -34 -86 -34z" />
    <glyph glyph-name="divide" unicode="&#xf7;" horiz-adv-x="1422" 
d="M723 858c-35.333 0 -65.167 11.5 -89.5 34.5s-36.5 51.167 -36.5 84.5c0 34.667 11.167 64.167 33.5 88.5s51.5 36.5 87.5 36.5c78.667 0 118 -41 118 -123c0 -35.333 -11.167 -64.333 -33.5 -87s-48.833 -34 -79.5 -34zM1190 509h-956v165h956v-165zM713.999 82
c-34 0 -62.834 11.5 -86.501 34.5s-35.5 50.833 -35.5 83.5c0 34 11.5 63.5 34.5 88.5s52.167 37.5 87.5 37.5c78 0 117 -41.333 117 -124c0 -34 -11.167 -62.5 -33.5 -85.5s-50.166 -34.5 -83.499 -34.5z" />
    <glyph glyph-name="oslash" unicode="&#xf8;" horiz-adv-x="1223" 
d="M1188 1030l-155 -164.001c70 -91.333 105 -206 105 -344c0 -168 -48.5 -301 -145.5 -399s-226.167 -147 -387.5 -147c-129.333 0 -236.666 31.667 -321.999 95l-140 -151l-99 90l144 155c-68.667 91.333 -103 205 -103 341c0 170.667 49 303.834 147 399.501
s229.667 143.5 395 143.5c123.333 0 226.666 -30.333 309.999 -91l151 163zM798 814.999c-44.667 39.333 -105 59 -181 59c-94 0 -168.167 -32.333 -222.5 -97s-81.5 -154 -81.5 -268c0 -70 11.667 -129.333 35 -178zM877 700.999l-456.002 -488
c50.667 -41.333 115.334 -62 194.001 -62c96.667 0 170.334 31.5 221.001 94.5s76 151.833 76 266.5c0 73.333 -11.667 136.333 -35 189z" />
    <glyph glyph-name="ugrave" unicode="&#xf9;" horiz-adv-x="1195" 
d="M1044 0h-232v162h-4c-67.333 -124 -172 -186 -314 -186c-242 0 -363 145.333 -363 436v612h232v-588c0 -184 71 -276 213 -276c68.667 0 125.167 25.333 169.5 76s66.5 117 66.5 199v589h232v-1024zM740 1204h-173l-262 328h214z" />
    <glyph glyph-name="uacute" unicode="&#xfa;" horiz-adv-x="1195" 
d="M1044 0h-232v162h-4c-67.333 -124 -172 -186 -314 -186c-242 0 -363 145.333 -363 436v612h232v-588c0 -184 71 -276 213 -276c68.667 0 125.167 25.333 169.5 76s66.5 117 66.5 199v589h232v-1024zM913 1546l-286 -328h-172l242 328h216z" />
    <glyph glyph-name="ucircumflex" unicode="&#xfb;" horiz-adv-x="1195" 
d="M1044 0h-232v162h-4c-67.333 -124 -172 -186 -314 -186c-242 0 -363 145.333 -363 436v612h232v-588c0 -184 71 -276 213 -276c68.667 0 125.167 25.333 169.5 76s66.5 117 66.5 199v589h232v-1024zM905 1204h-160l-161 211l-157 -211h-155l224 328h184z" />
    <glyph glyph-name="udieresis" unicode="&#xfc;" horiz-adv-x="1195" 
d="M1044 0h-232v162h-4c-67.333 -124 -172 -186 -314 -186c-242 0 -363 145.333 -363 436v612h232v-588c0 -184 71 -276 213 -276c68.667 0 125.167 25.333 169.5 76s66.5 117 66.5 199v589h232v-1024zM802 1203c-33.333 0 -62.166 11.001 -86.499 33.001s-36.5 50 -36.5 84
c0 32.667 11.667 60 35 82s51.666 33 84.999 33c35.333 0 65.166 -11.167 89.499 -33.5s36.5 -49.5 36.5 -81.5c0 -32.667 -11.667 -60.334 -35 -83.001s-52.666 -34 -87.999 -34zM386 1203c-34.667 0 -64.333 11.501 -89 34.501s-37 50.5 -37 82.5
c0 32.667 11.833 60 35.5 82s52.5 33 86.5 33s63.5 -11.167 88.5 -33.5s37.5 -49.5 37.5 -81.5c0 -32.667 -12 -60.334 -36 -83.001s-52.667 -34 -86 -34z" />
    <glyph glyph-name="yacute" unicode="&#xfd;" horiz-adv-x="1041" 
d="M1038 1024l-462 -1188c-96 -212 -230.667 -318 -404 -318c-48.667 0 -89.334 4.33301 -122.001 13v193c36.667 -12 70 -18 100 -18c86.667 0 151.334 42.667 194.001 128l69 168l-407 1022h257l244 -744c2.66699 -9.33301 8.66699 -34 18 -74h5
c3.33301 15.333 9.33301 39.333 18 72l256 746h234zM845 1546l-286 -328h-172l242 328h216z" />
    <glyph glyph-name="thorn" unicode="&#xfe;" horiz-adv-x="1234" 
d="M383 134v-605h-232v1987h232v-661h4c78 128.667 192.333 193 343 193c131.333 0 233.833 -45.833 307.5 -137.5s110.5 -214.5 110.5 -368.5c0 -171.333 -41.5 -308.5 -124.5 -411.5s-196.5 -154.5 -340.5 -154.5c-129.333 0 -229.333 52.667 -300 158zM381 551
l0.000976562 -116c0 -76.667 23.667 -141.667 71 -195s107.666 -80 180.999 -80c86.667 0 154.5 34 203.5 102s73.5 162.333 73.5 283c0 99.333 -23 177.166 -69 233.499s-108.333 84.5 -187 84.5c-82 0 -148 -29.667 -198 -89s-75 -133.666 -75 -222.999z" />
    <glyph glyph-name="ydieresis" unicode="&#xff;" horiz-adv-x="1041" 
d="M1038 1024l-462 -1188c-96 -212 -230.667 -318 -404 -318c-48.667 0 -89.334 4.33301 -122.001 13v193c36.667 -12 70 -18 100 -18c86.667 0 151.334 42.667 194.001 128l69 168l-407 1022h257l244 -744c2.66699 -9.33301 8.66699 -34 18 -74h5
c3.33301 15.333 9.33301 39.333 18 72l256 746h234zM735 1203c-33.333 0 -62.166 11.001 -86.499 33.001s-36.5 50 -36.5 84c0 32.667 11.667 60 35 82s51.666 33 84.999 33c35.333 0 65.166 -11.167 89.499 -33.5s36.5 -49.5 36.5 -81.5
c0 -32.667 -11.667 -60.334 -35 -83.001s-52.666 -34 -87.999 -34zM319 1203c-34.667 0 -64.333 11.501 -89 34.501s-37 50.5 -37 82.5c0 32.667 11.833 60 35.5 82s52.5 33 86.5 33s63.5 -11.167 88.5 -33.5s37.5 -49.5 37.5 -81.5c0 -32.667 -12 -60.334 -36 -83.001
s-52.667 -34 -86 -34z" />
    <glyph glyph-name="Amacron" unicode="&#x100;" horiz-adv-x="1375" 
d="M1355 0h-261l-129 365h-564l-124 -365h-260l537 1434h268zM902 559l-199 572c-6 18.667 -12.333 48.667 -19 90h-4c-6 -38 -12.667 -68 -20 -90l-197 -572h439zM957 1567h-543v137h543v-137z" />
    <glyph glyph-name="amacron" unicode="&#x101;" horiz-adv-x="1069" 
d="M937 0h-224.999v160h-4c-70.667 -122.667 -174.334 -184 -311.001 -184c-100.667 0 -179.5 27.333 -236.5 82s-85.5 127 -85.5 217c0 193.333 111.333 306 334 338l304 43c0 146 -69.333 219 -208 219c-122 0 -232 -42 -330 -126v203c108 64 232.667 96 374 96
c258.667 0 388 -127.333 388 -382v-666zM713.001 503l-214.999 -29.999c-66.667 -8.66699 -116.834 -24.834 -150.501 -48.501s-50.5 -65.167 -50.5 -124.5c0 -43.333 15.5 -78.833 46.5 -106.5s72.5 -41.5 124.5 -41.5c70.667 0 129.167 24.833 175.5 74.5
s69.5 112.167 69.5 187.5v89zM828.002 1204h-543v137h543v-137z" />
    <glyph glyph-name="Abreve" unicode="&#x102;" horiz-adv-x="1375" 
d="M1355 0h-261l-129 365h-564l-124 -365h-260l537 1434h268zM902 559l-199 572c-6 18.667 -12.333 48.667 -19 90h-4c-6 -38 -12.667 -68 -20 -90l-197 -572h439zM988 1843c-7.33301 -82.667 -39.834 -149.332 -97.501 -199.999s-127.5 -76 -209.5 -76
c-86.667 0 -157.167 25.167 -211.5 75.5s-83.5 117.166 -87.5 200.499h136c8 -97.333 63.333 -146 166 -146c43.333 0 80.333 13.167 111 39.5s49.334 61.833 56.001 106.5h137z" />
    <glyph glyph-name="abreve" unicode="&#x103;" horiz-adv-x="1069" 
d="M937 0h-224.999v160h-4c-70.667 -122.667 -174.334 -184 -311.001 -184c-100.667 0 -179.5 27.333 -236.5 82s-85.5 127 -85.5 217c0 193.333 111.333 306 334 338l304 43c0 146 -69.333 219 -208 219c-122 0 -232 -42 -330 -126v203c108 64 232.667 96 374 96
c258.667 0 388 -127.333 388 -382v-666zM713.001 503l-214.999 -29.999c-66.667 -8.66699 -116.834 -24.834 -150.501 -48.501s-50.5 -65.167 -50.5 -124.5c0 -43.333 15.5 -78.833 46.5 -106.5s72.5 -41.5 124.5 -41.5c70.667 0 129.167 24.833 175.5 74.5
s69.5 112.167 69.5 187.5v89zM851.002 1480c-7.33301 -82.667 -39.834 -149.332 -97.501 -199.999s-127.5 -76 -209.5 -76c-86.667 0 -157.167 25.167 -211.5 75.5s-83.5 117.166 -87.5 200.499h136c8 -97.333 63.333 -146 166 -146c43.333 0 80.333 13.167 111 39.5
s49.334 61.833 56.001 106.5h137z" />
    <glyph glyph-name="Aogonek" unicode="&#x104;" horiz-adv-x="1375" 
d="M1355 0h-261l-129 365h-564l-124 -365h-260l537 1434h268zM902 559l-199 572c-6 18.667 -12.333 48.667 -19 90h-4c-6 -38 -12.667 -68 -20 -90l-197 -572h439zM1227 0c-100.667 -91.333 -151 -163.332 -151 -215.999c0 -45.333 21.667 -68 65 -68
c24 0 46.667 4.33301 68 13v-121c-25.333 -10.667 -60.333 -16 -105 -16c-52 0 -93.833 14 -125.5 42s-47.5 66.667 -47.5 116c0 81.333 53.667 164.666 161 249.999h135z" />
    <glyph glyph-name="aogonek" unicode="&#x105;" horiz-adv-x="1069" 
d="M937 0h-224.999v160h-4c-70.667 -122.667 -174.334 -184 -311.001 -184c-100.667 0 -179.5 27.333 -236.5 82s-85.5 127 -85.5 217c0 193.333 111.333 306 334 338l304 43c0 146 -69.333 219 -208 219c-122 0 -232 -42 -330 -126v203c108 64 232.667 96 374 96
c258.667 0 388 -127.333 388 -382v-666zM713.001 503l-214.999 -29.999c-66.667 -8.66699 -116.834 -24.834 -150.501 -48.501s-50.5 -65.167 -50.5 -124.5c0 -43.333 15.5 -78.833 46.5 -106.5s72.5 -41.5 124.5 -41.5c70.667 0 129.167 24.833 175.5 74.5
s69.5 112.167 69.5 187.5v89zM845.002 0.000976562c-100.667 -91.333 -151 -163.332 -151 -215.999c0 -45.333 21.667 -68 65 -68c24 0 46.667 4.33301 68 13v-121c-25.333 -10.667 -60.333 -16 -105 -16c-52 0 -93.833 14 -125.5 42s-47.5 66.667 -47.5 116
c0 81.333 53.667 164.666 161 249.999h135z" />
    <glyph glyph-name="Cacute" unicode="&#x106;" horiz-adv-x="1272" 
d="M1177 60c-108 -56 -242.332 -83.998 -402.999 -83.998c-208 0 -374.667 65.667 -500 197s-188 303.666 -188 516.999c0 229.333 70.5 414.666 211.5 555.999s319.167 212 534.5 212c138.667 0 253.667 -19.667 345 -59v-236c-96.667 57.333 -203.334 86 -320.001 86
c-155.333 0 -281.166 -49.667 -377.499 -149s-144.5 -232 -144.5 -398c0 -158 45 -283.833 135 -377.5s208.333 -140.5 355 -140.5c135.333 0 252.666 32 351.999 96v-220zM1079 1908l-286 -328h-172l242 328h216z" />
    <glyph glyph-name="cacute" unicode="&#x107;" horiz-adv-x="963" 
d="M884 47c-82 -47.333 -178.999 -71.001 -290.999 -71.001c-152 0 -274.667 47.5 -368 142.5s-140 218.167 -140 369.5c0 168.667 50.167 304.167 150.5 406.5s234.5 153.5 402.5 153.5c93.333 0 175.666 -16.333 246.999 -49v-216c-71.333 53.333 -147.333 80 -228 80
c-98 0 -178.333 -33.167 -241 -99.5s-94 -153.166 -94 -260.499c0 -106 29.5 -189.667 88.5 -251s138.167 -92 237.5 -92c83.333 0 162 29.667 236 89v-202zM876.001 1546l-286 -328h-172l242 328h216z" />
    <glyph glyph-name="Ccircumflex" unicode="&#x108;" horiz-adv-x="1272" 
d="M1177 60c-108 -56 -242.332 -83.998 -402.999 -83.998c-208 0 -374.667 65.667 -500 197s-188 303.666 -188 516.999c0 229.333 70.5 414.666 211.5 555.999s319.167 212 534.5 212c138.667 0 253.667 -19.667 345 -59v-236c-96.667 57.333 -203.334 86 -320.001 86
c-155.333 0 -281.166 -49.667 -377.499 -149s-144.5 -232 -144.5 -398c0 -158 45 -283.833 135 -377.5s208.333 -140.5 355 -140.5c135.333 0 252.666 32 351.999 96v-220zM1097 1567h-160l-161 211l-157 -211h-155l224 328h184z" />
    <glyph glyph-name="ccircumflex" unicode="&#x109;" horiz-adv-x="963" 
d="M884 47c-82 -47.333 -178.999 -71.001 -290.999 -71.001c-152 0 -274.667 47.5 -368 142.5s-140 218.167 -140 369.5c0 168.667 50.167 304.167 150.5 406.5s234.5 153.5 402.5 153.5c93.333 0 175.666 -16.333 246.999 -49v-216c-71.333 53.333 -147.333 80 -228 80
c-98 0 -178.333 -33.167 -241 -99.5s-94 -153.166 -94 -260.499c0 -106 29.5 -189.667 88.5 -251s138.167 -92 237.5 -92c83.333 0 162 29.667 236 89v-202zM890.001 1204h-160l-161 211l-157 -211h-155l224 328h184z" />
    <glyph glyph-name="Cdotaccent" unicode="&#x10a;" horiz-adv-x="1272" 
d="M1177 60c-108 -56 -242.332 -83.998 -402.999 -83.998c-208 0 -374.667 65.667 -500 197s-188 303.666 -188 516.999c0 229.333 70.5 414.666 211.5 555.999s319.167 212 534.5 212c138.667 0 253.667 -19.667 345 -59v-236c-96.667 57.333 -203.334 86 -320.001 86
c-155.333 0 -281.166 -49.667 -377.499 -149s-144.5 -232 -144.5 -398c0 -158 45 -283.833 135 -377.5s208.333 -140.5 355 -140.5c135.333 0 252.666 32 351.999 96v-220zM790.001 1566c-33.333 0 -62.167 11.168 -86.5 33.501s-36.5 49.833 -36.5 82.5c0 32 12 59 36 81
s53 33 87 33s63 -10.833 87 -32.5s36 -48.834 36 -81.501c0 -32 -12 -59.333 -36 -82s-53 -34 -87 -34z" />
    <glyph glyph-name="cdotaccent" unicode="&#x10b;" horiz-adv-x="963" 
d="M884 47c-82 -47.333 -178.999 -71.001 -290.999 -71.001c-152 0 -274.667 47.5 -368 142.5s-140 218.167 -140 369.5c0 168.667 50.167 304.167 150.5 406.5s234.5 153.5 402.5 153.5c93.333 0 175.666 -16.333 246.999 -49v-216c-71.333 53.333 -147.333 80 -228 80
c-98 0 -178.333 -33.167 -241 -99.5s-94 -153.166 -94 -260.499c0 -106 29.5 -189.667 88.5 -251s138.167 -92 237.5 -92c83.333 0 162 29.667 236 89v-202zM600.001 1203c-33.333 0 -62.167 11.168 -86.5 33.501s-36.5 49.833 -36.5 82.5c0 32 12 59 36 81s53 33 87 33
s63 -10.833 87 -32.5s36 -48.834 36 -81.501c0 -32 -12 -59.333 -36 -82s-53 -34 -87 -34z" />
    <glyph glyph-name="Ccaron" unicode="&#x10c;" horiz-adv-x="1272" 
d="M1177 60c-108 -56 -242.332 -83.998 -402.999 -83.998c-208 0 -374.667 65.667 -500 197s-188 303.666 -188 516.999c0 229.333 70.5 414.666 211.5 555.999s319.167 212 534.5 212c138.667 0 253.667 -19.667 345 -59v-236c-96.667 57.333 -203.334 86 -320.001 86
c-155.333 0 -281.166 -49.667 -377.499 -149s-144.5 -232 -144.5 -398c0 -158 45 -283.833 135 -377.5s208.333 -140.5 355 -140.5c135.333 0 252.666 32 351.999 96v-220zM1102 1893l-224 -327h-185l-224 327h155l160 -210l161 210h157z" />
    <glyph glyph-name="ccaron" unicode="&#x10d;" horiz-adv-x="963" 
d="M884 47c-82 -47.333 -178.999 -71.001 -290.999 -71.001c-152 0 -274.667 47.5 -368 142.5s-140 218.167 -140 369.5c0 168.667 50.167 304.167 150.5 406.5s234.5 153.5 402.5 153.5c93.333 0 175.666 -16.333 246.999 -49v-216c-71.333 53.333 -147.333 80 -228 80
c-98 0 -178.333 -33.167 -241 -99.5s-94 -153.166 -94 -260.499c0 -106 29.5 -189.667 88.5 -251s138.167 -92 237.5 -92c83.333 0 162 29.667 236 89v-202zM898.001 1531l-224 -327h-185l-224 327h155l160 -210l161 210h157z" />
    <glyph glyph-name="Dcaron" unicode="&#x10e;" horiz-adv-x="1469" 
d="M177 0l0.000976562 1434h414c528.667 0 793 -233 793 -699c0 -221.333 -73.333 -399.166 -220 -533.499s-343.334 -201.5 -590.001 -201.5h-397zM414.001 1232v-1031h190c167.333 0 297.5 46 390.5 138s139.5 222 139.5 390c0 335.333 -173.667 503 -521 503h-199z
M1013 1893l-224 -327h-185l-224 327h155l160 -210l161 210h157z" />
    <glyph glyph-name="dcaron" unicode="&#x10f;" horiz-adv-x="1442" 
d="M1082 0h-232v174h-4c-74.667 -132 -189.667 -198 -345 -198c-126 0 -226.833 45.833 -302.5 137.5s-113.5 216.5 -113.5 374.5c0 169.333 41.833 305 125.5 407s195.167 153 334.5 153c138 0 238.333 -55.333 301 -166h4v634h232v-1516zM853 468v134
c0 72.667 -23.667 134.334 -71 185.001s-107.666 76 -180.999 76c-86.667 0 -154.834 -32.333 -204.501 -97s-74.5 -154.334 -74.5 -269.001c0 -104 23.833 -186.167 71.5 -246.5s111.834 -90.5 192.501 -90.5c79.333 0 143.666 29.167 192.999 87.5s74 131.833 74 220.5z
M1513 1516l-167 -302h-155l105 302h217z" />
    <glyph glyph-name="Dcroat" unicode="&#x110;" horiz-adv-x="1469" 
d="M177 0l0.000976562 616.001h-162v205h162v613h414c528.667 0 793 -233 793 -699c0 -222.667 -73.333 -400.834 -220 -534.501s-343.334 -200.5 -590.001 -200.5h-397zM414.001 1232v-411h307v-205h-307v-415h190c167.333 0 297.5 46 390.5 138s139.5 222.667 139.5 392
c0 334 -173.667 501 -521 501h-199z" />
    <glyph glyph-name="dcroat" unicode="&#x111;" horiz-adv-x="1246" 
d="M1082 0h-232.001v159h-4c-71.333 -122 -181.333 -183 -330 -183c-130.667 0 -235.167 45.833 -313.5 137.5s-117.5 216.5 -117.5 374.5c0 169.333 42.5 305 127.5 407s198.5 153 340.5 153c132.667 0 230.334 -51.667 293.001 -155h4v295h-331v166h331v162h232v-162h139
v-166h-139v-1188zM852.999 472l-0.00195312 123.999c0 74.667 -24 137.834 -72 189.501s-108.667 77.5 -182 77.5c-86 0 -153.667 -32.5 -203 -97.5s-74 -154.833 -74 -269.5c0 -104 23.833 -186 71.5 -246s111.834 -90 192.501 -90c78.667 0 142.834 29.5 192.501 88.5
s74.5 133.5 74.5 223.5z" />
    <glyph glyph-name="Emacron" unicode="&#x112;" horiz-adv-x="1060" 
d="M982 0h-805v1434h773v-202h-535v-406h493v-201h-493v-424h567v-201zM841 1566h-543v137h543v-137z" />
    <glyph glyph-name="emacron" unicode="&#x113;" horiz-adv-x="1088" 
d="M1018 449l-698 0.000976562c2.66699 -94.667 31.834 -167.667 87.501 -219s132.167 -77 229.5 -77c109.333 0 209.666 32.667 300.999 98v-187c-93.333 -58.667 -216.666 -88 -369.999 -88c-150.667 0 -268.834 46.5 -354.501 139.5s-128.5 223.833 -128.5 392.5
c0 159.333 47.167 289.166 141.5 389.499s211.5 150.5 351.5 150.5s248.333 -45 325 -135s115 -215 115 -375v-89zM794 613.001c-0.666992 83.333 -20.333 148.168 -59 194.501s-92 69.5 -160 69.5c-66.667 0 -123.167 -24.333 -169.5 -73s-74.833 -112.334 -85.5 -191.001
h474zM841.001 1204h-543v137h543v-137z" />
    <glyph glyph-name="Ebreve" unicode="&#x114;" horiz-adv-x="1060" 
d="M982 0h-805v1434h773v-202h-535v-406h493v-201h-493v-424h567v-201zM872 1843c-7.33301 -82.667 -39.834 -149.332 -97.501 -199.999s-127.5 -76 -209.5 -76c-86.667 0 -157.167 25.167 -211.5 75.5s-83.5 117.166 -87.5 200.499h136c8 -97.333 63.333 -146 166 -146
c43.333 0 80.333 13.167 111 39.5s49.334 61.833 56.001 106.5h137z" />
    <glyph glyph-name="ebreve" unicode="&#x115;" horiz-adv-x="1088" 
d="M1018 449l-698 0.000976562c2.66699 -94.667 31.834 -167.667 87.501 -219s132.167 -77 229.5 -77c109.333 0 209.666 32.667 300.999 98v-187c-93.333 -58.667 -216.666 -88 -369.999 -88c-150.667 0 -268.834 46.5 -354.501 139.5s-128.5 223.833 -128.5 392.5
c0 159.333 47.167 289.166 141.5 389.499s211.5 150.5 351.5 150.5s248.333 -45 325 -135s115 -215 115 -375v-89zM794 613.001c-0.666992 83.333 -20.333 148.168 -59 194.501s-92 69.5 -160 69.5c-66.667 0 -123.167 -24.333 -169.5 -73s-74.833 -112.334 -85.5 -191.001
h474zM867.001 1480c-7.33301 -82.667 -39.834 -149.332 -97.501 -199.999s-127.5 -76 -209.5 -76c-86.667 0 -157.167 25.167 -211.5 75.5s-83.5 117.166 -87.5 200.499h136c8 -97.333 63.333 -146 166 -146c43.333 0 80.333 13.167 111 39.5s49.334 61.833 56.001 106.5
h137z" />
    <glyph glyph-name="Edotaccent" unicode="&#x116;" horiz-adv-x="1060" 
d="M982 0h-805v1434h773v-202h-535v-406h493v-201h-493v-424h567v-201zM566 1566c-33.333 0 -62.167 11.168 -86.5 33.501s-36.5 49.833 -36.5 82.5c0 32 12 59 36 81s53 33 87 33s63 -10.833 87 -32.5s36 -48.834 36 -81.501c0 -32 -12 -59.333 -36 -82s-53 -34 -87 -34z
" />
    <glyph glyph-name="edotaccent" unicode="&#x117;" horiz-adv-x="1088" 
d="M1018 449l-698 0.000976562c2.66699 -94.667 31.834 -167.667 87.501 -219s132.167 -77 229.5 -77c109.333 0 209.666 32.667 300.999 98v-187c-93.333 -58.667 -216.666 -88 -369.999 -88c-150.667 0 -268.834 46.5 -354.501 139.5s-128.5 223.833 -128.5 392.5
c0 159.333 47.167 289.166 141.5 389.499s211.5 150.5 351.5 150.5s248.333 -45 325 -135s115 -215 115 -375v-89zM794 613.001c-0.666992 83.333 -20.333 148.168 -59 194.501s-92 69.5 -160 69.5c-66.667 0 -123.167 -24.333 -169.5 -73s-74.833 -112.334 -85.5 -191.001
h474zM584.001 1203c-33.333 0 -62.167 11.168 -86.5 33.501s-36.5 49.833 -36.5 82.5c0 32 12 59 36 81s53 33 87 33s63 -10.833 87 -32.5s36 -48.834 36 -81.501c0 -32 -12 -59.333 -36 -82s-53 -34 -87 -34z" />
    <glyph glyph-name="Eogonek" unicode="&#x118;" horiz-adv-x="1060" 
d="M982 0h-805v1434h773v-202h-535v-406h493v-201h-493v-424h567v-201zM892 0c-100.667 -91.333 -151 -163.332 -151 -215.999c0 -45.333 21.667 -68 65 -68c24 0 46.667 4.33301 68 13v-121c-25.333 -10.667 -60.333 -16 -105 -16c-52 0 -93.833 14 -125.5 42
s-47.5 66.667 -47.5 116c0 81.333 53.667 164.666 161 249.999h135z" />
    <glyph glyph-name="eogonek" unicode="&#x119;" horiz-adv-x="1088" 
d="M1018 449l-698 0.000976562c2.66699 -94.667 31.834 -167.667 87.501 -219s132.167 -77 229.5 -77c109.333 0 209.666 32.667 300.999 98v-187c-93.333 -58.667 -216.666 -88 -369.999 -88c-150.667 0 -268.834 46.5 -354.501 139.5s-128.5 223.833 -128.5 392.5
c0 159.333 47.167 289.166 141.5 389.499s211.5 150.5 351.5 150.5s248.333 -45 325 -135s115 -215 115 -375v-89zM794 613.001c-0.666992 83.333 -20.333 148.168 -59 194.501s-92 69.5 -160 69.5c-66.667 0 -123.167 -24.333 -169.5 -73s-74.833 -112.334 -85.5 -191.001
h474zM782.001 0.00292969c-100.667 -91.333 -151 -163.332 -151 -215.999c0 -45.333 21.667 -68 65 -68c24 0 46.667 4.33301 68 13v-121c-25.333 -10.667 -60.333 -16 -105 -16c-52 0 -93.833 14 -125.5 42s-47.5 66.667 -47.5 116c0 81.333 53.667 164.666 161 249.999
h135z" />
    <glyph glyph-name="Ecaron" unicode="&#x11a;" horiz-adv-x="1060" 
d="M982 0h-805v1434h773v-202h-535v-406h493v-201h-493v-424h567v-201zM891 1893l-224 -327h-185l-224 327h155l160 -210l161 210h157z" />
    <glyph glyph-name="ecaron" unicode="&#x11b;" horiz-adv-x="1088" 
d="M1018 449l-698 0.000976562c2.66699 -94.667 31.834 -167.667 87.501 -219s132.167 -77 229.5 -77c109.333 0 209.666 32.667 300.999 98v-187c-93.333 -58.667 -216.666 -88 -369.999 -88c-150.667 0 -268.834 46.5 -354.501 139.5s-128.5 223.833 -128.5 392.5
c0 159.333 47.167 289.166 141.5 389.499s211.5 150.5 351.5 150.5s248.333 -45 325 -135s115 -215 115 -375v-89zM794 613.001c-0.666992 83.333 -20.333 148.168 -59 194.501s-92 69.5 -160 69.5c-66.667 0 -123.167 -24.333 -169.5 -73s-74.833 -112.334 -85.5 -191.001
h474zM884.001 1531l-224 -327h-185l-224 327h155l160 -210l161 210h157z" />
    <glyph glyph-name="Gcircumflex" unicode="&#x11c;" horiz-adv-x="1428" 
d="M1296 98c-149.333 -81.333 -315.666 -122 -498.999 -122c-212 0 -383.667 66 -515 198s-197 306.667 -197 524c0 222 71.833 404.167 215.5 546.5s326.167 213.5 547.5 213.5c159.333 0 293.333 -23.333 402 -70v-245c-110 73.333 -241 110 -393 110
c-152.667 0 -277.834 -50.333 -375.501 -151s-146.5 -231 -146.5 -391c0 -164.667 42 -294.167 126 -388.5s198 -141.5 342 -141.5c98.667 0 184 19 256 57v341h-302v200h539v-681zM1121 1567h-160l-161 211l-157 -211h-155l224 328h184z" />
    <glyph glyph-name="gcircumflex" unicode="&#x11d;" horiz-adv-x="1234" 
d="M1083 82c0 -376 -189 -564 -567 -564c-133.333 0 -249.666 22.333 -348.999 67v212c112 -64 218.333 -96 319 -96c243.333 0 365 119.667 365 359v112h-4c-76.667 -130.667 -192 -196 -346 -196c-124.667 0 -225.167 45.5 -301.5 136.5s-114.5 213.167 -114.5 366.5
c0 174 41 312.333 123 415s194.667 154 338 154c135.333 0 235.666 -55.333 300.999 -166h4v142h232v-942zM853 469l-0.000976562 133c0 72 -23.833 133.5 -71.5 184.5s-107.167 76.5 -178.5 76.5c-88 0 -156.833 -32.5 -206.5 -97.5s-74.5 -155.833 -74.5 -272.5
c0 -100.667 23.833 -181.167 71.5 -241.5s110.834 -90.5 189.501 -90.5c80 0 145 28.833 195 86.5s75 131.5 75 221.5zM921.999 1204h-160l-161 211l-157 -211h-155l224 328h184z" />
    <glyph glyph-name="Gbreve" unicode="&#x11e;" horiz-adv-x="1428" 
d="M1296 98c-149.333 -81.333 -315.666 -122 -498.999 -122c-212 0 -383.667 66 -515 198s-197 306.667 -197 524c0 222 71.833 404.167 215.5 546.5s326.167 213.5 547.5 213.5c159.333 0 293.333 -23.333 402 -70v-245c-110 73.333 -241 110 -393 110
c-152.667 0 -277.834 -50.333 -375.501 -151s-146.5 -231 -146.5 -391c0 -164.667 42 -294.167 126 -388.5s198 -141.5 342 -141.5c98.667 0 184 19 256 57v341h-302v200h539v-681zM1102 1842c-7.33301 -82.667 -39.834 -149.332 -97.501 -199.999s-127.5 -76 -209.5 -76
c-86.667 0 -157.167 25.167 -211.5 75.5s-83.5 117.166 -87.5 200.499h136c8 -97.333 63.333 -146 166 -146c43.333 0 80.333 13.167 111 39.5s49.334 61.833 56.001 106.5h137z" />
    <glyph glyph-name="gbreve" unicode="&#x11f;" horiz-adv-x="1234" 
d="M1083 82c0 -376 -189 -564 -567 -564c-133.333 0 -249.666 22.333 -348.999 67v212c112 -64 218.333 -96 319 -96c243.333 0 365 119.667 365 359v112h-4c-76.667 -130.667 -192 -196 -346 -196c-124.667 0 -225.167 45.5 -301.5 136.5s-114.5 213.167 -114.5 366.5
c0 174 41 312.333 123 415s194.667 154 338 154c135.333 0 235.666 -55.333 300.999 -166h4v142h232v-942zM853 469l-0.000976562 133c0 72 -23.833 133.5 -71.5 184.5s-107.167 76.5 -178.5 76.5c-88 0 -156.833 -32.5 -206.5 -97.5s-74.5 -155.833 -74.5 -272.5
c0 -100.667 23.833 -181.167 71.5 -241.5s110.834 -90.5 189.501 -90.5c80 0 145 28.833 195 86.5s75 131.5 75 221.5zM913.999 1480c-7.33301 -82.667 -39.834 -149.332 -97.501 -199.999s-127.5 -76 -209.5 -76c-86.667 0 -157.167 25.167 -211.5 75.5
s-83.5 117.166 -87.5 200.499h136c8 -97.333 63.333 -146 166 -146c43.333 0 80.333 13.167 111 39.5s49.334 61.833 56.001 106.5h137z" />
    <glyph glyph-name="Gdotaccent" unicode="&#x120;" horiz-adv-x="1428" 
d="M1296 98c-149.333 -81.333 -315.666 -122 -498.999 -122c-212 0 -383.667 66 -515 198s-197 306.667 -197 524c0 222 71.833 404.167 215.5 546.5s326.167 213.5 547.5 213.5c159.333 0 293.333 -23.333 402 -70v-245c-110 73.333 -241 110 -393 110
c-152.667 0 -277.834 -50.333 -375.501 -151s-146.5 -231 -146.5 -391c0 -164.667 42 -294.167 126 -388.5s198 -141.5 342 -141.5c98.667 0 184 19 256 57v341h-302v200h539v-681zM806 1566c-33.333 0 -62.167 11.168 -86.5 33.501s-36.5 49.833 -36.5 82.5
c0 32 12 59 36 81s53 33 87 33s63 -10.833 87 -32.5s36 -48.834 36 -81.501c0 -32 -12 -59.333 -36 -82s-53 -34 -87 -34z" />
    <glyph glyph-name="gdotaccent" unicode="&#x121;" horiz-adv-x="1234" 
d="M1083 82c0 -376 -189 -564 -567 -564c-133.333 0 -249.666 22.333 -348.999 67v212c112 -64 218.333 -96 319 -96c243.333 0 365 119.667 365 359v112h-4c-76.667 -130.667 -192 -196 -346 -196c-124.667 0 -225.167 45.5 -301.5 136.5s-114.5 213.167 -114.5 366.5
c0 174 41 312.333 123 415s194.667 154 338 154c135.333 0 235.666 -55.333 300.999 -166h4v142h232v-942zM853 469l-0.000976562 133c0 72 -23.833 133.5 -71.5 184.5s-107.167 76.5 -178.5 76.5c-88 0 -156.833 -32.5 -206.5 -97.5s-74.5 -155.833 -74.5 -272.5
c0 -100.667 23.833 -181.167 71.5 -241.5s110.834 -90.5 189.501 -90.5c80 0 145 28.833 195 86.5s75 131.5 75 221.5zM599.999 1203c-33.333 0 -62.167 11.168 -86.5 33.501s-36.5 49.833 -36.5 82.5c0 32 12 59 36 81s53 33 87 33s63 -10.833 87 -32.5
s36 -48.834 36 -81.501c0 -32 -12 -59.333 -36 -82s-53 -34 -87 -34z" />
    <glyph glyph-name="Gcommaaccent" unicode="&#x122;" horiz-adv-x="1428" 
d="M1296 98c-149.333 -81.333 -315.666 -122 -498.999 -122c-212 0 -383.667 66 -515 198s-197 306.667 -197 524c0 222 71.833 404.167 215.5 546.5s326.167 213.5 547.5 213.5c159.333 0 293.333 -23.333 402 -70v-245c-110 73.333 -241 110 -393 110
c-152.667 0 -277.834 -50.333 -375.501 -151s-146.5 -231 -146.5 -391c0 -164.667 42 -294.167 126 -388.5s198 -141.5 342 -141.5c98.667 0 184 19 256 57v341h-302v200h539v-681zM924 -118l-167 -302h-155l105 302h217z" />
    <glyph glyph-name="gcommaaccent" unicode="&#x123;" horiz-adv-x="1234" 
d="M1083 82c0 -376 -189 -564 -567 -564c-133.333 0 -249.666 22.333 -348.999 67v212c112 -64 218.333 -96 319 -96c243.333 0 365 119.667 365 359v112h-4c-76.667 -130.667 -192 -196 -346 -196c-124.667 0 -225.167 45.5 -301.5 136.5s-114.5 213.167 -114.5 366.5
c0 174 41 312.333 123 415s194.667 154 338 154c135.333 0 235.666 -55.333 300.999 -166h4v142h232v-942zM853 469l-0.000976562 133c0 72 -23.833 133.5 -71.5 184.5s-107.167 76.5 -178.5 76.5c-88 0 -156.833 -32.5 -206.5 -97.5s-74.5 -155.833 -74.5 -272.5
c0 -100.667 23.833 -181.167 71.5 -241.5s110.834 -90.5 189.501 -90.5c80 0 145 28.833 195 86.5s75 131.5 75 221.5zM464.999 1203l167 302h155l-105 -302h-217z" />
    <glyph glyph-name="Hcircumflex" unicode="&#x124;" horiz-adv-x="1506" 
d="M1329 0h-239v622h-675v-622h-238v1434h238v-603h675v603h239v-1434zM1067 1566h-160l-161 211l-157 -211h-155l224 328h184z" />
    <glyph glyph-name="hcircumflex" unicode="&#x125;" horiz-adv-x="1192" 
d="M1061 0h-232v560c0 202.667 -67.667 304 -203 304c-68 0 -125.333 -29.333 -172 -88s-70 -133.667 -70 -225v-551h-233v1516h233v-662h4c77.333 129.333 188 194 332 194c227.333 0 341 -139 341 -417v-631zM956 1611h-160l-161 211l-157 -211h-155l224 328h184z" />
    <glyph glyph-name="Hbar" unicode="&#x126;" horiz-adv-x="1506" 
d="M1328 0h-238v622h-676v-622h-237v1023h-162v176h162v235h237v-235h676v235h238v-235h162v-176h-162v-1023zM414 1023v-193h676v193h-676z" />
    <glyph glyph-name="hbar" unicode="&#x127;" horiz-adv-x="1205" 
d="M1076 0h-230v567c0 189.333 -68.333 284 -205 284c-68 0 -125.167 -26.167 -171.5 -78.5s-69.5 -119.5 -69.5 -201.5v-571h-232v1192h-139v145h139v179h232v-179h331v-145h-331v-340h4c78 124 187 186 327 186c112 0 197.5 -35.833 256.5 -107.5
s88.5 -175.167 88.5 -310.5v-620z" />
    <glyph glyph-name="Itilde" unicode="&#x128;" horiz-adv-x="592" 
d="M546 1434v-192h-131v-1050h131v-192h-500v192h131v1050h-131v192h500zM635 1828c0 -77.333 -17.166 -140.5 -51.499 -189.5s-80.833 -73.5 -139.5 -73.5c-48 0 -103 16 -165 48c-52 30 -92.333 45 -121 45c-56 0 -84 -37 -84 -111h-115c0 79.333 17 142.833 51 190.5
s81.667 71.5 143 71.5c45.333 0 97.666 -17 156.999 -51c48 -29.333 89.667 -44 125 -44c54 0 81 38 81 114h119z" />
    <glyph glyph-name="itilde" unicode="&#x129;" horiz-adv-x="535" 
d="M384 0h-233v1024h233v-1024zM601 1475c0 -77.333 -17.166 -140.5 -51.499 -189.5s-80.833 -73.5 -139.5 -73.5c-48 0 -103 16 -165 48c-52 30 -92.333 45 -121 45c-56 0 -84 -37 -84 -111h-115c0 79.333 17 142.833 51 190.5s81.667 71.5 143 71.5
c45.333 0 97.666 -17 156.999 -51c48 -29.333 89.667 -44 125 -44c54 0 81 38 81 114h119z" />
    <glyph glyph-name="Imacron" unicode="&#x12a;" horiz-adv-x="592" 
d="M546 1434v-192h-131v-1050h131v-192h-500v192h131v1050h-131v192h500zM569 1566h-543v137h543v-137z" />
    <glyph glyph-name="imacron" unicode="&#x12b;" horiz-adv-x="535" 
d="M384 0h-233v1024h233v-1024zM534 1204h-543v137h543v-137z" />
    <glyph glyph-name="Ibreve" unicode="&#x12c;" horiz-adv-x="592" 
d="M546 1434v-192h-131v-1050h131v-192h-500v192h131v1050h-131v192h500zM601 1842c-7.33301 -82.667 -39.834 -149.332 -97.501 -199.999s-127.5 -76 -209.5 -76c-86.667 0 -157.167 25.167 -211.5 75.5s-83.5 117.166 -87.5 200.499h136c8 -97.333 63.333 -146 166 -146
c43.333 0 80.333 13.167 111 39.5s49.334 61.833 56.001 106.5h137z" />
    <glyph glyph-name="ibreve" unicode="&#x12d;" horiz-adv-x="535" 
d="M384 0h-233v1024h233v-1024zM566 1480c-7.33301 -82.667 -39.834 -149.332 -97.501 -199.999s-127.5 -76 -209.5 -76c-86.667 0 -157.167 25.167 -211.5 75.5s-83.5 117.166 -87.5 200.499h136c8 -97.333 63.333 -146 166 -146c43.333 0 80.333 13.167 111 39.5
s49.334 61.833 56.001 106.5h137z" />
    <glyph glyph-name="Iogonek" unicode="&#x12e;" horiz-adv-x="592" 
d="M546 1434v-192h-131v-1050h131v-192h-500v192h131v1050h-131v192h500zM453 0c-100.667 -91.333 -151 -163.332 -151 -215.999c0 -45.333 21.667 -68 65 -68c24 0 46.667 4.33301 68 13v-121c-25.333 -10.667 -60.333 -16 -105 -16c-52 0 -93.833 14 -125.5 42
s-47.5 66.667 -47.5 116c0 81.333 53.667 164.666 161 249.999h135z" />
    <glyph glyph-name="iogonek" unicode="&#x12f;" horiz-adv-x="535" 
d="M268 1239c-38 0 -70.5 12.333 -97.5 37s-40.5 56 -40.5 94s13.5 69.667 40.5 95s59.5 38 97.5 38c39.333 0 72.666 -12.667 99.999 -38s41 -57 41 -95c0 -36 -13.667 -66.833 -41 -92.5s-60.666 -38.5 -99.999 -38.5zM383 0h-232v1024h232v-1024zM383 0
c-100.667 -91.333 -151 -163.332 -151 -215.999c0 -45.333 21.667 -68 65 -68c24 0 46.667 4.33301 68 13v-121c-25.333 -10.667 -60.333 -16 -105 -16c-52 0 -93.833 14 -125.5 42s-47.5 66.667 -47.5 116c0 81.333 53.667 164.666 161 249.999h135z" />
    <glyph glyph-name="Idotaccent" unicode="&#x130;" horiz-adv-x="592" 
d="M546 1434v-192h-131v-1050h131v-192h-500v192h131v1050h-131v192h500zM295 1566c-33.333 0 -62.167 11.168 -86.5 33.501s-36.5 49.833 -36.5 82.5c0 32 12 59 36 81s53 33 87 33s63 -10.833 87 -32.5s36 -48.834 36 -81.501c0 -32 -12 -59.333 -36 -82s-53 -34 -87 -34z
" />
    <glyph glyph-name="dotlessi" unicode="&#x131;" horiz-adv-x="535" 
d="M384 0h-233v1024h233v-1024z" />
    <glyph glyph-name="IJ" unicode="&#x132;" horiz-adv-x="1404" 
d="M546 1434v-192h-131v-1050h131v-192h-500v192h131v1050h-131v192h500zM1241 514c0 -170 -42 -302.167 -126 -396.5s-196 -141.5 -336 -141.5c-65.333 0 -119 7.66699 -161 23v224c38 -26 87 -39 147 -39c158.667 0 238 122.667 238 368v882h238v-920z" />
    <glyph glyph-name="ij" unicode="&#x133;" horiz-adv-x="1115" 
d="M268 1239c-38 0 -70.5 12.333 -97.5 37s-40.5 56 -40.5 94s13.5 69.667 40.5 95s59.5 38 97.5 38c39.333 0 72.666 -12.667 99.999 -38s41 -57 41 -95c0 -36 -13.667 -66.833 -41 -92.5s-60.666 -38.5 -99.999 -38.5zM383 0h-232v1024h232v-1024zM963 43
c0 -168 -35.333 -297.5 -106 -388.5s-171.667 -136.5 -303 -136.5c-48.667 0 -96 10.667 -142 32v199c43.333 -30 84.333 -45 123 -45c130.667 0 196 115.333 196 346v974h232v-981zM849 1239c-38 0 -70.5 12.333 -97.5 37s-40.5 56 -40.5 94s13.5 69.667 40.5 95
s59.5 38 97.5 38c38.667 0 71.667 -12.667 99 -38s41 -57 41 -95c0 -36 -13.667 -66.833 -41 -92.5s-60.333 -38.5 -99 -38.5z" />
    <glyph glyph-name="Jcircumflex" unicode="&#x134;" horiz-adv-x="812" 
d="M648 514c0 -170 -42 -302.167 -126 -396.5s-196 -141.5 -336 -141.5c-65.333 0 -119 7.66699 -161 23v224c38 -26 87 -39 147 -39c158.667 0 238 122.667 238 368v882h238v-920zM845 1566h-160l-161 211l-157 -211h-155l224 328h184z" />
    <glyph glyph-name="jcircumflex" unicode="&#x135;" horiz-adv-x="535" 
d="M383 31c0 -164 -35.333 -290.333 -106 -379s-171.667 -133 -303 -133c-48.667 0 -96 10.333 -142 31v196c45.333 -28 88.333 -42 129 -42c126.667 0 190 100.667 190 302v1018h232v-993zM583 1204h-160l-161 211l-157 -211h-155l224 328h184z" />
    <glyph glyph-name="Kcommaaccent" unicode="&#x136;" horiz-adv-x="1251" 
d="M1262 0l-310 -0.000976562l-499 656c-18.667 24.667 -30 41.334 -34 50.001h-4v-706h-238v1434h238v-674h4c8 14.667 19.333 31 34 49l481 625h285l-563 -688zM782 -118.001l-167 -302h-155l105 302h217z" />
    <glyph glyph-name="kcommaaccent" unicode="&#x137;" horiz-adv-x="1075" 
d="M1080 0h-294l-398 492h-4v-492h-233v1516h233v-961h4l376 469h279l-423 -494zM698 -118l-167 -302h-155l105 302h217z" />
    <glyph glyph-name="kgreenlandic" unicode="&#x138;" horiz-adv-x="1075" 
d="M1081 0h-295l-398 499h-4v-499h-233v1024h233v-471h4l376 471h284l-426 -488z" />
    <glyph glyph-name="Lacute" unicode="&#x139;" horiz-adv-x="1001" 
d="M971 0h-794v1434h238v-1233h556v-201zM888 1908l-286 -328h-172l242 328h216z" />
    <glyph glyph-name="lacute" unicode="&#x13a;" horiz-adv-x="535" 
d="M384 0h-233v1516h233v-1516zM597 1992l-286 -328h-172l242 328h216z" />
    <glyph glyph-name="Lcommaaccent" unicode="&#x13b;" horiz-adv-x="1001" 
d="M971 0h-794v1434h238v-1233h556v-201zM798 -248c0 -129.333 -96 -194 -288 -194c-31.333 0 -58.333 1 -81 3v111c29.333 -4 53 -6 71 -6c88.667 0 133 27.333 133 82c0 49.333 -40.333 74 -121 74c-6.66699 0 -19.667 -1.33301 -39 -4v182h136v-94
c58 0 104 -13.5 138 -40.5s51 -64.833 51 -113.5z" />
    <glyph glyph-name="lcommaaccent" unicode="&#x13c;" horiz-adv-x="535" 
d="M384 0h-233v1516h233v-1516zM501 -248c0 -129.333 -96 -194 -288 -194c-31.333 0 -58.333 1 -81 3v111c29.333 -4 53 -6 71 -6c88.667 0 133 27.333 133 82c0 49.333 -40.333 74 -121 74c-6.66699 0 -19.667 -1.33301 -39 -4v182h136v-94c58 0 104 -13.5 138 -40.5
s51 -64.833 51 -113.5z" />
    <glyph glyph-name="Lcaron" unicode="&#x13d;" horiz-adv-x="1001" 
d="M971 0h-794v1434h238v-1233h556v-201zM972 1435l-167 -302h-155l105 302h217z" />
    <glyph glyph-name="lcaron" unicode="&#x13e;" horiz-adv-x="682" 
d="M384 0h-233v1516h233v-1516zM801 1512l-167 -302h-155l105 302h217z" />
    <glyph glyph-name="Ldot" unicode="&#x13f;" horiz-adv-x="1001" 
d="M971 0h-794v1434h238v-1233h556v-201zM776 660c-33.333 0 -62.167 11.168 -86.5 33.501s-36.5 49.833 -36.5 82.5c0 32 12 59 36 81s53 33 87 33s63 -10.833 87 -32.5s36 -48.834 36 -81.501c0 -32 -12 -59.333 -36 -82s-53 -34 -87 -34z" />
    <glyph glyph-name="ldot" unicode="&#x140;" horiz-adv-x="754" 
d="M384 0h-233v1516h233v-1516zM631 633c-33.333 0 -62.167 11.168 -86.5 33.501s-36.5 49.833 -36.5 82.5c0 32 12 59 36 81s53 33 87 33s63 -10.833 87 -32.5s36 -48.834 36 -81.501c0 -32 -12 -59.333 -36 -82s-53 -34 -87 -34z" />
    <glyph glyph-name="Lslash" unicode="&#x141;" horiz-adv-x="1001" 
d="M971 0h-794v511l-158 -92v202l158 91v722h238v-594l308 179v-203l-308 -177v-438h556v-201z" />
    <glyph glyph-name="lslash" unicode="&#x142;" horiz-adv-x="598" 
d="M566 785l-157 -106v-679h-232v530l-152 -103v202l152 103v784h232v-635l157 105v-201z" />
    <glyph glyph-name="Nacute" unicode="&#x143;" horiz-adv-x="1571" 
d="M1393 0h-260.001l-685 1054c-17.333 26.667 -31.666 54.334 -42.999 83.001h-6c5.33301 -30.667 8 -96.334 8 -197.001v-940h-230v1434h277l662 -1029c28 -42.667 46 -72 54 -88h4c-6.66699 38 -10 102.333 -10 193v924h229v-1434zM1110 1908l-286 -328h-172l242 328h216
z" />
    <glyph glyph-name="nacute" unicode="&#x144;" horiz-adv-x="1195" 
d="M1063 0h-232.001v577c0 191.333 -67.667 287 -203 287c-70.667 0 -129 -26.5 -175 -79.5s-69 -119.833 -69 -200.5v-584h-233v1024h233v-170h4c76.667 129.333 187.334 194 332.001 194c111.333 0 196.333 -36.167 255 -108.5s88 -176.833 88 -313.5v-626zM907.999 1546
l-286 -328h-172l242 328h216z" />
    <glyph glyph-name="Ncommaaccent" unicode="&#x145;" horiz-adv-x="1571" 
d="M1393 0h-260.001l-685 1054c-17.333 26.667 -31.666 54.334 -42.999 83.001h-6c5.33301 -30.667 8 -96.334 8 -197.001v-940h-230v1434h277l662 -1029c28 -42.667 46 -72 54 -88h4c-6.66699 38 -10 102.333 -10 193v924h229v-1434zM923.999 -118l-167 -302h-155l105 302
h217z" />
    <glyph glyph-name="ncommaaccent" unicode="&#x146;" horiz-adv-x="1195" 
d="M1063 0h-232.001v577c0 191.333 -67.667 287 -203 287c-70.667 0 -129 -26.5 -175 -79.5s-69 -119.833 -69 -200.5v-584h-233v1024h233v-170h4c76.667 129.333 187.334 194 332.001 194c111.333 0 196.333 -36.167 255 -108.5s88 -176.833 88 -313.5v-626zM740.999 -118
l-167 -302h-155l105 302h217z" />
    <glyph glyph-name="Ncaron" unicode="&#x147;" horiz-adv-x="1571" 
d="M1393 0h-260.001l-685 1054c-17.333 26.667 -31.666 54.334 -42.999 83.001h-6c5.33301 -30.667 8 -96.334 8 -197.001v-940h-230v1434h277l662 -1029c28 -42.667 46 -72 54 -88h4c-6.66699 38 -10 102.333 -10 193v924h229v-1434zM1101 1893l-224 -327h-185l-224 327
h155l160 -210l161 210h157z" />
    <glyph glyph-name="ncaron" unicode="&#x148;" horiz-adv-x="1195" 
d="M1063 0h-232.001v577c0 191.333 -67.667 287 -203 287c-70.667 0 -129 -26.5 -175 -79.5s-69 -119.833 -69 -200.5v-584h-233v1024h233v-170h4c76.667 129.333 187.334 194 332.001 194c111.333 0 196.333 -36.167 255 -108.5s88 -176.833 88 -313.5v-626zM934.999 1531
l-224 -327h-185l-224 327h155l160 -210l161 210h157z" />
    <glyph glyph-name="napostrophe" unicode="&#x149;" horiz-adv-x="1241" 
d="M239 1462l-163 -445h-153l113 445h203zM1109 0h-232.001v577c0 191.333 -67.667 287 -203 287c-70.667 0 -129 -26.5 -175 -79.5s-69 -119.833 -69 -200.5v-584h-233v1024h233v-170h4c76.667 129.333 187.334 194 332.001 194c111.333 0 196.333 -36.167 255 -108.5
s88 -176.833 88 -313.5v-626z" />
    <glyph glyph-name="Eng" unicode="&#x14a;" horiz-adv-x="1571" 
d="M446 1054c-14 20 -28.333 47.668 -43 83.001h-6c6 -32.667 9 -93.334 9 -182.001v-955h-229v1434h276l662 -979c1.33301 -1.33301 19 -33.333 53 -96h4c-6 44 -9 111.333 -9 202v873h229v-1357c0 -332.667 -126 -499 -378 -499c-62 0 -117.667 10.667 -167 32v203
c51.333 -27.333 98 -41 140 -41c116 0 174 76.333 174 229z" />
    <glyph glyph-name="eng" unicode="&#x14b;" horiz-adv-x="1195" 
d="M1064 43c0 -310 -126.999 -465 -380.999 -465c-56.667 0 -108 10.333 -154 31v202c48 -27.333 91.667 -41 131 -41c114.667 0 172 84.667 172 254v539c0 200.667 -69.333 301 -208 301c-68.667 0 -125.834 -26.5 -171.501 -79.5s-68.5 -119.833 -68.5 -200.5v-584h-233
v1024h233v-170h4c77.333 129.333 188 194 332 194c229.333 0 344 -138.333 344 -415v-590z" />
    <glyph glyph-name="Omacron" unicode="&#x14c;" horiz-adv-x="1548" 
d="M768 -24c-206.667 0 -372.167 66.999 -496.5 200.999s-186.5 308.333 -186.5 523c0 230.667 63.333 414.667 190 552s298.667 206 516 206c201.333 0 363.5 -66.667 486.5 -200s184.5 -307.666 184.5 -522.999c0 -234 -63 -419 -189 -555s-294.333 -204 -505 -204z
M779 1249c-131.333 0 -238.166 -49.001 -320.499 -147.001s-123.5 -227 -123.5 -387c0 -159.333 40 -287.666 120 -384.999s184.667 -146 314 -146c137.333 0 245.666 46.333 324.999 139s119 222.334 119 389.001c0 171.333 -38.5 303.666 -115.5 396.999
s-183.167 140 -318.5 140zM1048 1566h-543v137h543v-137z" />
    <glyph glyph-name="omacron" unicode="&#x14d;" horiz-adv-x="1223" 
d="M605 -24c-158 0 -284.167 47.832 -378.5 143.499s-141.5 222.5 -141.5 380.5c0 172 49.167 306.333 147.5 403s230.833 145 397.5 145c160 0 284.667 -47 374 -141s134 -224.333 134 -391c0 -163.333 -48.167 -294.166 -144.5 -392.499s-225.833 -147.5 -388.5 -147.5z
M616 862.999c-90.667 0 -162.332 -31.668 -214.999 -95.001s-79 -150.666 -79 -261.999c0 -107.333 26.667 -191.833 80 -253.5s124.666 -92.5 213.999 -92.5c91.333 0 161.5 30.333 210.5 91s73.5 147 73.5 259c0 112.667 -24.5 199.667 -73.5 261s-119.167 92 -210.5 92z
M888.002 1204h-543v137h543v-137z" />
    <glyph glyph-name="Obreve" unicode="&#x14e;" horiz-adv-x="1548" 
d="M768 -24c-206.667 0 -372.167 66.999 -496.5 200.999s-186.5 308.333 -186.5 523c0 230.667 63.333 414.667 190 552s298.667 206 516 206c201.333 0 363.5 -66.667 486.5 -200s184.5 -307.666 184.5 -522.999c0 -234 -63 -419 -189 -555s-294.333 -204 -505 -204z
M779 1249c-131.333 0 -238.166 -49.001 -320.499 -147.001s-123.5 -227 -123.5 -387c0 -159.333 40 -287.666 120 -384.999s184.667 -146 314 -146c137.333 0 245.666 46.333 324.999 139s119 222.334 119 389.001c0 171.333 -38.5 303.666 -115.5 396.999
s-183.167 140 -318.5 140zM1082 1843c-7.33301 -82.667 -39.834 -149.332 -97.501 -199.999s-127.5 -76 -209.5 -76c-86.667 0 -157.167 25.167 -211.5 75.5s-83.5 117.166 -87.5 200.499h136c8 -97.333 63.333 -146 166 -146c43.333 0 80.333 13.167 111 39.5
s49.334 61.833 56.001 106.5h137z" />
    <glyph glyph-name="obreve" unicode="&#x14f;" horiz-adv-x="1223" 
d="M605 -24c-158 0 -284.167 47.832 -378.5 143.499s-141.5 222.5 -141.5 380.5c0 172 49.167 306.333 147.5 403s230.833 145 397.5 145c160 0 284.667 -47 374 -141s134 -224.333 134 -391c0 -163.333 -48.167 -294.166 -144.5 -392.499s-225.833 -147.5 -388.5 -147.5z
M616 862.999c-90.667 0 -162.332 -31.668 -214.999 -95.001s-79 -150.666 -79 -261.999c0 -107.333 26.667 -191.833 80 -253.5s124.666 -92.5 213.999 -92.5c91.333 0 161.5 30.333 210.5 91s73.5 147 73.5 259c0 112.667 -24.5 199.667 -73.5 261s-119.167 92 -210.5 92z
M925.002 1480c-7.33301 -82.667 -39.834 -149.332 -97.501 -199.999s-127.5 -76 -209.5 -76c-86.667 0 -157.167 25.167 -211.5 75.5s-83.5 117.166 -87.5 200.499h136c8 -97.333 63.333 -146 166 -146c43.333 0 80.333 13.167 111 39.5s49.334 61.833 56.001 106.5h137z
" />
    <glyph glyph-name="Ohungarumlaut" unicode="&#x150;" horiz-adv-x="1548" 
d="M768 -24c-206.667 0 -372.167 66.999 -496.5 200.999s-186.5 308.333 -186.5 523c0 230.667 63.333 414.667 190 552s298.667 206 516 206c201.333 0 363.5 -66.667 486.5 -200s184.5 -307.666 184.5 -522.999c0 -234 -63 -419 -189 -555s-294.333 -204 -505 -204z
M779 1249c-131.333 0 -238.166 -49.001 -320.499 -147.001s-123.5 -227 -123.5 -387c0 -159.333 40 -287.666 120 -384.999s184.667 -146 314 -146c137.333 0 245.666 46.333 324.999 139s119 222.334 119 389.001c0 171.333 -38.5 303.666 -115.5 396.999
s-183.167 140 -318.5 140zM1194 1885l-248 -318h-148l211 318h185zM888 1885l-243 -318h-148l208 318h183z" />
    <glyph glyph-name="ohungarumlaut" unicode="&#x151;" horiz-adv-x="1223" 
d="M605 -24c-158 0 -284.167 47.832 -378.5 143.499s-141.5 222.5 -141.5 380.5c0 172 49.167 306.333 147.5 403s230.833 145 397.5 145c160 0 284.667 -47 374 -141s134 -224.333 134 -391c0 -163.333 -48.167 -294.166 -144.5 -392.499s-225.833 -147.5 -388.5 -147.5z
M616 862.999c-90.667 0 -162.332 -31.668 -214.999 -95.001s-79 -150.666 -79 -261.999c0 -107.333 26.667 -191.833 80 -253.5s124.666 -92.5 213.999 -92.5c91.333 0 161.5 30.333 210.5 91s73.5 147 73.5 259c0 112.667 -24.5 199.667 -73.5 261s-119.167 92 -210.5 92z
M1028 1522l-248 -318h-148l211 318h185zM722.002 1522l-243 -318h-148l208 318h183z" />
    <glyph glyph-name="OE" unicode="&#x152;" horiz-adv-x="1915" 
d="M1832 0h-735c-11.333 -0 -58.333 -4.66699 -141 -14c-66.667 -6.66699 -128.667 -10 -186 -10c-210.667 0 -377.5 67 -500.5 201s-184.5 308.333 -184.5 523c0 230.667 64 414.667 192 552s302 206 522 206c61.333 0 122 -3.33301 182 -10
c76 -9.33301 114.667 -14 116 -14h703v-202h-535v-408h496v-202h-496v-421h567v-201zM1023 225v984.999c-96 26 -176.333 39 -241 39c-132.667 0 -240.167 -50 -322.5 -150s-123.5 -228 -123.5 -384c0 -155.333 40.5 -282.666 121.5 -381.999s187.167 -149 318.5 -149
c70 0 152.333 13.667 247 41z" />
    <glyph glyph-name="oe" unicode="&#x153;" horiz-adv-x="1897" 
d="M1830 448h-700c2 -94.667 30.5 -167.667 85.5 -219s130.167 -77 225.5 -77c112.667 0 215.334 32.667 308.001 98v-187c-89.333 -58 -207 -87 -353 -87c-181.333 0 -309.666 71.333 -384.999 214h-4c-86.667 -142 -224.334 -213 -413.001 -213
c-156 0 -279.833 47.5 -371.5 142.5s-137.5 221.167 -137.5 378.5c0 172 48.333 306.667 145 404s226.667 146 390 146c191.333 0 322.333 -69.333 393 -208h4c81.333 138.667 212.666 208 393.999 208c132 0 234.833 -45.5 308.5 -136.5s110.5 -214.833 110.5 -371.5v-92z
M1605 612c-1.33301 83.333 -21.167 148.167 -59.5 194.5s-90.833 69.5 -157.5 69.5c-68 0 -125.5 -25 -172.5 -75s-75.167 -113 -84.5 -189h474zM616.999 863.001c-90.667 0 -162.501 -32 -215.501 -96s-79.5 -152.333 -79.5 -265c0 -105.333 26.5 -188.5 79.5 -249.5
s124.167 -91.5 213.5 -91.5c90.667 0 160.834 30.167 210.501 90.5s74.5 145.833 74.5 256.5c0 114 -24.667 201.667 -74 263s-119 92 -209 92z" />
    <glyph glyph-name="Racute" unicode="&#x154;" horiz-adv-x="1275" 
d="M1285 0l-277.998 0.00195312l-229 384c-20.667 35.333 -40.834 65.5 -60.501 90.5s-39.667 45.5 -60 61.5s-42.5 27.667 -66.5 35s-51 11 -81 11h-96v-582h-237v1434h472c67.333 0 129.333 -8 186 -24s106 -40.167 148 -72.5s74.833 -72.666 98.5 -120.999
s35.5 -104.833 35.5 -169.5c0 -50.667 -7.5 -97.167 -22.5 -139.5s-36.333 -80 -64 -113s-61 -61.167 -100 -84.5s-82.833 -41.333 -131.5 -54v-4c26 -14.667 48.667 -30.834 68 -48.501s37.666 -35.834 54.999 -54.501s34.5 -39.834 51.5 -63.501l56.5 -82.5zM414.002 1241
l-0.00195312 -466h198c36.667 0 70.5 5.66699 101.5 17s57.833 27.666 80.5 48.999s40.334 47.333 53.001 78s19 65 19 103c0 68.667 -21.667 122.334 -65 161.001s-105.666 58 -186.999 58h-200zM933 1908l-286 -328h-172l242 328h216z" />
    <glyph glyph-name="racute" unicode="&#x155;" horiz-adv-x="758" 
d="M745 803c-28 22 -68.333 33 -121 33c-68.667 0 -126 -31 -172 -93s-69 -146.333 -69 -253v-490h-232v1024h232v-211h4c22.667 72 57.5 128.167 104.5 168.5s99.5 60.5 157.5 60.5c42 0 74 -6.33301 96 -19v-220zM737 1546l-286 -328h-172l242 328h216z" />
    <glyph glyph-name="Rcommaaccent" unicode="&#x156;" horiz-adv-x="1275" 
d="M1285 0l-277.998 0.00195312l-229 384c-20.667 35.333 -40.834 65.5 -60.501 90.5s-39.667 45.5 -60 61.5s-42.5 27.667 -66.5 35s-51 11 -81 11h-96v-582h-237v1434h472c67.333 0 129.333 -8 186 -24s106 -40.167 148 -72.5s74.833 -72.666 98.5 -120.999
s35.5 -104.833 35.5 -169.5c0 -50.667 -7.5 -97.167 -22.5 -139.5s-36.333 -80 -64 -113s-61 -61.167 -100 -84.5s-82.833 -41.333 -131.5 -54v-4c26 -14.667 48.667 -30.834 68 -48.501s37.666 -35.834 54.999 -54.501s34.5 -39.834 51.5 -63.501l56.5 -82.5zM414.002 1241
l-0.00195312 -466h198c36.667 0 70.5 5.66699 101.5 17s57.833 27.666 80.5 48.999s40.334 47.333 53.001 78s19 65 19 103c0 68.667 -21.667 122.334 -65 161.001s-105.666 58 -186.999 58h-200zM801 -117.998l-167 -302h-155l105 302h217z" />
    <glyph glyph-name="rcommaaccent" unicode="&#x157;" horiz-adv-x="758" 
d="M745 803c-28 22 -68.333 33 -121 33c-68.667 0 -126 -31 -172 -93s-69 -146.333 -69 -253v-490h-232v1024h232v-211h4c22.667 72 57.5 128.167 104.5 168.5s99.5 60.5 157.5 60.5c42 0 74 -6.33301 96 -19v-220zM562 -118l-167 -302h-155l105 302h217z" />
    <glyph glyph-name="Rcaron" unicode="&#x158;" horiz-adv-x="1275" 
d="M1285 0l-277.998 0.00195312l-229 384c-20.667 35.333 -40.834 65.5 -60.501 90.5s-39.667 45.5 -60 61.5s-42.5 27.667 -66.5 35s-51 11 -81 11h-96v-582h-237v1434h472c67.333 0 129.333 -8 186 -24s106 -40.167 148 -72.5s74.833 -72.666 98.5 -120.999
s35.5 -104.833 35.5 -169.5c0 -50.667 -7.5 -97.167 -22.5 -139.5s-36.333 -80 -64 -113s-61 -61.167 -100 -84.5s-82.833 -41.333 -131.5 -54v-4c26 -14.667 48.667 -30.834 68 -48.501s37.666 -35.834 54.999 -54.501s34.5 -39.834 51.5 -63.501l56.5 -82.5zM414.002 1241
l-0.00195312 -466h198c36.667 0 70.5 5.66699 101.5 17s57.833 27.666 80.5 48.999s40.334 47.333 53.001 78s19 65 19 103c0 68.667 -21.667 122.334 -65 161.001s-105.666 58 -186.999 58h-200zM938 1893l-224 -327h-185l-224 327h155l160 -210l161 210h157z" />
    <glyph glyph-name="rcaron" unicode="&#x159;" horiz-adv-x="758" 
d="M745 803c-28 22 -68.333 33 -121 33c-68.667 0 -126 -31 -172 -93s-69 -146.333 -69 -253v-490h-232v1024h232v-211h4c22.667 72 57.5 128.167 104.5 168.5s99.5 60.5 157.5 60.5c42 0 74 -6.33301 96 -19v-220zM746 1531l-224 -327h-185l-224 327h155l160 -210l161 210
h157z" />
    <glyph glyph-name="Sacute" unicode="&#x15a;" horiz-adv-x="1115" 
d="M111 57v244.998c22 -20 48.167 -38 78.5 -54s62.5 -29.5 96.5 -40.5s68 -19.5 102 -25.5s65.333 -9 94 -9c100 0 174.5 16.667 223.5 50s73.5 81.666 73.5 144.999c0 34 -8.16699 63.5 -24.5 88.5s-39.166 47.833 -68.499 68.5s-63.833 40.5 -103.5 59.5l-127.5 59.5
c-48.667 26 -94 52.333 -136 79s-78.5 56.167 -109.5 88.5s-55.333 68.833 -73 109.5s-26.5 88.334 -26.5 143.001c0 67.333 15.167 125.833 45.5 175.5s70.333 90.667 120 123s106.167 56.333 169.5 72s128 23.5 194 23.5c150 0 259.333 -17 328 -51v-235
c-81.333 58.667 -186 88 -314 88c-35.333 0 -70.5 -3.33301 -105.5 -10s-66.333 -17.667 -94 -33s-50.167 -35 -67.5 -59s-26 -53 -26 -87c0 -32 6.66699 -59.667 20 -83s32.833 -44.666 58.5 -63.999s57 -38.166 94 -56.499s79.833 -38.166 128.5 -59.499
c50 -26 97.167 -53.333 141.5 -82s83.333 -60.334 117 -95.001s60.334 -73.167 80.001 -115.5s29.5 -90.5 29.5 -144.5c0 -72.667 -14.667 -134 -44 -184s-68.833 -90.667 -118.5 -122s-106.834 -54 -171.501 -68s-133 -21 -205 -21c-24 0 -53.5 1.83301 -88.5 5.5
s-70.833 9 -107.5 16s-71.334 15.5 -104.001 25.5s-59 21.333 -79 34zM858 1908l-286 -328h-172l242 328h216z" />
    <glyph glyph-name="sacute" unicode="&#x15b;" horiz-adv-x="883" 
d="M87 32v214.999c86.667 -66 182.334 -99 287.001 -99c140 0 210 41.333 210 124c0 23.333 -6 43.166 -18 59.499s-28.167 30.833 -48.5 43.5s-44.333 24 -72 34l-92.5 34c-42 16.667 -79.833 34.334 -113.5 53.001s-61.667 39.834 -84 63.501s-39.166 50.5 -50.499 80.5
s-17 65 -17 105c0 49.333 11.667 92.833 35 130.5s54.666 69.334 93.999 95.001s84 45 134 58s101.667 19.5 155 19.5c94.667 0 179.334 -14.333 254.001 -43v-203c-72 49.333 -154.667 74 -248 74c-29.333 0 -55.833 -3 -79.5 -9s-43.834 -14.333 -60.501 -25
s-29.667 -23.5 -39 -38.5s-14 -31.5 -14 -49.5c0 -22 4.66699 -40.667 14 -56s23.166 -28.833 41.499 -40.5s40.333 -22.334 66 -32.001s55.167 -20.167 88.5 -31.5c44 -18 83.5 -36.333 118.5 -55s64.833 -39.834 89.5 -63.501s43.667 -51 57 -82s20 -67.833 20 -110.5
c0 -52 -12 -97.333 -36 -136s-56 -70.667 -96 -96s-86.167 -44.166 -138.5 -56.499s-107.5 -18.5 -165.5 -18.5c-112 0 -209 18.667 -291 56zM761 1546l-286 -328h-172l242 328h216z" />
    <glyph glyph-name="Scircumflex" unicode="&#x15c;" horiz-adv-x="1115" 
d="M111 57v244.998c22 -20 48.167 -38 78.5 -54s62.5 -29.5 96.5 -40.5s68 -19.5 102 -25.5s65.333 -9 94 -9c100 0 174.5 16.667 223.5 50s73.5 81.666 73.5 144.999c0 34 -8.16699 63.5 -24.5 88.5s-39.166 47.833 -68.499 68.5s-63.833 40.5 -103.5 59.5l-127.5 59.5
c-48.667 26 -94 52.333 -136 79s-78.5 56.167 -109.5 88.5s-55.333 68.833 -73 109.5s-26.5 88.334 -26.5 143.001c0 67.333 15.167 125.833 45.5 175.5s70.333 90.667 120 123s106.167 56.333 169.5 72s128 23.5 194 23.5c150 0 259.333 -17 328 -51v-235
c-81.333 58.667 -186 88 -314 88c-35.333 0 -70.5 -3.33301 -105.5 -10s-66.333 -17.667 -94 -33s-50.167 -35 -67.5 -59s-26 -53 -26 -87c0 -32 6.66699 -59.667 20 -83s32.833 -44.666 58.5 -63.999s57 -38.166 94 -56.499s79.833 -38.166 128.5 -59.499
c50 -26 97.167 -53.333 141.5 -82s83.333 -60.334 117 -95.001s60.334 -73.167 80.001 -115.5s29.5 -90.5 29.5 -144.5c0 -72.667 -14.667 -134 -44 -184s-68.833 -90.667 -118.5 -122s-106.834 -54 -171.501 -68s-133 -21 -205 -21c-24 0 -53.5 1.83301 -88.5 5.5
s-70.833 9 -107.5 16s-71.334 15.5 -104.001 25.5s-59 21.333 -79 34zM886 1566h-160l-161 211l-157 -211h-155l224 328h184z" />
    <glyph glyph-name="scircumflex" unicode="&#x15d;" horiz-adv-x="883" 
d="M87 32v214.999c86.667 -66 182.334 -99 287.001 -99c140 0 210 41.333 210 124c0 23.333 -6 43.166 -18 59.499s-28.167 30.833 -48.5 43.5s-44.333 24 -72 34l-92.5 34c-42 16.667 -79.833 34.334 -113.5 53.001s-61.667 39.834 -84 63.501s-39.166 50.5 -50.499 80.5
s-17 65 -17 105c0 49.333 11.667 92.833 35 130.5s54.666 69.334 93.999 95.001s84 45 134 58s101.667 19.5 155 19.5c94.667 0 179.334 -14.333 254.001 -43v-203c-72 49.333 -154.667 74 -248 74c-29.333 0 -55.833 -3 -79.5 -9s-43.834 -14.333 -60.501 -25
s-29.667 -23.5 -39 -38.5s-14 -31.5 -14 -49.5c0 -22 4.66699 -40.667 14 -56s23.166 -28.833 41.499 -40.5s40.333 -22.334 66 -32.001s55.167 -20.167 88.5 -31.5c44 -18 83.5 -36.333 118.5 -55s64.833 -39.834 89.5 -63.501s43.667 -51 57 -82s20 -67.833 20 -110.5
c0 -52 -12 -97.333 -36 -136s-56 -70.667 -96 -96s-86.167 -44.166 -138.5 -56.499s-107.5 -18.5 -165.5 -18.5c-112 0 -209 18.667 -291 56zM762 1204h-160l-161 211l-157 -211h-155l224 328h184z" />
    <glyph glyph-name="Scedilla" unicode="&#x15e;" horiz-adv-x="1115" 
d="M111 57v244.998c22 -20 48.167 -38 78.5 -54s62.5 -29.5 96.5 -40.5s68 -19.5 102 -25.5s65.333 -9 94 -9c100 0 174.5 16.667 223.5 50s73.5 81.666 73.5 144.999c0 34 -8.16699 63.5 -24.5 88.5s-39.166 47.833 -68.499 68.5s-63.833 40.5 -103.5 59.5l-127.5 59.5
c-48.667 26 -94 52.333 -136 79s-78.5 56.167 -109.5 88.5s-55.333 68.833 -73 109.5s-26.5 88.334 -26.5 143.001c0 67.333 15.167 125.833 45.5 175.5s70.333 90.667 120 123s106.167 56.333 169.5 72s128 23.5 194 23.5c150 0 259.333 -17 328 -51v-235
c-81.333 58.667 -186 88 -314 88c-35.333 0 -70.5 -3.33301 -105.5 -10s-66.333 -17.667 -94 -33s-50.167 -35 -67.5 -59s-26 -53 -26 -87c0 -32 6.66699 -59.667 20 -83s32.833 -44.666 58.5 -63.999s57 -38.166 94 -56.499s79.833 -38.166 128.5 -59.499
c50 -26 97.167 -53.333 141.5 -82s83.333 -60.334 117 -95.001s60.334 -73.167 80.001 -115.5s29.5 -90.5 29.5 -144.5c0 -72.667 -14.667 -134 -44 -184s-68.833 -90.667 -118.5 -122s-106.834 -54 -171.501 -68s-133 -21 -205 -21c-24 0 -53.5 1.83301 -88.5 5.5
s-70.833 9 -107.5 16s-71.334 15.5 -104.001 25.5s-59 21.333 -79 34zM790 -248.002c0 -129.333 -96 -194 -288 -194c-31.333 0 -58.333 1 -81 3v111c29.333 -4 53 -6 71 -6c88.667 0 133 27.333 133 82c0 49.333 -40.333 74 -121 74c-6.66699 0 -19.667 -1.33301 -39 -4
v182h136v-94c58 0 104 -13.5 138 -40.5s51 -64.833 51 -113.5z" />
    <glyph glyph-name="scedilla" unicode="&#x15f;" horiz-adv-x="883" 
d="M87 32v214.999c86.667 -66 182.334 -99 287.001 -99c140 0 210 41.333 210 124c0 23.333 -6 43.166 -18 59.499s-28.167 30.833 -48.5 43.5s-44.333 24 -72 34l-92.5 34c-42 16.667 -79.833 34.334 -113.5 53.001s-61.667 39.834 -84 63.501s-39.166 50.5 -50.499 80.5
s-17 65 -17 105c0 49.333 11.667 92.833 35 130.5s54.666 69.334 93.999 95.001s84 45 134 58s101.667 19.5 155 19.5c94.667 0 179.334 -14.333 254.001 -43v-203c-72 49.333 -154.667 74 -248 74c-29.333 0 -55.833 -3 -79.5 -9s-43.834 -14.333 -60.501 -25
s-29.667 -23.5 -39 -38.5s-14 -31.5 -14 -49.5c0 -22 4.66699 -40.667 14 -56s23.166 -28.833 41.499 -40.5s40.333 -22.334 66 -32.001s55.167 -20.167 88.5 -31.5c44 -18 83.5 -36.333 118.5 -55s64.833 -39.834 89.5 -63.501s43.667 -51 57 -82s20 -67.833 20 -110.5
c0 -52 -12 -97.333 -36 -136s-56 -70.667 -96 -96s-86.167 -44.166 -138.5 -56.499s-107.5 -18.5 -165.5 -18.5c-112 0 -209 18.667 -291 56zM665 -248.001c0 -129.333 -96 -194 -288 -194c-31.333 0 -58.333 1 -81 3v111c29.333 -4 53 -6 71 -6c88.667 0 133 27.333 133 82
c0 49.333 -40.333 74 -121 74c-6.66699 0 -19.667 -1.33301 -39 -4v182h136v-94c58 0 104 -13.5 138 -40.5s51 -64.833 51 -113.5z" />
    <glyph glyph-name="Scaron" unicode="&#x160;" horiz-adv-x="1115" 
d="M111 57v244.998c22 -20 48.167 -38 78.5 -54s62.5 -29.5 96.5 -40.5s68 -19.5 102 -25.5s65.333 -9 94 -9c100 0 174.5 16.667 223.5 50s73.5 81.666 73.5 144.999c0 34 -8.16699 63.5 -24.5 88.5s-39.166 47.833 -68.499 68.5s-63.833 40.5 -103.5 59.5l-127.5 59.5
c-48.667 26 -94 52.333 -136 79s-78.5 56.167 -109.5 88.5s-55.333 68.833 -73 109.5s-26.5 88.334 -26.5 143.001c0 67.333 15.167 125.833 45.5 175.5s70.333 90.667 120 123s106.167 56.333 169.5 72s128 23.5 194 23.5c150 0 259.333 -17 328 -51v-235
c-81.333 58.667 -186 88 -314 88c-35.333 0 -70.5 -3.33301 -105.5 -10s-66.333 -17.667 -94 -33s-50.167 -35 -67.5 -59s-26 -53 -26 -87c0 -32 6.66699 -59.667 20 -83s32.833 -44.666 58.5 -63.999s57 -38.166 94 -56.499s79.833 -38.166 128.5 -59.499
c50 -26 97.167 -53.333 141.5 -82s83.333 -60.334 117 -95.001s60.334 -73.167 80.001 -115.5s29.5 -90.5 29.5 -144.5c0 -72.667 -14.667 -134 -44 -184s-68.833 -90.667 -118.5 -122s-106.834 -54 -171.501 -68s-133 -21 -205 -21c-24 0 -53.5 1.83301 -88.5 5.5
s-70.833 9 -107.5 16s-71.334 15.5 -104.001 25.5s-59 21.333 -79 34zM891 1881l-224 -327h-185l-224 327h155l160 -210l161 210h157z" />
    <glyph glyph-name="scaron" unicode="&#x161;" horiz-adv-x="883" 
d="M87 32v214.999c86.667 -66 182.334 -99 287.001 -99c140 0 210 41.333 210 124c0 23.333 -6 43.166 -18 59.499s-28.167 30.833 -48.5 43.5s-44.333 24 -72 34l-92.5 34c-42 16.667 -79.833 34.334 -113.5 53.001s-61.667 39.834 -84 63.501s-39.166 50.5 -50.499 80.5
s-17 65 -17 105c0 49.333 11.667 92.833 35 130.5s54.666 69.334 93.999 95.001s84 45 134 58s101.667 19.5 155 19.5c94.667 0 179.334 -14.333 254.001 -43v-203c-72 49.333 -154.667 74 -248 74c-29.333 0 -55.833 -3 -79.5 -9s-43.834 -14.333 -60.501 -25
s-29.667 -23.5 -39 -38.5s-14 -31.5 -14 -49.5c0 -22 4.66699 -40.667 14 -56s23.166 -28.833 41.499 -40.5s40.333 -22.334 66 -32.001s55.167 -20.167 88.5 -31.5c44 -18 83.5 -36.333 118.5 -55s64.833 -39.834 89.5 -63.501s43.667 -51 57 -82s20 -67.833 20 -110.5
c0 -52 -12 -97.333 -36 -136s-56 -70.667 -96 -96s-86.167 -44.166 -138.5 -56.499s-107.5 -18.5 -165.5 -18.5c-112 0 -209 18.667 -291 56zM792 1531l-224 -327h-185l-224 327h155l160 -210l161 210h157z" />
    <glyph glyph-name="uni0162" unicode="&#x162;" horiz-adv-x="1130" 
d="M1097 1232h-412v-1232h-238v1232h-411v202h1061v-202zM793 -248c0 -129.333 -96 -194 -288 -194c-31.333 0 -58.333 1 -81 3v111c29.333 -4 53 -6 71 -6c88.667 0 133 27.333 133 82c0 49.333 -40.333 74 -121 74c-6.66699 0 -19.667 -1.33301 -39 -4v182h136v-94
c58 0 104 -13.5 138 -40.5s51 -64.833 51 -113.5z" />
    <glyph glyph-name="uni0163" unicode="&#x163;" horiz-adv-x="740" 
d="M691 11c-45.333 -22.667 -105 -34 -179 -34c-198.667 0 -298 95.333 -298 286v579h-171v182h171v237l232 66v-303h245v-182h-245v-512c0 -60.667 11 -104 33 -130s58.667 -39 110 -39c39.333 0 73.333 11.333 102 34v-184zM700 -248c0 -129.333 -96 -194 -288 -194
c-31.333 0 -58.333 1 -81 3v111c29.333 -4 53 -6 71 -6c88.667 0 133 27.333 133 82c0 49.333 -40.333 74 -121 74c-6.66699 0 -19.667 -1.33301 -39 -4v182h136v-94c58 0 104 -13.5 138 -40.5s51 -64.833 51 -113.5z" />
    <glyph glyph-name="Tcaron" unicode="&#x164;" horiz-adv-x="1130" 
d="M1097 1232h-412v-1232h-238v1232h-411v202h1061v-202zM883 1893l-224 -327h-185l-224 327h155l160 -210l161 210h157z" />
    <glyph glyph-name="tcaron" unicode="&#x165;" horiz-adv-x="846" 
d="M691 11c-45.333 -22.667 -105 -34 -179 -34c-198.667 0 -298 95.333 -298 286v579h-171v182h171v237l232 66v-303h245v-182h-245v-512c0 -60.667 11 -104 33 -130s58.667 -39 110 -39c39.333 0 73.333 11.333 102 34v-184zM959 1434l-167 -302h-155l105 302h217z" />
    <glyph glyph-name="Tbar" unicode="&#x166;" horiz-adv-x="1130" 
d="M1097 1232h-412v-432h242v-205h-242v-595h-238v595h-244v205h244v432h-411v202h1061v-202z" />
    <glyph glyph-name="tbar" unicode="&#x167;" horiz-adv-x="740" 
d="M680 499h-235v-169c0 -60.667 10.667 -104 32 -130s57.333 -39 108 -39c39.333 0 74.333 10.667 105 32v-183c-45.333 -22 -105 -33 -179 -33c-198.667 0 -298 95.333 -298 286v236h-155v166h155v177h-171v182h171v234c0 1.33301 37.667 13.333 113 36l119 36v-306h245
v-182h-245v-177h235v-166z" />
    <glyph glyph-name="Utilde" unicode="&#x168;" horiz-adv-x="1440" 
d="M1280 580c0 -402.667 -190.667 -604 -572 -604c-365.333 0 -548 193.667 -548 581v877h238v-828c0 -281.333 109.333 -422 328 -422c210.667 0 316 135.667 316 407v843h238v-854zM1059 1815c0 -77.333 -17.166 -140.5 -51.499 -189.5s-80.833 -73.5 -139.5 -73.5
c-48 0 -103 16 -165 48c-52 30 -92.333 45 -121 45c-56 0 -84 -37 -84 -111h-115c0 79.333 17 142.833 51 190.5s81.667 71.5 143 71.5c45.333 0 97.666 -17 156.999 -51c48 -29.333 89.667 -44 125 -44c54 0 81 38 81 114h119z" />
    <glyph glyph-name="utilde" unicode="&#x169;" horiz-adv-x="1195" 
d="M1044 0h-232v162h-4c-67.333 -124 -172 -186 -314 -186c-242 0 -363 145.333 -363 436v612h232v-588c0 -184 71 -276 213 -276c68.667 0 125.167 25.333 169.5 76s66.5 117 66.5 199v589h232v-1024zM929 1475c0 -77.333 -17.166 -140.5 -51.499 -189.5
s-80.833 -73.5 -139.5 -73.5c-48 0 -103 16 -165 48c-52 30 -92.333 45 -121 45c-56 0 -84 -37 -84 -111h-115c0 79.333 17 142.833 51 190.5s81.667 71.5 143 71.5c45.333 0 97.666 -17 156.999 -51c48 -29.333 89.667 -44 125 -44c54 0 81 38 81 114h119z" />
    <glyph glyph-name="Umacron" unicode="&#x16a;" horiz-adv-x="1440" 
d="M1280 580c0 -402.667 -190.667 -604 -572 -604c-365.333 0 -548 193.667 -548 581v877h238v-828c0 -281.333 109.333 -422 328 -422c210.667 0 316 135.667 316 407v843h238v-854zM989 1566h-543v137h543v-137z" />
    <glyph glyph-name="umacron" unicode="&#x16b;" horiz-adv-x="1195" 
d="M1044 0h-232v162h-4c-67.333 -124 -172 -186 -314 -186c-242 0 -363 145.333 -363 436v612h232v-588c0 -184 71 -276 213 -276c68.667 0 125.167 25.333 169.5 76s66.5 117 66.5 199v589h232v-1024zM860 1204h-543v137h543v-137z" />
    <glyph glyph-name="Ubreve" unicode="&#x16c;" horiz-adv-x="1440" 
d="M1280 580c0 -402.667 -190.667 -604 -572 -604c-365.333 0 -548 193.667 -548 581v877h238v-828c0 -281.333 109.333 -422 328 -422c210.667 0 316 135.667 316 407v843h238v-854zM1020 1842c-7.33301 -82.667 -39.834 -149.332 -97.501 -199.999s-127.5 -76 -209.5 -76
c-86.667 0 -157.167 25.167 -211.5 75.5s-83.5 117.166 -87.5 200.499h136c8 -97.333 63.333 -146 166 -146c43.333 0 80.333 13.167 111 39.5s49.334 61.833 56.001 106.5h137z" />
    <glyph glyph-name="ubreve" unicode="&#x16d;" horiz-adv-x="1195" 
d="M1044 0h-232v162h-4c-67.333 -124 -172 -186 -314 -186c-242 0 -363 145.333 -363 436v612h232v-588c0 -184 71 -276 213 -276c68.667 0 125.167 25.333 169.5 76s66.5 117 66.5 199v589h232v-1024zM891 1480c-7.33301 -82.667 -39.834 -149.332 -97.501 -199.999
s-127.5 -76 -209.5 -76c-86.667 0 -157.167 25.167 -211.5 75.5s-83.5 117.166 -87.5 200.499h136c8 -97.333 63.333 -146 166 -146c43.333 0 80.333 13.167 111 39.5s49.334 61.833 56.001 106.5h137z" />
    <glyph glyph-name="Uring" unicode="&#x16e;" horiz-adv-x="1440" 
d="M1280 580c0 -402.667 -190.667 -604 -572 -604c-365.333 0 -548 193.667 -548 581v877h238v-828c0 -281.333 109.333 -422 328 -422c210.667 0 316 135.667 316 407v843h238v-854zM705 1566c-62.667 0 -114.5 18 -155.5 54s-61.5 83.333 -61.5 142
c0 65.333 21 117.333 63 156s95.667 58 161 58c64 0 116.5 -19.5 157.5 -58.5s61.5 -88.833 61.5 -149.5c0 -58 -21.833 -106.167 -65.5 -144.5s-97.167 -57.5 -160.5 -57.5zM705 1876c-30 0 -54.833 -10 -74.5 -30s-29.5 -44.667 -29.5 -74c0 -69.333 34.667 -104 104 -104
c32 0 58.5 9.83301 79.5 29.5s31.5 44.5 31.5 74.5s-10.5 54.833 -31.5 74.5s-47.5 29.5 -79.5 29.5z" />
    <glyph glyph-name="uring" unicode="&#x16f;" horiz-adv-x="1195" 
d="M1044 0h-232v162h-4c-67.333 -124 -172 -186 -314 -186c-242 0 -363 145.333 -363 436v612h232v-588c0 -184 71 -276 213 -276c68.667 0 125.167 25.333 169.5 76s66.5 117 66.5 199v589h232v-1024zM586 1180c-62.667 0 -114.5 18 -155.5 54s-61.5 83.333 -61.5 142
c0 65.333 21 117.333 63 156s95.667 58 161 58c64 0 116.5 -19.5 157.5 -58.5s61.5 -88.833 61.5 -149.5c0 -58 -21.833 -106.167 -65.5 -144.5s-97.167 -57.5 -160.5 -57.5zM586 1490c-30 0 -54.833 -10 -74.5 -30s-29.5 -44.667 -29.5 -74c0 -69.333 34.667 -104 104 -104
c32 0 58.5 9.83301 79.5 29.5s31.5 44.5 31.5 74.5s-10.5 54.833 -31.5 74.5s-47.5 29.5 -79.5 29.5z" />
    <glyph glyph-name="Uhungarumlaut" unicode="&#x170;" horiz-adv-x="1440" 
d="M1280 580c0 -402.667 -190.667 -604 -572 -604c-365.333 0 -548 193.667 -548 581v877h238v-828c0 -281.333 109.333 -422 328 -422c210.667 0 316 135.667 316 407v843h238v-854zM1160 1884l-248 -318h-148l211 318h185zM854 1884l-243 -318h-148l208 318h183z" />
    <glyph glyph-name="uhungarumlaut" unicode="&#x171;" horiz-adv-x="1195" 
d="M1044 0h-232v162h-4c-67.333 -124 -172 -186 -314 -186c-242 0 -363 145.333 -363 436v612h232v-588c0 -184 71 -276 213 -276c68.667 0 125.167 25.333 169.5 76s66.5 117 66.5 199v589h232v-1024zM1012 1522l-248 -318h-148l211 318h185zM706 1522l-243 -318h-148
l208 318h183z" />
    <glyph glyph-name="Uogonek" unicode="&#x172;" horiz-adv-x="1440" 
d="M1280 580c0 -402.667 -190.667 -604 -572 -604c-365.333 0 -548 193.667 -548 581v877h238v-828c0 -281.333 109.333 -422 328 -422c210.667 0 316 135.667 316 407v843h238v-854zM895 0c-100.667 -91.333 -151 -163.332 -151 -215.999c0 -45.333 21.667 -68 65 -68
c24 0 46.667 4.33301 68 13v-121c-25.333 -10.667 -60.333 -16 -105 -16c-52 0 -93.833 14 -125.5 42s-47.5 66.667 -47.5 116c0 81.333 53.667 164.666 161 249.999h135z" />
    <glyph glyph-name="uogonek" unicode="&#x173;" horiz-adv-x="1195" 
d="M1044 0h-232v162h-4c-67.333 -124 -172 -186 -314 -186c-242 0 -363 145.333 -363 436v612h232v-588c0 -184 71 -276 213 -276c68.667 0 125.167 25.333 169.5 76s66.5 117 66.5 199v589h232v-1024zM949 0c-100.667 -91.333 -151 -163.332 -151 -215.999
c0 -45.333 21.667 -68 65 -68c24 0 46.667 4.33301 68 13v-121c-25.333 -10.667 -60.333 -16 -105 -16c-52 0 -93.833 14 -125.5 42s-47.5 66.667 -47.5 116c0 81.333 53.667 164.666 161 249.999h135z" />
    <glyph glyph-name="Wcircumflex" unicode="&#x174;" horiz-adv-x="1978" 
d="M1956 1434l-393.001 -1434h-269l-273 1003c-11.333 42.667 -18.333 89.334 -21 140.001h-4c-3.33301 -47.333 -11.333 -93.333 -24 -138l-274 -1005h-275l-401 1434h261l260 -1050c10.667 -44 17.334 -90 20.001 -138h5c2.66699 34 12 80 28 138l294 1050h245l272 -1058
c9.33301 -36 16.333 -78.667 21 -128h4c2 33.333 9.66699 77.333 23 132l255 1054h246zM1317 1566h-160l-161 211l-157 -211h-155l224 328h184z" />
    <glyph glyph-name="wcircumflex" unicode="&#x175;" horiz-adv-x="1549" 
d="M1528 1024l-302 -1024h-243l-186 694c-7.33301 26.667 -12 56.667 -14 90h-4c-1.33301 -22.667 -7.33301 -52 -18 -88l-202 -696h-238l-301 1024h240l186 -738c6 -22 10 -51.333 12 -88h7c2 28 7.33301 58 16 90l207 736h218l184 -741
c6 -23.333 10.333 -52.666 13 -87.999h7c1.33301 24.667 6.33301 54 15 88l182 741h221zM1100 1204h-160l-161 211l-157 -211h-155l224 328h184z" />
    <glyph glyph-name="Ycircumflex" unicode="&#x176;" horiz-adv-x="1182" 
d="M1176 1434l-470 -913v-521h-238v516l-458 918h271l282 -615c3.33301 -7.33301 13.333 -35 30 -83h3c6 21.333 17 49 33 83l295 615h252zM910 1566h-160l-161 211l-157 -211h-155l224 328h184z" />
    <glyph glyph-name="ycircumflex" unicode="&#x177;" horiz-adv-x="1041" 
d="M1038 1024l-462 -1188c-96 -212 -230.667 -318 -404 -318c-48.667 0 -89.334 4.33301 -122.001 13v193c36.667 -12 70 -18 100 -18c86.667 0 151.334 42.667 194.001 128l69 168l-407 1022h257l244 -744c2.66699 -9.33301 8.66699 -34 18 -74h5
c3.33301 15.333 9.33301 39.333 18 72l256 746h234zM847 1204h-160l-161 211l-157 -211h-155l224 328h184z" />
    <glyph glyph-name="Ydieresis" unicode="&#x178;" horiz-adv-x="1182" 
d="M1176 1434l-470 -913v-521h-238v516l-458 918h271l282 -615c3.33301 -7.33301 13.333 -35 30 -83h3c6 21.333 17 49 33 83l295 615h252zM802 1565c-33.333 0 -62.166 11.001 -86.499 33.001s-36.5 50 -36.5 84c0 32.667 11.667 60 35 82s51.666 33 84.999 33
c35.333 0 65.166 -11.167 89.499 -33.5s36.5 -49.5 36.5 -81.5c0 -32.667 -11.667 -60.334 -35 -83.001s-52.666 -34 -87.999 -34zM386 1565c-34.667 0 -64.333 11.501 -89 34.501s-37 50.5 -37 82.5c0 32.667 11.833 60 35.5 82s52.5 33 86.5 33s63.5 -11.167 88.5 -33.5
s37.5 -49.5 37.5 -81.5c0 -32.667 -12 -60.334 -36 -83.001s-52.667 -34 -86 -34z" />
    <glyph glyph-name="Zacute" unicode="&#x179;" horiz-adv-x="1202" 
d="M1155 1330l-786 -1129h776v-201h-1109v109l789 1123h-728v202h1058v-104zM940 1909l-286 -328h-172l242 328h216z" />
    <glyph glyph-name="zacute" unicode="&#x17a;" horiz-adv-x="951" 
d="M907 927l-553 -746h551v-181h-876v87l565 756h-511v181h824v-97zM815 1546l-286 -328h-172l242 328h216z" />
    <glyph glyph-name="Zdotaccent" unicode="&#x17b;" horiz-adv-x="1202" 
d="M1155 1330l-786 -1129h776v-201h-1109v109l789 1123h-728v202h1058v-104zM614 1565c-33.333 0 -62.167 11.168 -86.5 33.501s-36.5 49.833 -36.5 82.5c0 32 12 59 36 81s53 33 87 33s63 -10.833 87 -32.5s36 -48.834 36 -81.501c0 -32 -12 -59.333 -36 -82
s-53 -34 -87 -34z" />
    <glyph glyph-name="zdotaccent" unicode="&#x17c;" horiz-adv-x="951" 
d="M907 927l-553 -746h551v-181h-876v87l565 756h-511v181h824v-97zM496 1203c-33.333 0 -62.167 11.168 -86.5 33.501s-36.5 49.833 -36.5 82.5c0 32 12 59 36 81s53 33 87 33s63 -10.833 87 -32.5s36 -48.834 36 -81.501c0 -32 -12 -59.333 -36 -82s-53 -34 -87 -34z" />
    <glyph glyph-name="Zcaron" unicode="&#x17d;" horiz-adv-x="1202" 
d="M1155 1330l-786 -1129h776v-201h-1109v109l789 1123h-728v202h1058v-104zM940 1878l-224 -327h-185l-224 327h155l160 -210l161 210h157z" />
    <glyph glyph-name="zcaron" unicode="&#x17e;" horiz-adv-x="951" 
d="M907 927l-553 -746h551v-181h-876v87l565 756h-511v181h824v-97zM822 1531l-224 -327h-185l-224 327h155l160 -210l161 210h157z" />
    <glyph glyph-name="longs" unicode="&#x17f;" horiz-adv-x="548" 
d="M658 1328c-36 17.333 -73.334 26 -112.001 26c-108 0 -162 -64.667 -162 -194v-1160h-233v1172c0 112 34.333 201 103 267c68.667 66.667 157.667 100 267 100c54.667 0 100.334 -6.33301 137.001 -19v-192z" />
    <glyph glyph-name="uni0180" unicode="&#x180;" horiz-adv-x="1234" 
d="M386 134l-4 -0.000976562v-134h-231v1189h-141v169h141v158h231v-158h241v-169h-241v-334h4c77.333 127.333 190.333 191 339 191c131.333 0 234.666 -45.333 309.999 -136s113 -213.667 113 -369c0 -171.333 -40.667 -308.166 -122 -410.499
s-193.333 -153.5 -336 -153.5c-131.333 0 -232.666 52.333 -303.999 157zM380 555.999l0.000976562 -126.001c0 -75.333 23.667 -139.166 71 -191.499s107.666 -78.5 180.999 -78.5c86 0 153.833 33.333 203.5 100s74.5 158.667 74.5 276c0 102 -23 182 -69 240
s-108.667 87 -188 87c-82 0 -148 -29.167 -198 -87.5s-75 -131.5 -75 -219.5z" />
    <glyph glyph-name="uni0181" unicode="&#x181;" horiz-adv-x="1421" 
d="M360 0l-0.00195312 1243h-26c-59.333 0 -105.166 -16.167 -137.499 -48.5s-48.5 -75.5 -48.5 -129.5c0 -41.333 7 -81.333 21 -120h-215c-14 37.333 -21 78 -21 122c0 105.333 37.667 192.833 113 262.5s175.333 104.5 300 104.5h461
c140.667 0 252.334 -30.667 335.001 -92s124 -141.333 124 -240c0 -80 -23.167 -149.333 -69.5 -208s-110.5 -100.334 -192.5 -125.001v-4c98.667 -11.333 177.667 -47.5 237 -108.5s89 -140.167 89 -237.5c0 -124.667 -46.5 -225.667 -139.5 -303s-210.5 -116 -352.5 -116
h-478zM597.998 1243v-408.001h158c80.667 0 144 19.333 190 58s69 93.334 69 164.001c0 124 -81.667 186 -245 186h-172zM597.998 644v-454h204c88 0 156.333 20.667 205 62s73 98 73 170c0 148 -98.667 222 -296 222h-186z" />
    <glyph glyph-name="uni0182" unicode="&#x182;" horiz-adv-x="1236" 
d="M177 0v1434h836v-204h-598v-391h278c145.333 0 258.5 -34.667 339.5 -104s121.5 -167.666 121.5 -294.999c0 -136 -43.5 -243.333 -130.5 -322s-205.5 -118 -355.5 -118h-491zM415 649.999l0.000976562 -460h215c87.333 0 154.666 20.667 201.999 62s71 99 71 173
c0 150 -92.333 225 -277 225h-211z" />
    <glyph glyph-name="uni0183" unicode="&#x183;" horiz-adv-x="1234" 
d="M386 134l-4 -0.000976562v-134h-231v1516h856v-170h-625v-491h4c78.667 128.667 193.667 193 345 193c130 0 232 -45.667 306 -137s111 -214.666 111 -369.999c0 -170.667 -41.333 -307.5 -124 -410.5s-196 -154.5 -340 -154.5c-128.667 0 -228 52.667 -298 158z
M380 548.999l0.000976562 -120c0 -74.667 23.5 -138.167 70.5 -190.5s107.5 -78.5 181.5 -78.5c85.333 0 153 33.5 203 100.5s75 158.833 75 275.5c0 100 -23 179.5 -69 238.5s-108.667 88.5 -188 88.5c-80.667 0 -146.334 -29.833 -197.001 -89.5s-76 -134.5 -76 -224.5z
" />
    <glyph glyph-name="uni0184" unicode="&#x184;" horiz-adv-x="1242" 
d="M177 0v1085l-167 146v25l381 202h24v-620h275c146.667 0 260.667 -34.333 342 -103s122 -167 122 -295c0 -136 -43.5 -243.333 -130.5 -322s-205.5 -118 -355.5 -118h-491zM415 651v-462h215c87.333 0 154.5 20.833 201.5 62.5s70.5 99.5 70.5 173.5
c0 150.667 -89 226 -267 226h-220z" />
    <glyph glyph-name="uni0185" unicode="&#x185;" horiz-adv-x="1234" 
d="M386 134l-4 0.000976562v-134h-231v1146l-165 141v28l372 200h24v-660h4c79.333 126.667 195 190 347 190c129.333 0 230.833 -45.333 304.5 -136s110.5 -213.334 110.5 -368.001c0 -170 -41.5 -306.333 -124.5 -409s-196.833 -154 -341.5 -154
c-128 0 -226.667 52 -296 156zM380 556.001l0.000976562 -126.001c0 -75.333 23.667 -139.166 71 -191.499s107.666 -78.5 180.999 -78.5c86 0 153.833 33.333 203.5 100s74.5 158.667 74.5 276c0 102 -23 182 -69 240s-108.667 87 -188 87c-82 0 -148 -29.167 -198 -87.5
s-75 -131.5 -75 -219.5z" />
    <glyph glyph-name="uni0186" unicode="&#x186;" horiz-adv-x="1274" 
d="M98 32l-0.000976562 238c100.667 -57.333 212 -86 334 -86c150.667 0 273 49.667 367 149s141 231.333 141 396c0 159.333 -44.167 285.833 -132.5 379.5s-204.5 140.5 -348.5 140.5c-139.333 0 -259.666 -31.333 -360.999 -94v223c108 53.333 242.667 80 404 80
c207.333 0 373.666 -65.5 498.999 -196.5s188 -302.833 188 -515.5c0 -230 -69.833 -415.833 -209.5 -557.5s-318.167 -212.5 -535.5 -212.5c-139.333 0 -254.666 18.667 -345.999 56z" />
    <glyph glyph-name="uni0187" unicode="&#x187;" horiz-adv-x="1274" 
d="M1386 1453c-32 15.333 -61.667 22.999 -89 22.999c-84.667 0 -127 -55.667 -127 -167c0 -39.333 4.66699 -87.666 14 -144.999l-9 -6c-111.333 60.667 -229 91 -353 91c-144 0 -261.167 -49.667 -351.5 -149s-135.5 -231.333 -135.5 -396
c0 -158.667 44.167 -285 132.5 -379s204.166 -141 347.499 -141c139.333 0 260 31.333 362 94v-222c-108 -53.333 -242.333 -80 -403 -80c-208.667 0 -375.667 65.5 -501 196.5s-188 302.833 -188 515.5c0 229.333 69.5 415 208.5 557s315.833 213 530.5 213
c58 0 116.667 -8 176 -24c2 62 28.333 115.5 79 160.5s115.334 67.5 194.001 67.5c38 0 75.667 -6.66699 113 -20v-189z" />
    <glyph glyph-name="uni0188" unicode="&#x188;" horiz-adv-x="968" 
d="M1083 1049c-26.667 14 -52.334 21 -77.001 21c-79.333 0 -119 -51.667 -119 -155c0 -52 3 -92.333 9 -121l-8 -5c-90.667 49.333 -174.334 74 -251.001 74c-93.333 0 -169.166 -32.667 -227.499 -98s-87.5 -152.333 -87.5 -261c0 -106.667 28.833 -190.667 86.5 -252
s135.167 -92 232.5 -92c86 0 167 27.333 243 82v-200c-82 -44 -179.667 -66 -293 -66c-152.667 0 -275.167 47.5 -367.5 142.5s-138.5 218.5 -138.5 370.5c0 160 49.333 293.167 148 399.5s226.667 159.5 384 159.5c43.333 0 84 -5 122 -15
c1.33301 58 24.833 107.167 70.5 147.5s102.834 60.5 171.501 60.5c31.333 0 65.333 -6.33301 102 -19v-173z" />
    <glyph glyph-name="uni0189" unicode="&#x189;" horiz-adv-x="1469" 
d="M177 0l0.000976562 616.001h-162v205h162v613h414c528.667 0 793 -233 793 -699c0 -222.667 -73.333 -400.834 -220 -534.501s-343.334 -200.5 -590.001 -200.5h-397zM414.001 1232v-411h307v-205h-307v-415h190c167.333 0 297.5 46 390.5 138s139.5 222.667 139.5 392
c0 334 -173.667 501 -521 501h-199z" />
    <glyph glyph-name="uni018A" unicode="&#x18a;" horiz-adv-x="1653" 
d="M360 0l-0.000976562 1232h-26c-59.333 0 -105.166 -15.667 -137.499 -47s-48.5 -73 -48.5 -125c0 -40 7 -78.333 21 -115h-215c-15.333 41.333 -23 86 -23 134c0 102 37.833 186.667 113.5 254s176.167 101 301.5 101h418c535.333 0 803 -233 803 -699
c0 -221.333 -69.667 -399.166 -209 -533.499s-326.333 -201.5 -561 -201.5h-437zM597.999 1232v-1031h190c167.333 0 297.333 46 390 138s139 222.667 139 392c0 334 -173.333 501 -520 501h-199z" />
    <glyph glyph-name="uni018B" unicode="&#x18b;" horiz-adv-x="1236" 
d="M1058 0l-502.001 0.000976562c-153.333 0 -270.666 34.333 -351.999 103s-122 167.667 -122 297c0 133.333 45.167 239.666 135.5 318.999s211.833 119 364.5 119h238v391h-599v205h837v-1434zM819.999 187.001v463h-212c-183.333 0 -275 -79 -275 -237
c0 -150.667 89.333 -226 268 -226h219z" />
    <glyph glyph-name="uni018C" unicode="&#x18c;" horiz-adv-x="1234" 
d="M1082 0h-231.001v159h-4c-72.667 -122 -184.667 -183 -336 -183c-129.333 0 -232.666 45.833 -309.999 137.5s-116 216.5 -116 374.5c0 169.333 42.5 305 127.5 407s198.5 153 340.5 153c134.667 0 232.667 -51.667 294 -155h4v453h-625v170h856v-1516zM852.999 464
v131.999c0 74.667 -24 137.834 -72 189.501s-108.667 77.5 -182 77.5c-86 0 -153.667 -32.5 -203 -97.5s-74 -154.833 -74 -269.5c0 -104 23.833 -186 71.5 -246s111.834 -90 192.501 -90c79.333 0 143.666 28.833 192.999 86.5s74 130.167 74 217.5z" />
    <glyph glyph-name="uni018D" unicode="&#x18d;" horiz-adv-x="1230" 
d="M796 96c72 -54 120.667 -101.334 146 -142.001s38 -87 38 -139c0 -84 -38.5 -154.333 -115.5 -211s-176.5 -85 -298.5 -85c-122.667 0 -235 26.333 -337 79v223c102 -74.667 211.333 -112 328 -112c125.333 0 188 37.333 188 112c0 30.667 -14.333 59.834 -43 87.501
s-108 76.834 -238 147.501c-136.667 81.333 -234 161.666 -292 240.999s-87 166 -87 260c0 141.333 50.333 258.5 151 351.5s230 139.5 388 139.5c154 0 279.167 -44.667 375.5 -134s144.5 -201.333 144.5 -336c0 -182 -116 -342.667 -348 -482zM623 199.999
c108.667 64 183.167 125.167 223.5 183.5s60.5 120.833 60.5 187.5c0 89.333 -26.5 160.333 -79.5 213s-123.833 79 -212.5 79c-88 0 -158.833 -26.5 -212.5 -79.5s-80.5 -123.833 -80.5 -212.5c0 -63.333 19 -122.5 57 -177.5s119.333 -119.5 244 -193.5z" />
    <glyph glyph-name="uni018E" unicode="&#x18e;" horiz-adv-x="1061" 
d="M884 0h-805v201h567v414h-496v202h496v415h-534v202h772v-1434z" />
    <glyph glyph-name="uni018F" unicode="&#x18f;" horiz-adv-x="1512" 
d="M82 819l1090 -0.000976562c-10.667 134.667 -60.167 241 -148.5 319s-200.833 117 -337.5 117c-156.667 0 -291.667 -40.333 -405 -121v219c118.667 70 262.667 105 432 105c222 0 396.5 -65 523.5 -195s190.5 -309.333 190.5 -538
c0 -216.667 -63.333 -395.667 -190 -537s-295 -212 -505 -212c-208 0 -368.333 71.333 -481 214s-169 352.334 -169 629.001zM1172 619.999h-834c2.66699 -134.667 39.5 -242.167 110.5 -322.5s167.5 -120.5 289.5 -120.5c123.333 0 223.5 40 300.5 120
s121.5 187.667 133.5 323z" />
    <glyph glyph-name="uni0190" unicode="&#x190;" horiz-adv-x="1124" 
d="M1038 48c-111.333 -48 -236.668 -72.001 -376.001 -72.001c-175.333 0 -313.5 37.5 -414.5 112.5s-151.5 174.833 -151.5 299.5c0 86.667 27 162.167 81 226.5s129 108.833 225 133.5v6c-170.667 52 -256 155.667 -256 311c0 113.333 49.333 207.166 148 281.499
s226.334 111.5 383.001 111.5c121.333 0 231.333 -22 330 -66v-221c-100.667 52 -208.667 78 -324 78c-87.333 0 -157.333 -18 -210 -54s-79 -84.333 -79 -145c0 -61.333 32 -112.166 96 -152.499s150 -60.5 258 -60.5h99v-204h-102c-265.333 0 -398 -75.667 -398 -227
c0 -69.333 29.667 -123.666 89 -162.999s140 -59 242 -59c130.667 0 250.667 28 360 84v-220z" />
    <glyph glyph-name="uni0191" unicode="&#x191;" horiz-adv-x="1030" 
d="M950 1232h-536v-432h495v-201h-495v-546c0 -290.667 -127.333 -436 -382 -436c-50 0 -96 7.66699 -138 23v214c34 -19.333 72 -29 114 -29c112.667 0 169 76.333 169 229v1380h773v-202z" />
    <glyph glyph-name="florin" unicode="&#x192;" horiz-adv-x="1137" 
d="M993 1225c-35.333 18.667 -75.002 28 -119.002 28c-92 0 -145.333 -50 -160 -150l-27 -176h162v-172h-189l-97 -635c-41.333 -273.333 -165.666 -410 -372.999 -410c-23.333 0 -57.666 6 -102.999 18v188c22.667 -14 50 -21 82 -21c96 0 156.333 90 181 270l88 590h-104
v172h133l20 148c13.333 110 53 198.167 119 264.5s150 99.5 252 99.5c49.333 0 94.333 -8 135 -24v-190z" />
    <glyph glyph-name="uni0193" unicode="&#x193;" horiz-adv-x="1435" 
d="M1458 1453c-30.667 15.333 -59.665 22.9971 -86.998 22.9971c-86.667 0 -130 -55.667 -130 -167c0 -48 5 -99.667 15 -155l-8 -6c-127.333 70 -261.333 105 -402 105c-150 0 -272.5 -50.167 -367.5 -150.5s-142.5 -231.166 -142.5 -392.499
c0 -164.667 43.167 -294 129.5 -388s203.166 -141 350.499 -141c93.333 0 174.333 19 243 57v341h-302v200h541v-682c-149.333 -80.667 -316 -121 -500 -121c-212.667 0 -384.667 65.833 -516 197.5s-197 305.834 -197 522.501c0 222.667 72.333 405.334 217 548.001
s328 214 550 214c74 0 147.333 -10 220 -30c2 64 28.5 119 79.5 165s115.833 69 194.5 69c37.333 0 74.666 -6.66699 111.999 -20v-189z" />
    <glyph glyph-name="uni0194" unicode="&#x194;" horiz-adv-x="1315" 
d="M1301 1434l-490.001 -1250l7 -13c90 -166.667 135 -290 135 -370c0 -79.333 -25.833 -146.333 -77.5 -201s-127.5 -82 -227.5 -82c-83.333 0 -153.166 26.667 -209.499 80s-84.5 121 -84.5 203c0 44 8 87.333 24 130s53.667 120 113 232l9 17l-486 1254h264l334 -927
c20.667 -54 34.667 -106.333 42 -157h6c12 51.333 27 102 45 152l341 932h255zM652.999 5c-46 -90 -69 -156.333 -69 -199c0 -62 23 -93 69 -93c46.667 0 70 31 70 93c0 42.667 -23.333 109 -70 199z" />
    <glyph glyph-name="uni0195" unicode="&#x195;" horiz-adv-x="1845" 
d="M383 0l-232.001 0.000976562v1516h232v-650h4c68 118 172.333 177 313 177c224 0 336 -137.667 336 -413v-161c0 -201.333 73.333 -302 220 -302c74.667 0 134.334 28.167 179.001 84.5s67 131.833 67 226.5c0 186.667 -46 368.667 -138 546h245
c82.667 -177.333 124 -357.333 124 -540c0 -152.667 -45 -275.5 -135 -368.5s-206.667 -139.5 -350 -139.5c-296 0 -444 157.333 -444 472v137c0 98 -15 168.833 -45 212.5s-80.667 65.5 -152 65.5c-65.333 0 -119 -25.833 -161 -77.5s-63 -118.834 -63 -201.501v-584z" />
    <glyph glyph-name="uni0196" unicode="&#x196;" horiz-adv-x="672" 
d="M631 8c-54 -19.333 -107.667 -29 -161 -29c-196.667 0 -295 116.667 -295 350v1105h238v-1110c0 -91.333 40 -137 120 -137c34 0 66.667 8.33301 98 25v-204z" />
    <glyph glyph-name="uni0197" unicode="&#x197;" horiz-adv-x="643" 
d="M602 622h-162v-622h-238v622h-161v209h161v603h238v-603h162v-209z" />
    <glyph glyph-name="uni0198" unicode="&#x198;" horiz-adv-x="1251" 
d="M1262 0h-312.001l-497 649c-18.667 24 -30 40.333 -34 49h-5v-698h-237v1434h237v-671h5l308 418c91.333 124.667 161 202 209 232s102 45 162 45c41.333 0 82.333 -8.66699 123 -26v-214c-33.333 20 -68.333 30 -105 30c-47.333 0 -105.666 -46.667 -174.999 -140
l-281 -366z" />
    <glyph glyph-name="uni0199" unicode="&#x199;" horiz-adv-x="1076" 
d="M1080 0l-294.001 0.000976562l-399 499h-4v-499h-232v1172c0 111.333 32.333 200.166 97 266.499s147.334 99.5 248.001 99.5c56.667 0 103.667 -6.66699 141 -20v-192c-36.667 18 -72.667 27 -108 27c-97.333 0 -146 -62 -146 -186v-614h4l374 471h287l-427 -489z" />
    <glyph glyph-name="uni019A" unicode="&#x19a;" horiz-adv-x="573" 
d="M552 699h-149v-699h-233v699h-150v169h150v648h233v-648h149v-169z" />
    <glyph glyph-name="uni019B" unicode="&#x19b;" horiz-adv-x="1067" 
d="M1040 0l-244.999 0.000976562l-244 774l-299 -774h-251l456 1011l-17 45l-249 -122l-65 128l267 128c-33.333 82.667 -82 124 -146 124c-44 0 -87.333 -9 -130 -27v206c49.333 13.333 102.666 20 159.999 20c76 0 137.333 -16.833 184 -50.5s89.667 -92.834 129 -177.501
l222 108l63 -127l-233 -113z" />
    <glyph glyph-name="uni019C" unicode="&#x19c;" horiz-adv-x="1901" 
d="M1723 0l-236.002 -0.000976562v173h-4c-74 -131.333 -183.333 -197 -328 -197c-147.333 0 -245.666 71.667 -294.999 215c-76.667 -143.333 -192 -215 -346 -215c-227.333 0 -341 154 -341 462v996h237v-939c0 -104.667 14.833 -181.834 44.5 -231.501
s80.834 -74.5 153.501 -74.5c61.333 0 113.5 28.833 156.5 86.5s64.5 126.834 64.5 207.501v951h238v-972c0 -180 63 -270 189 -270c66 0 120.5 27.333 163.5 82s64.5 125.334 64.5 212.001v948h239v-1434z" />
    <glyph glyph-name="uni019D" unicode="&#x19d;" horiz-adv-x="1571" 
d="M1394 0l-261.001 -0.000976562l-687 1054c-17.333 26.667 -31.666 54.334 -42.999 83.001h-6c6 -28 9 -88.333 9 -181v-901c0 -290 -124.667 -435 -374 -435c-50 0 -96 7.66699 -138 23v213c34 -18.667 72 -28 114 -28c112.667 0 169 86 169 258v1348h276l662 -1030
c27.333 -42.667 45 -72 53 -88h4c-6 38 -9 102.333 -9 193v925h231v-1434z" />
    <glyph glyph-name="uni019E" unicode="&#x19e;" horiz-adv-x="1204" 
d="M1063 -434l-234 0.000976562v1004c0 191.333 -68.333 287 -205 287c-70.667 0 -128.5 -28.167 -173.5 -84.5s-67.5 -126.833 -67.5 -211.5v-561h-232v669c0 171.333 -6.66699 289.666 -20 354.999h235c11.333 -46 17 -102.333 17 -169h2c73.333 128.667 185 193 335 193
c110.667 0 195.5 -35.833 254.5 -107.5s88.5 -175.5 88.5 -311.5v-1063z" />
    <glyph glyph-name="uni019F" unicode="&#x19f;" horiz-adv-x="1548" 
d="M766 -24c-206 0 -370.999 66.8311 -494.999 200.498s-186 307.834 -186 522.501c0 230.667 63.167 414.834 189.5 552.501s298.166 206.5 515.499 206.5c202 0 364.667 -67 488 -201s185 -309.333 185 -526c0 -232.667 -63.167 -416.667 -189.5 -552
s-295.5 -203 -507.5 -203zM1207 811.998c-10.667 139.333 -53.332 247 -127.999 323s-174.334 114 -299.001 114c-120.667 0 -220.667 -39.667 -300 -119s-125.333 -185.333 -138 -318h865zM1208 616.998h-866c12 -132.667 56.833 -238 134.5 -316s175.5 -117 293.5 -117
c126.667 0 228.667 37.833 306 113.5s121.333 182.167 132 319.5z" />
    <glyph glyph-name="Ohorn" unicode="&#x1a0;" horiz-adv-x="1575" 
d="M1161 1356c32 -6.66699 58.668 -10 80.001 -10c136 0 204 43.667 204 131c0 44.667 -6.66699 85 -20 121h161c14 -36 21 -80.667 21 -134c0 -73.333 -23.333 -132.833 -70 -178.5s-110.667 -68.5 -192 -68.5h-34c101.333 -128 152 -288.667 152 -482
c0 -234 -63.167 -419 -189.5 -555s-295.5 -204 -507.5 -204c-206 0 -371 67 -495 201s-186 308.333 -186 523c0 230.667 63.167 414.667 189.5 552s298.166 206 515.499 206c142 0 265.667 -34 371 -102zM778.001 1249c-132 0 -239.002 -49.1689 -321.002 -147.502
s-123 -227.166 -123 -386.499s40 -287.666 120 -384.999s184 -146 312 -146c138.667 0 247.834 46.333 327.501 139s119.5 222.334 119.5 389.001c0 171.333 -38.667 303.666 -116 396.999s-183.666 140 -318.999 140z" />
    <glyph glyph-name="ohorn" unicode="&#x1a1;" horiz-adv-x="1253" 
d="M1047 1276h160.001c14 -36.667 21 -81.334 21 -134.001c0 -132 -74.333 -211.667 -223 -239c88.667 -92.667 133 -221.667 133 -387c0 -163.333 -48.167 -294.166 -144.5 -392.499s-225.5 -147.5 -387.5 -147.5c-158 0 -284.333 47.833 -379 143.5s-142 222.5 -142 380.5
c0 172 48.667 306.333 146 403s228.666 145 393.999 145c30 0 72 -4.66699 126 -14c38 -6.66699 91.333 -10 160 -10c44 0 80.833 12.667 110.5 38s44.5 56 44.5 92c0 45.333 -6.33301 86 -19 122zM616.001 863c-90 0 -161.332 -31.668 -213.999 -95.001
s-79 -150.666 -79 -261.999c0 -107.333 26.667 -191.833 80 -253.5s124.666 -92.5 213.999 -92.5c91.333 0 161.5 30.333 210.5 91s73.5 147 73.5 259c0 112.667 -24.5 199.667 -73.5 261s-119.5 92 -211.5 92z" />
    <glyph glyph-name="uni01A2" unicode="&#x1a2;" horiz-adv-x="2065" 
d="M1888 0l-238 0.000976562v1200c-74.667 -12 -153.334 -18 -236.001 -18c-34.667 0 -77 3 -127 9v-1094c-173.333 -80.667 -341 -121 -503 -121c-212 0 -381.5 66.5 -508.5 199.5s-190.5 307.5 -190.5 523.5c0 221.333 66.833 403.166 200.5 545.499
s307.834 213.5 522.501 213.5c80 0 188.333 -12 325 -36c136 -24.667 242.667 -37 320 -37c155.333 0 300.333 24.333 435 73v-1458zM1050 229.001l-0.000976562 995c-113.333 16.667 -196.333 25 -249 25c-137.333 0 -249.166 -49.333 -335.499 -148
s-129.5 -228 -129.5 -388c0 -160.667 42.167 -289.5 126.5 -386.5s195.5 -145.5 333.5 -145.5c90 0 174.667 16 254 48z" />
    <glyph glyph-name="uni01A3" unicode="&#x1a3;" horiz-adv-x="1675" 
d="M1524 0h-229.001v813c-53.333 -10.667 -104.333 -16 -153 -16c-47.333 0 -94 3 -140 9v-748c-126 -54.667 -255.333 -82 -388 -82c-160.667 0 -289 47.333 -385 142s-144 223 -144 385c0 166.667 50.833 299.167 152.5 397.5s233.834 147.5 396.501 147.5
c61.333 0 147.333 -11 258 -33s196.667 -33 258 -33c126 0 250.667 22 374 66v-1048zM775.999 185l-0.000976562 660.001c-64.667 12 -115 18 -151 18c-91.333 0 -165.166 -31.5 -221.499 -94.5s-84.5 -149.833 -84.5 -260.5c0 -108.667 28.167 -193.834 84.5 -255.501
s132.5 -92.5 228.5 -92.5c57.333 0 105.333 8.33301 144 25z" />
    <glyph glyph-name="uni01A4" unicode="&#x1a4;" horiz-adv-x="1382" 
d="M598 520v-520h-238v1238h-26c-59.333 0 -105.166 -16.167 -137.499 -48.5s-48.5 -75.5 -48.5 -129.5c0 -40 6.66699 -78.333 20 -115h-214c-15.333 41.333 -23 86 -23 134c0 102 37.833 186.667 113.5 254s176.167 101 301.5 101h410
c177.333 0 314.666 -38.667 411.999 -116s146 -186 146 -326c0 -137.333 -47.5 -250.333 -142.5 -339s-222.833 -133 -383.5 -133h-190zM598 1238v-524h154c208.667 0 313 89.667 313 269c0 170 -98 255 -294 255h-173z" />
    <glyph glyph-name="uni01A5" unicode="&#x1a5;" horiz-adv-x="1234" 
d="M387 134l-3.99902 -0.00195312v-605h-232v1643c0 110.667 31.5 199.334 94.5 266.001s144.167 100 243.5 100c59.333 0 108.666 -6.66699 147.999 -20v-192c-36.667 18 -72.667 27 -108 27c-97.333 0 -146 -62 -146 -186v-312h4c76 128.667 190.333 193 343 193
c130.667 0 233 -45.667 307 -137s111 -214.666 111 -369.999c0 -171.333 -41.5 -308.333 -124.5 -411s-196.5 -154 -340.5 -154c-129.333 0 -228 52.667 -296 158zM381.001 550.998l0.00195312 -116c0 -76 23.667 -140.833 71 -194.5s107.666 -80.5 180.999 -80.5
c86.667 0 154.5 33.5 203.5 100.5s73.5 160.5 73.5 280.5c0 100.667 -23 179.5 -69 236.5s-108.333 85.5 -187 85.5c-80.667 0 -146.334 -29.5 -197.001 -88.5s-76 -133.5 -76 -223.5z" />
    <glyph glyph-name="uni01A6" unicode="&#x1a6;" horiz-adv-x="1235" 
d="M1192 -171l-277 0.000976562l-179 413c-54 133.333 -128 200 -222 200h-100v-442h-237v1434h237v-172h225c149.333 0 266 -34.5 350 -103.5s126 -162.5 126 -280.5c0 -192.667 -107 -314.667 -321 -366v-4c66.667 -38.667 127 -110.334 181 -215.001zM414 1068v-434h182
c82 0 147.167 19 195.5 57s72.5 91.333 72.5 160c0 144.667 -83.667 217 -251 217h-199z" />
    <glyph glyph-name="uni01A7" unicode="&#x1a7;" horiz-adv-x="1115" 
d="M1004 57c-20 -12.667 -46.3271 -24.001 -78.9941 -34.001s-67.5 -18.5 -104.5 -25.5s-73 -12.333 -108 -16s-64.833 -5.5 -89.5 -5.5c-70.667 0 -138.334 7.16699 -203.001 21.5s-121.834 37.5 -171.501 69.5s-89 73.833 -118 125.5s-43.5 114.5 -43.5 188.5
c0 54.667 10.167 102.834 30.5 144.501s47.666 79.834 81.999 114.501s74.333 66.167 120 94.5s93.834 55.5 144.501 81.5l124.5 60c35.667 18 66 36.667 91 56s44 41 57 65s19.5 52 19.5 84c0 32.667 -8.16699 60.334 -24.5 83.001s-37.5 41.167 -63.5 55.5
s-55.333 24.666 -88 30.999s-66 9.5 -100 9.5c-135.333 0 -246 -29.333 -332 -88v235c70 34 180.333 51 331 51c65.333 0 129.666 -8 192.999 -24s119.666 -40.5 168.999 -73.5s89.166 -74.833 119.499 -125.5s45.5 -110.334 45.5 -179.001
c0 -54 -8.83301 -100.833 -26.5 -140.5s-42.167 -75.334 -73.5 -107.001s-68 -60.667 -110 -87s-87.333 -52.166 -136 -77.499l-128.5 -61c-39.667 -19.333 -74 -39.666 -103 -60.999s-51.667 -44.833 -68 -70.5s-24.5 -55.834 -24.5 -90.501
c0 -60.667 23.167 -107.167 69.5 -139.5s116.166 -48.5 209.499 -48.5c30 0 63 3 99 9s71.667 14.667 107 26s69 25.333 101 42s59.333 35 82 55v-248z" />
    <glyph glyph-name="uni01A8" unicode="&#x1a8;" horiz-adv-x="883" 
d="M796 32c-82 -37.333 -178.998 -55.999 -290.998 -55.999c-56.667 0 -111.334 6.33301 -164.001 19s-99.167 32.167 -139.5 58.5s-72.5 59.166 -96.5 98.499s-36 86 -36 140c0 41.333 6.66699 77 20 107s32.333 56.5 57 79.5s54.834 43.667 90.501 62
s75.167 36.166 118.5 53.499c32.667 11.333 62 22 88 32s48 21 66 33s31.667 25.667 41 41s14 34.666 14 57.999c0 17.333 -4.33301 33.333 -13 48s-20.834 27.167 -36.501 37.5s-34.5 18.333 -56.5 24s-46.667 8.5 -74 8.5c-98.667 0 -185.667 -24 -261 -72v201
c75.333 28.667 160.333 43 255 43c53.333 0 105 -6.66699 155 -20s94.5 -33 133.5 -59s70.167 -58.333 93.5 -97s35 -83 35 -133c0 -39.333 -5.5 -73.666 -16.5 -102.999s-27.5 -55.666 -49.5 -78.999s-49.5 -44.166 -82.5 -62.499s-71.167 -36.5 -114.5 -54.5l-91.5 -32
c-28.333 -10 -53 -21.333 -74 -34s-37.667 -27.334 -50 -44.001s-18.5 -37 -18.5 -61c0 -80.667 66.667 -121 200 -121c109.333 0 208.666 32 297.999 96v-212z" />
    <glyph glyph-name="uni01A9" unicode="&#x1a9;" horiz-adv-x="1106" 
d="M1061 0h-1017v120l464 613l-429 568v133h920v-205h-581l368 -487l-404 -544h679v-198z" />
    <glyph glyph-name="uni01AA" unicode="&#x1aa;" horiz-adv-x="754" 
d="M776 -447c-45.333 -23.333 -104.333 -35 -177 -35c-195.333 0 -293 108.667 -293 326v1149c-44.667 -20 -93 -30 -145 -30c-80 0 -147.5 26.667 -202.5 80s-82.5 120.666 -82.5 201.999c0 82 30 151.5 90 208.5s135 85.5 225 85.5c108 0 192.667 -34.167 254 -102.5
s92 -162.166 92 -281.499v-1269c0 -121.333 45.667 -182 137 -182c37.333 0 71.333 10.333 102 31v-182zM306 1177l0.000976562 13.001c0 110.667 -39.667 166 -119 166c-29.333 0 -53.833 -10 -73.5 -30s-29.5 -44.333 -29.5 -73s10.833 -52.834 32.5 -72.501
s49.5 -29.5 83.5 -29.5c37.333 0 72.666 8.66699 105.999 26z" />
    <glyph glyph-name="uni01AB" unicode="&#x1ab;" horiz-adv-x="741" 
d="M690 -52c0 -101.333 -29.165 -181.834 -87.498 -241.501s-135.5 -89.5 -231.5 -89.5c-47.333 0 -91.333 9 -132 27v182c37.333 -21.333 77.666 -32 120.999 -32c91.333 0 137 48.333 137 145v37c-189.333 0 -284 120.667 -284 362v504h-171v182h171v236l231 70v-306h246
v-182h-246v-505c0 -63.333 10.667 -108.666 32 -135.999s57.666 -41 108.999 -41c39.333 0 74.333 10.667 105 32v-244z" />
    <glyph glyph-name="uni01AC" unicode="&#x1ac;" horiz-adv-x="1178" 
d="M1143 1232h-412v-1232h-238v1232h-142c-55.333 0 -98.5 -15.167 -129.5 -45.5s-46.5 -71.5 -46.5 -123.5c0 -37.333 6.33301 -73 19 -107h-209c-14.667 38.667 -22 80.667 -22 126c0 102 37.5 186.167 112.5 252.5s174.833 99.5 299.5 99.5h768v-202z" />
    <glyph glyph-name="uni01AD" unicode="&#x1ad;" horiz-adv-x="741" 
d="M691 6c-45.333 -19.333 -104.999 -29.001 -178.999 -29.001c-198.667 0 -298 107 -298 321v544h-172v182h172v192c0 98.667 28 177.167 84 235.5s132 87.5 228 87.5c58.667 0 113.667 -10.333 165 -31v-187c-38 22 -77 33 -117 33c-86 0 -129 -61.333 -129 -184v-146h246
v-182h-246v-504c0 -63.333 10.667 -108.666 32 -135.999s57.666 -41 108.999 -41c39.333 0 74.333 10.667 105 32v-187z" />
    <glyph glyph-name="uni01AE" unicode="&#x1ae;" horiz-adv-x="1132" 
d="M1097 1232h-412v-1177c0 -153.333 55 -230 165 -230c46 0 86 7.66699 120 23v-202c-44 -20 -95.667 -30 -155 -30c-245.333 0 -368 143 -368 429v1187h-412v202h1062v-202z" />
    <glyph glyph-name="Uhorn" unicode="&#x1af;" horiz-adv-x="1519" 
d="M1280 598c0 -414.667 -191.333 -622.003 -574 -622.003c-364.667 0 -547 201 -547 603v855h238v-851c0 -266 109 -399 327 -399c212 0 318 128.333 318 385v865h216c40 0 73.333 11.833 100 35.5s40 51.834 40 84.501c0 49.333 -6.33301 93.333 -19 132h161
c12 -37.333 18 -82.666 18 -135.999c0 -145.333 -92.667 -228.666 -278 -249.999v-702z" />
    <glyph glyph-name="uhorn" unicode="&#x1b0;" horiz-adv-x="1278" 
d="M1044 0l-231.999 -0.000976562v159h-4c-66.667 -120.667 -172.667 -181 -318 -181c-239.333 0 -359 145 -359 435v611h232v-588c0 -184 71.333 -276 214 -276c68.667 0 125 25.333 169 76s66 117 66 199v589h197c37.333 0 68.666 13 93.999 39s38 57.333 38 94
c0 44 -6.66699 83.667 -20 119h157c12 -35.333 18 -78 18 -128c0 -141.333 -84 -224.666 -252 -249.999v-898z" />
    <glyph glyph-name="uni01B1" unicode="&#x1b1;" horiz-adv-x="1555" 
d="M438 1235h-347.999v199h556v-199c-204.667 -156.667 -307 -351.334 -307 -584.001c0 -146 40.167 -260.667 120.5 -344s184.833 -125 313.5 -125c130.667 0 237 42.333 319 127s123 200.334 123 347.001c0 229.333 -102.333 422.333 -307 579v199h555v-199h-343
c232 -151.333 348 -355.333 348 -612c0 -198.667 -61.833 -356.167 -185.5 -472.5s-291.834 -174.5 -504.501 -174.5c-208 0 -374.667 57.667 -500 173s-188 274 -188 476c0 256.667 116 460 348 610z" />
    <glyph glyph-name="uni01B2" unicode="&#x1b2;" horiz-adv-x="1523" 
d="M175 1434l238.001 -0.000976562v-836c0 -276 106.333 -414 319 -414c134 0 244 60.333 330 181s129 269.334 129 446.001c0 294.667 -84.667 442 -254 442c-52.667 0 -102.334 -10.333 -149.001 -31v207c57.333 19.333 118.666 29 183.999 29
c140.667 0 252.834 -57.5 336.501 -172.5s125.5 -269.167 125.5 -462.5c0 -236 -67.333 -436.167 -202 -600.5s-305 -246.5 -511 -246.5c-364 0 -546 199.333 -546 598v860z" />
    <glyph glyph-name="uni01B3" unicode="&#x1b3;" horiz-adv-x="1212" 
d="M1204 1434l-471 -913v-521h-238v516l-294 599c-46.667 89.333 -100.667 134 -162 134c-37.333 0 -71.333 -9.33301 -102 -28v212c44.667 16.667 88.667 25 132 25c76 0 140.167 -17.5 192.5 -52.5s101.5 -99.833 147.5 -194.5l182 -391l32 -84h2
c6.66699 23.333 18 51 34 83l293 615h252z" />
    <glyph glyph-name="uni01B4" unicode="&#x1b4;" horiz-adv-x="1131" 
d="M1178 837c-34 16.667 -68.332 25 -102.999 25c-64.667 0 -118 -53.667 -160 -161l-336 -864c-96 -210.667 -232 -316 -408 -316c-50 0 -90.667 5.66699 -122 17v194c40 -18 78.333 -27 115 -27c82.667 0 144.667 47.667 186 143l70 158l-415 1018h258l244 -745
c6 -18 12.333 -42.667 19 -74h5c3.33301 17.333 9.66602 43 18.999 77l184 514c74 168 182 252 324 252c36.667 0 76.667 -7 120 -21v-190z" />
    <glyph glyph-name="uni01B5" unicode="&#x1b5;" horiz-adv-x="1202" 
d="M1155 1330l-348 -501h238v-201h-380l-296 -427h776v-201h-1109v109l363 519h-204v201h350l280 403h-729v202h1059v-104z" />
    <glyph glyph-name="uni01B6" unicode="&#x1b6;" horiz-adv-x="951" 
d="M907 927l-240 -323h165v-165h-287l-191 -258h551v-181h-876l1 89l262 350h-143v165h266l179 238h-511v182h824v-97z" />
    <glyph glyph-name="uni01B7" unicode="&#x1b7;" horiz-adv-x="1304" 
d="M24 -369l-0.00195312 243c155.333 -98 310 -147 464 -147c142.667 0 258.5 36 347.5 108s133.5 165.667 133.5 281c0 122 -49.5 216.833 -148.5 284.5s-235.833 101.5 -410.5 101.5h-90v125l482 605h-755v202h1084v-123l-495 -620
c176.667 -15.333 317.834 -74 423.501 -176s158.5 -233 158.5 -393c0 -175.333 -69.667 -319.833 -209 -433.5s-313.333 -170.5 -522 -170.5c-161.333 0 -315.666 37.667 -462.999 113z" />
    <glyph glyph-name="uni01B8" unicode="&#x1b8;" horiz-adv-x="1304" 
d="M1279 -369c-147.333 -75.333 -307.999 -112.999 -481.999 -112.999c-208.667 0 -379.5 54.167 -512.5 162.5s-199.5 250.166 -199.5 425.499c0 158.667 54 292 162 400s248 169.667 420 185l-495 620v123h1084v-202h-751l480 -605v-125h-116
c-164.667 0 -294.834 -34.333 -390.501 -103s-143.5 -163 -143.5 -283c0 -115.333 44.333 -209 133 -281s204 -108 346 -108c166.667 0 321.667 45 465 135v-231z" />
    <glyph glyph-name="uni01B9" unicode="&#x1b9;" horiz-adv-x="955" 
d="M983 -393c-109.333 -58 -235.667 -87 -379 -87c-170.667 0 -309.834 42 -417.501 126s-161.5 195 -161.5 333c0 118.667 40.5 220.5 121.5 305.5s189.167 137.167 324.5 156.5l-380 485v98h858v-182h-554l364 -476v-87h-102c-123.333 0 -220.166 -25.5 -290.499 -76.5
s-105.5 -121.5 -105.5 -211.5c0 -84 33.333 -152.667 100 -206s152 -80 256 -80c136 0 258 35.333 366 106v-204z" />
    <glyph glyph-name="uni01BA" unicode="&#x1ba;" horiz-adv-x="871" 
d="M693 -219l-0.000976562 -198.003c-91.333 -42.667 -199 -64 -323 -64c-119.333 0 -212.166 22.833 -278.499 68.5s-99.5 108.834 -99.5 189.501c0 139.333 108.333 245 325 317c98.667 30.667 167 61.334 205 92.001s57 71.334 57 122.001
c0 49.333 -24.333 88.166 -73 116.499s-117 42.5 -205 42.5h-83v97l258 282h-457v178h756v-114l-282 -299c101.333 -11.333 180 -43.166 236 -95.499s84 -120.166 84 -203.499c0 -84.667 -28.833 -156.334 -86.5 -215.001s-154.5 -111 -290.5 -157
c-90.667 -28.667 -149.667 -53 -177 -73s-41 -45.333 -41 -76c0 -61.333 57.333 -92 172 -92c111.333 0 212.333 27.333 303 82z" />
    <glyph glyph-name="uni01BB" unicode="&#x1bb;" horiz-adv-x="1137" 
d="M1002 547l-310.999 0.000976562l-318 -348h628v-199h-900v191l331 356h-221v190h392c57.333 65.333 97.166 119.5 119.499 162.5s33.5 87.833 33.5 134.5c0 73.333 -21.667 130.666 -65 171.999s-104 62 -182 62c-124 0 -244 -52.333 -360 -157v220
c108.667 84.667 240 127 394 127c138.667 0 247.667 -35.5 327 -106.5s119 -166.833 119 -287.5c0 -102 -46 -211 -138 -327h151v-190z" />
    <glyph glyph-name="uni01BC" unicode="&#x1bc;" horiz-adv-x="1137" 
d="M164 35l0.000976562 218c100 -62 201.667 -93 305 -93c92 0 165.833 25 221.5 75s83.5 115.667 83.5 197c0 82 -29.333 145.833 -88 191.5s-142.334 68.5 -251.001 68.5c-34.667 0 -78.334 -2 -131.001 -6c-66 -5.33301 -101.333 -8 -106 -8l82 558h-158v198h824v-198
h-459l-51 -360c40.667 3.33301 75 5 103 5c150.667 0 267 -38.167 349 -114.5s123 -181.5 123 -315.5c0 -142.667 -47 -257.5 -141 -344.5s-223 -130.5 -387 -130.5c-135.333 0 -241.666 19.667 -318.999 59z" />
    <glyph glyph-name="uni01BD" unicode="&#x1bd;" horiz-adv-x="837" 
d="M95 20l-0.000976562 195c76.667 -44.667 156.334 -67 239.001 -67c60.667 0 109.834 14.833 147.501 44.5s56.5 68.167 56.5 115.5c0 46 -20.333 83.167 -61 111.5s-97.334 42.5 -170.001 42.5c-15.333 0 -78.333 -4 -189 -12l53 393h-109v181h677v-181h-368l-29 -211
c37.333 2.66699 63.333 4 78 4c103.333 0 188.333 -27.333 255 -82s100 -130.334 100 -227.001c0 -103.333 -38 -187.666 -114 -252.999s-177.333 -98 -304 -98c-116.667 0 -204 14.667 -262 44z" />
    <glyph glyph-name="uni01BE" unicode="&#x1be;" horiz-adv-x="849" 
d="M107 32l0.000976562 212c82 -64 174.667 -96 278 -96c116.667 0 175 40.333 175 121c0 27.333 -8.33301 52.333 -25 75s-62.334 52.667 -137.001 90c-96.667 46.667 -160.167 93.834 -190.5 141.501s-45.5 105.167 -45.5 172.5v94h-130v182h130v253l232 54v-307h246v-182
h-246v-76c0 -38.667 8.5 -70.167 25.5 -94.5s50.167 -49.166 99.5 -74.499c99.333 -46.667 169 -94.334 209 -143.001s60 -105.334 60 -170.001c0 -90 -36.5 -163.833 -109.5 -221.5s-172.5 -86.5 -298.5 -86.5c-107.333 0 -198.333 18.667 -273 56z" />
    <glyph glyph-name="uni01BF" unicode="&#x1bf;" horiz-adv-x="1166" 
d="M383 -49v-421.998h-232v1495h232v-129c110 102 227.333 153 352 153c104.667 0 191.667 -35.833 261 -107.5s104 -160.834 104 -267.501c0 -142.667 -63.5 -277.834 -190.5 -405.501s-302.5 -233.167 -526.5 -316.5zM383 702.002v-540.999
c142 55.333 258 126.666 348 213.999s135 180.333 135 279c0 58 -17.333 106 -52 144s-80.667 57 -138 57c-90 0 -187.667 -51 -293 -153z" />
    <glyph glyph-name="uni01C0" unicode="&#x1c0;" horiz-adv-x="570" 
d="M383 -482h-194v2048h194v-2048z" />
    <glyph glyph-name="uni01C1" unicode="&#x1c1;" horiz-adv-x="938" 
d="M752 -482h-195v2048h195v-2048zM383 -482h-194v2048h194v-2048z" />
    <glyph glyph-name="uni01C2" unicode="&#x1c2;" horiz-adv-x="990" 
d="M934 284h-342v-766h-195v766h-342v181h342v275h-342v181h342v645h195v-645h342v-181h-342v-275h342v-181z" />
    <glyph glyph-name="uni01C3" unicode="&#x1c3;" horiz-adv-x="622" 
d="M422 1434l-19 -1012h-190l-26 1012h235zM311 -20c-40 0 -74 12.833 -102 38.5s-42 56.834 -42 93.501c0 38 14 70.333 42 97s62 40 102 40c38.667 0 72.167 -13.333 100.5 -40s42.5 -59 42.5 -97c0 -36.667 -14.167 -67.834 -42.5 -93.501s-61.833 -38.5 -100.5 -38.5z
" />
    <glyph glyph-name="uni01C4" unicode="&#x1c4;" horiz-adv-x="2592" 
d="M177 0l0.000976562 1434h414c528.667 0 793 -233 793 -699c0 -221.333 -73.333 -399.166 -220 -533.499s-343.334 -201.5 -590.001 -201.5h-397zM414.001 1232v-1031h190c167.333 0 297.5 46 390.5 138s139.5 222 139.5 390c0 335.333 -173.667 503 -521 503h-199z
M2545 1330l-786 -1129h776v-201h-1109v109l789 1123h-728v202h1058v-104zM2339 1890l-224 -327h-185l-224 327h155l160 -210l161 210h157z" />
    <glyph glyph-name="uni01C5" unicode="&#x1c5;" horiz-adv-x="2397" 
d="M177 0l0.000976562 1434h414c528.667 0 793 -233 793 -699c0 -221.333 -73.333 -399.166 -220 -533.499s-343.334 -201.5 -590.001 -201.5h-397zM414.001 1232v-1031h190c167.333 0 297.5 46 390.5 138s139.5 222 139.5 390c0 335.333 -173.667 503 -521 503h-199z
M2353 926.999l-553 -746h551v-181h-876v87l565 756h-511v181h824v-97zM2275 1531l-224 -327h-185l-224 327h155l160 -210l161 210h157z" />
    <glyph glyph-name="uni01C6" unicode="&#x1c6;" horiz-adv-x="2155" 
d="M1082 0h-232v174h-4c-74.667 -132 -189.667 -198 -345 -198c-126 0 -226.833 45.833 -302.5 137.5s-113.5 216.5 -113.5 374.5c0 169.333 41.833 305 125.5 407s195.167 153 334.5 153c138 0 238.333 -55.333 301 -166h4v634h232v-1516zM853 468v134
c0 72.667 -23.667 134.334 -71 185.001s-107.666 76 -180.999 76c-86.667 0 -154.834 -32.333 -204.501 -97s-74.5 -154.334 -74.5 -269.001c0 -104 23.833 -186.167 71.5 -246.5s111.834 -90.5 192.501 -90.5c79.333 0 143.666 29.167 192.999 87.5s74 131.833 74 220.5z
M2111 927l-553 -746h551v-181h-876v87l565 756h-511v181h824v-97zM2034 1531l-224 -327h-185l-224 327h155l160 -210l161 210h157z" />
    <glyph glyph-name="uni01C7" unicode="&#x1c7;" horiz-adv-x="1753" 
d="M971 0h-794v1434h238v-1233h556v-201zM1670 514c0 -170 -42 -302.167 -126 -396.5s-196 -141.5 -336 -141.5c-65.333 0 -119 7.66699 -161 23v224c38 -26 87 -39 147 -39c158.667 0 238 122.667 238 368v882h238v-920z" />
    <glyph glyph-name="uni01C8" unicode="&#x1c8;" horiz-adv-x="1474" 
d="M971 0h-794v1434h238v-1233h556v-201zM1362 43c0 -168 -35.333 -297.5 -106 -388.5s-171.667 -136.5 -303 -136.5c-48.667 0 -96 10.667 -142 32v199c43.333 -30 84.333 -45 123 -45c130.667 0 196 115.333 196 346v974h232v-981zM1248 1239c-38 0 -70.5 12.333 -97.5 37
s-40.5 56 -40.5 94s13.5 69.667 40.5 95s59.5 38 97.5 38c38.667 0 71.667 -12.667 99 -38s41 -57 41 -95c0 -36 -13.667 -66.833 -41 -92.5s-60.333 -38.5 -99 -38.5z" />
    <glyph glyph-name="uni01C9" unicode="&#x1c9;" horiz-adv-x="1088" 
d="M384 0h-233v1516h233v-1516zM935 43c0 -168 -35.333 -297.5 -106 -388.5s-171.667 -136.5 -303 -136.5c-48.667 0 -96 10.667 -142 32v199c43.333 -30 84.333 -45 123 -45c130.667 0 196 115.333 196 346v974h232v-981zM821 1239c-38 0 -70.5 12.333 -97.5 37
s-40.5 56 -40.5 94s13.5 69.667 40.5 95s59.5 38 97.5 38c38.667 0 71.667 -12.667 99 -38s41 -57 41 -95c0 -36 -13.667 -66.833 -41 -92.5s-60.333 -38.5 -99 -38.5z" />
    <glyph glyph-name="uni01CA" unicode="&#x1ca;" horiz-adv-x="2317" 
d="M1393 0h-260.001l-685 1054c-17.333 26.667 -31.666 54.334 -42.999 83.001h-6c5.33301 -30.667 8 -96.334 8 -197.001v-940h-230v1434h277l662 -1029c28 -42.667 46 -72 54 -88h4c-6.66699 38 -10 102.333 -10 193v924h229v-1434zM2153 514
c0 -170 -42 -302.167 -126 -396.5s-196 -141.5 -336 -141.5c-65.333 0 -119 7.66699 -161 23v224c38 -26 87 -39 147 -39c158.667 0 238 122.667 238 368v882h238v-920z" />
    <glyph glyph-name="uni01CB" unicode="&#x1cb;" horiz-adv-x="2066" 
d="M1393 0h-260.001l-685 1054c-17.333 26.667 -31.666 54.334 -42.999 83.001h-6c5.33301 -30.667 8 -96.334 8 -197.001v-940h-230v1434h277l662 -1029c28 -42.667 46 -72 54 -88h4c-6.66699 38 -10 102.333 -10 193v924h229v-1434zM1914 43
c0 -168 -35.333 -297.5 -106 -388.5s-171.667 -136.5 -303 -136.5c-48.667 0 -96 10.667 -142 32v199c43.333 -30 84.333 -45 123 -45c130.667 0 196 115.333 196 346v974h232v-981zM1800 1239c-38 0 -70.5 12.333 -97.5 37s-40.5 56 -40.5 94s13.5 69.667 40.5 95
s59.5 38 97.5 38c38.667 0 71.667 -12.667 99 -38s41 -57 41 -95c0 -36 -13.667 -66.833 -41 -92.5s-60.333 -38.5 -99 -38.5z" />
    <glyph glyph-name="uni01CC" unicode="&#x1cc;" horiz-adv-x="1737" 
d="M1063 0h-232.001v577c0 191.333 -67.667 287 -203 287c-70.667 0 -129 -26.5 -175 -79.5s-69 -119.833 -69 -200.5v-584h-233v1024h233v-170h4c76.667 129.333 187.334 194 332.001 194c111.333 0 196.333 -36.167 255 -108.5s88 -176.833 88 -313.5v-626zM1585 43
c0 -168 -35.333 -297.5 -106 -388.5s-171.667 -136.5 -303 -136.5c-48.667 0 -96 10.667 -142 32v199c43.333 -30 84.333 -45 123 -45c130.667 0 196 115.333 196 346v974h232v-981zM1471 1239c-38 0 -70.5 12.333 -97.5 37s-40.5 56 -40.5 94s13.5 69.667 40.5 95
s59.5 38 97.5 38c38.667 0 71.667 -12.667 99 -38s41 -57 41 -95c0 -36 -13.667 -66.833 -41 -92.5s-60.333 -38.5 -99 -38.5z" />
    <glyph glyph-name="uni01CD" unicode="&#x1cd;" horiz-adv-x="1375" 
d="M1355 0h-261l-129 365h-564l-124 -365h-260l537 1434h268zM902 559l-199 572c-6 18.667 -12.333 48.667 -19 90h-4c-6 -38 -12.667 -68 -20 -90l-197 -572h439zM1001 1886l-224 -327h-185l-224 327h155l160 -210l161 210h157z" />
    <glyph glyph-name="uni01CE" unicode="&#x1ce;" horiz-adv-x="1069" 
d="M937 0h-224.999v160h-4c-70.667 -122.667 -174.334 -184 -311.001 -184c-100.667 0 -179.5 27.333 -236.5 82s-85.5 127 -85.5 217c0 193.333 111.333 306 334 338l304 43c0 146 -69.333 219 -208 219c-122 0 -232 -42 -330 -126v203c108 64 232.667 96 374 96
c258.667 0 388 -127.333 388 -382v-666zM713.001 503l-214.999 -29.999c-66.667 -8.66699 -116.834 -24.834 -150.501 -48.501s-50.5 -65.167 -50.5 -124.5c0 -43.333 15.5 -78.833 46.5 -106.5s72.5 -41.5 124.5 -41.5c70.667 0 129.167 24.833 175.5 74.5
s69.5 112.167 69.5 187.5v89zM841.002 1527l-224 -327h-185l-224 327h155l160 -210l161 210h157z" />
    <glyph glyph-name="uni01CF" unicode="&#x1cf;" horiz-adv-x="592" 
d="M546 1434v-192h-131v-1050h131v-192h-500v192h131v1050h-131v192h500zM615 1886l-224 -327h-185l-224 327h155l160 -210l161 210h157z" />
    <glyph glyph-name="uni01D0" unicode="&#x1d0;" horiz-adv-x="535" 
d="M384 0h-233v1024h233v-1024zM585 1527l-224 -327h-185l-224 327h155l160 -210l161 210h157z" />
    <glyph glyph-name="uni01D1" unicode="&#x1d1;" horiz-adv-x="1548" 
d="M768 -24c-206.667 0 -372.167 66.999 -496.5 200.999s-186.5 308.333 -186.5 523c0 230.667 63.333 414.667 190 552s298.667 206 516 206c201.333 0 363.5 -66.667 486.5 -200s184.5 -307.666 184.5 -522.999c0 -234 -63 -419 -189 -555s-294.333 -204 -505 -204z
M779 1249c-131.333 0 -238.166 -49.001 -320.499 -147.001s-123.5 -227 -123.5 -387c0 -159.333 40 -287.666 120 -384.999s184.667 -146 314 -146c137.333 0 245.666 46.333 324.999 139s119 222.334 119 389.001c0 171.333 -38.5 303.666 -115.5 396.999
s-183.167 140 -318.5 140zM1090 1886l-224 -327h-185l-224 327h155l160 -210l161 210h157z" />
    <glyph glyph-name="uni01D2" unicode="&#x1d2;" horiz-adv-x="1223" 
d="M605 -24c-158 0 -284.167 47.832 -378.5 143.499s-141.5 222.5 -141.5 380.5c0 172 49.167 306.333 147.5 403s230.833 145 397.5 145c160 0 284.667 -47 374 -141s134 -224.333 134 -391c0 -163.333 -48.167 -294.166 -144.5 -392.499s-225.833 -147.5 -388.5 -147.5z
M616 862.999c-90.667 0 -162.332 -31.668 -214.999 -95.001s-79 -150.666 -79 -261.999c0 -107.333 26.667 -191.833 80 -253.5s124.666 -92.5 213.999 -92.5c91.333 0 161.5 30.333 210.5 91s73.5 147 73.5 259c0 112.667 -24.5 199.667 -73.5 261s-119.167 92 -210.5 92z
M928.002 1527l-224 -327h-185l-224 327h155l160 -210l161 210h157z" />
    <glyph glyph-name="uni01D3" unicode="&#x1d3;" horiz-adv-x="1440" 
d="M1280 580c0 -402.667 -190.667 -604 -572 -604c-365.333 0 -548 193.667 -548 581v877h238v-828c0 -281.333 109.333 -422 328 -422c210.667 0 316 135.667 316 407v843h238v-854zM1052 1886l-224 -327h-185l-224 327h155l160 -210l161 210h157z" />
    <glyph glyph-name="uni01D4" unicode="&#x1d4;" horiz-adv-x="1195" 
d="M1044 0h-232v162h-4c-67.333 -124 -172 -186 -314 -186c-242 0 -363 145.333 -363 436v612h232v-588c0 -184 71 -276 213 -276c68.667 0 125.167 25.333 169.5 76s66.5 117 66.5 199v589h232v-1024zM913 1527l-224 -327h-185l-224 327h155l160 -210l161 210h157z" />
    <glyph glyph-name="uni01D5" unicode="&#x1d5;" horiz-adv-x="1440" 
d="M1280 580c0 -402.667 -190.667 -604 -572 -604c-365.333 0 -548 193.667 -548 581v877h238v-828c0 -281.333 109.333 -422 328 -422c210.667 0 316 135.667 316 407v843h238v-854zM986 1849h-543v137h543v-137zM907 1573c-28.667 0 -53.333 9.66895 -74 29.002
s-31 44 -31 74c0 29.333 10.667 53.666 32 72.999s46.333 29 75 29c30.667 0 56.667 -9.83301 78 -29.5s32 -43.834 32 -72.501s-10.667 -53 -32 -73s-48 -30 -80 -30zM523.001 1573c-30.667 0 -57.334 9.83496 -80.001 29.502s-34 44.167 -34 73.5s10.5 53.666 31.5 72.999
s46.833 29 77.5 29c30 0 55.833 -9.83301 77.5 -29.5s32.5 -43.834 32.5 -72.501s-10.167 -53 -30.5 -73s-45.166 -30 -74.499 -30z" />
    <glyph glyph-name="uni01D6" unicode="&#x1d6;" horiz-adv-x="1195" 
d="M1044 0h-232v162h-4c-67.333 -124 -172 -186 -314 -186c-242 0 -363 145.333 -363 436v612h232v-588c0 -184 71 -276 213 -276c68.667 0 125.167 25.333 169.5 76s66.5 117 66.5 199v589h232v-1024zM871 1494h-543v137h543v-137zM792 1218
c-28.667 0 -53.333 9.66895 -74 29.002s-31 44 -31 74c0 29.333 10.667 53.666 32 72.999s46.333 29 75 29c30.667 0 56.667 -9.83301 78 -29.5s32 -43.834 32 -72.501s-10.667 -53 -32 -73s-48 -30 -80 -30zM408.001 1218c-30.667 0 -57.334 9.83496 -80.001 29.502
s-34 44.167 -34 73.5s10.5 53.666 31.5 72.999s46.833 29 77.5 29c30 0 55.833 -9.83301 77.5 -29.5s32.5 -43.834 32.5 -72.501s-10.167 -53 -30.5 -73s-45.166 -30 -74.499 -30z" />
    <glyph glyph-name="uni01D7" unicode="&#x1d7;" horiz-adv-x="1440" 
d="M1280 580c0 -402.667 -190.667 -604 -572 -604c-365.333 0 -548 193.667 -548 581v877h238v-828c0 -281.333 109.333 -422 328 -422c210.667 0 316 135.667 316 407v843h238v-854zM1061 2145l-286 -326h-171l240 326h217zM908 1571c-29.333 0 -54.667 9.66895 -76 29.002
s-32 44 -32 74c0 29.333 10.167 53.666 30.5 72.999s45.833 29 76.5 29s56.667 -9.83301 78 -29.5s32 -43.834 32 -72.501s-10.333 -53 -31 -73s-46.667 -30 -78 -30zM498.999 1571c-30 0 -55.833 9.83301 -77.5 29.5s-32.5 44.167 -32.5 73.5
c0 28.667 10.5 52.834 31.5 72.501s46.833 29.5 77.5 29.5c30 0 55.833 -9.83301 77.5 -29.5s32.5 -43.834 32.5 -72.501s-10.667 -53 -32 -73s-47 -30 -77 -30z" />
    <glyph glyph-name="uni01D8" unicode="&#x1d8;" horiz-adv-x="1195" 
d="M1044 0h-232v162h-4c-67.333 -124 -172 -186 -314 -186c-242 0 -363 145.333 -363 436v612h232v-588c0 -184 71 -276 213 -276c68.667 0 125.167 25.333 169.5 76s66.5 117 66.5 199v589h232v-1024zM937 1783l-286 -326h-171l240 326h217zM784 1209
c-29.333 0 -54.667 9.66895 -76 29.002s-32 44 -32 74c0 29.333 10.167 53.666 30.5 72.999s45.833 29 76.5 29s56.667 -9.83301 78 -29.5s32 -43.834 32 -72.501s-10.333 -53 -31 -73s-46.667 -30 -78 -30zM374.999 1209c-30 0 -55.833 9.83301 -77.5 29.5
s-32.5 44.167 -32.5 73.5c0 28.667 10.5 52.834 31.5 72.501s46.833 29.5 77.5 29.5c30 0 55.833 -9.83301 77.5 -29.5s32.5 -43.834 32.5 -72.501s-10.667 -53 -32 -73s-47 -30 -77 -30z" />
    <glyph glyph-name="uni01D9" unicode="&#x1d9;" horiz-adv-x="1440" 
d="M1280 580c0 -402.667 -190.667 -604 -572 -604c-365.333 0 -548 193.667 -548 581v877h238v-828c0 -281.333 109.333 -422 328 -422c210.667 0 316 135.667 316 407v843h238v-854zM1037 2159l-224 -328h-185l-224 328h155l161 -211l160 211h157zM916 1571
c-29.333 0 -54.666 9.66895 -75.999 29.002s-32 44 -32 74c0 29.333 10.167 53.666 30.5 72.999s45.833 29 76.5 29s56.5 -9.83301 77.5 -29.5s31.5 -43.834 31.5 -72.501s-10.333 -53 -31 -73s-46.334 -30 -77.001 -30zM525 1571c-30 0 -55.833 9.83301 -77.5 29.5
s-32.5 44.167 -32.5 73.5c0 28.667 10.5 52.834 31.5 72.501s46.833 29.5 77.5 29.5c30 0 55.833 -9.83301 77.5 -29.5s32.5 -43.834 32.5 -72.501s-10.667 -53 -32 -73s-47 -30 -77 -30z" />
    <glyph glyph-name="uni01DA" unicode="&#x1da;" horiz-adv-x="1195" 
d="M1044 0h-232v162h-4c-67.333 -124 -172 -186 -314 -186c-242 0 -363 145.333 -363 436v612h232v-588c0 -184 71 -276 213 -276c68.667 0 125.167 25.333 169.5 76s66.5 117 66.5 199v589h232v-1024zM913 1797l-224 -328h-185l-224 328h155l161 -211l160 211h157z
M792 1209c-29.333 0 -54.666 9.66895 -75.999 29.002s-32 44 -32 74c0 29.333 10.167 53.666 30.5 72.999s45.833 29 76.5 29s56.5 -9.83301 77.5 -29.5s31.5 -43.834 31.5 -72.501s-10.333 -53 -31 -73s-46.334 -30 -77.001 -30zM401 1209
c-30 0 -55.833 9.83301 -77.5 29.5s-32.5 44.167 -32.5 73.5c0 28.667 10.5 52.834 31.5 72.501s46.833 29.5 77.5 29.5c30 0 55.833 -9.83301 77.5 -29.5s32.5 -43.834 32.5 -72.501s-10.667 -53 -32 -73s-47 -30 -77 -30z" />
    <glyph glyph-name="uni01DB" unicode="&#x1db;" horiz-adv-x="1440" 
d="M1280 580c0 -402.667 -190.667 -604 -572 -604c-365.333 0 -548 193.667 -548 581v877h238v-828c0 -281.333 109.333 -422 328 -422c210.667 0 316 135.667 316 407v843h238v-854zM830 1819h-172l-286 326h217zM934 1571c-30 0 -55.5 10 -76.5 30s-31.5 44.333 -31.5 73
s10.667 52.834 32 72.501s47 29.5 77 29.5c30.667 0 56.5 -9.83301 77.5 -29.5s31.5 -43.834 31.5 -72.501c0 -29.333 -10.833 -53.833 -32.5 -73.5s-47.5 -29.5 -77.5 -29.5zM525 1571c-30.667 0 -56.501 9.99805 -77.501 29.998s-31.5 44.333 -31.5 73
s10.667 52.834 32 72.501s47.333 29.5 78 29.5c28.667 0 53.667 -9.66699 75 -29s32 -43.666 32 -72.999c0 -30 -10.667 -54.667 -32 -74s-46.666 -29 -75.999 -29z" />
    <glyph glyph-name="uni01DC" unicode="&#x1dc;" horiz-adv-x="1195" 
d="M1044 0h-232v162h-4c-67.333 -124 -172 -186 -314 -186c-242 0 -363 145.333 -363 436v612h232v-588c0 -184 71 -276 213 -276c68.667 0 125.167 25.333 169.5 76s66.5 117 66.5 199v589h232v-1024zM708 1457h-172l-286 326h217zM812 1209c-30 0 -55.5 10 -76.5 30
s-31.5 44.333 -31.5 73s10.667 52.834 32 72.501s47 29.5 77 29.5c30.667 0 56.5 -9.83301 77.5 -29.5s31.5 -43.834 31.5 -72.501c0 -29.333 -10.833 -53.833 -32.5 -73.5s-47.5 -29.5 -77.5 -29.5zM403 1209c-30.667 0 -56.501 9.99805 -77.501 29.998
s-31.5 44.333 -31.5 73s10.667 52.834 32 72.501s47.333 29.5 78 29.5c28.667 0 53.667 -9.66699 75 -29s32 -43.666 32 -72.999c0 -30 -10.667 -54.667 -32 -74s-46.666 -29 -75.999 -29z" />
    <glyph glyph-name="uni01DD" unicode="&#x1dd;" horiz-adv-x="1088" 
d="M70 575l698.002 -0.00195312c-3.33301 94.667 -31.833 167.834 -85.5 219.501s-128.5 77.5 -224.5 77.5c-112 0 -214.667 -33 -308 -99v187c90.667 58.667 210.667 88 360 88c153.333 0 273.666 -46 360.999 -138s131 -221.667 131 -389
c0 -162 -46.833 -293.333 -140.5 -394s-209.834 -151 -348.501 -151c-142 0 -251.333 45.333 -328 136s-115 215.334 -115 374.001v89zM768.002 410.998l-473.998 -0.000976562c1.33301 -84 21.166 -149 59.499 -195s92.166 -69 161.499 -69c66 0 122 24.333 168 73
s74.333 112.334 85 191.001z" />
    <glyph glyph-name="uni01DE" unicode="&#x1de;" horiz-adv-x="1375" 
d="M1355 0h-261l-129 365h-564l-124 -365h-260l537 1434h268zM902 559l-199 572c-6 18.667 -12.333 48.667 -19 90h-4c-6 -38 -12.667 -68 -20 -90l-197 -572h439zM952 1849h-543v137h543v-137zM873 1573c-28.667 0 -53.333 9.66895 -74 29.002s-31 44 -31 74
c0 29.333 10.667 53.666 32 72.999s46.333 29 75 29c30.667 0 56.667 -9.83301 78 -29.5s32 -43.834 32 -72.501s-10.667 -53 -32 -73s-48 -30 -80 -30zM489.001 1573c-30.667 0 -57.334 9.83496 -80.001 29.502s-34 44.167 -34 73.5s10.5 53.666 31.5 72.999
s46.833 29 77.5 29c30 0 55.833 -9.83301 77.5 -29.5s32.5 -43.834 32.5 -72.501s-10.167 -53 -30.5 -73s-45.166 -30 -74.499 -30z" />
    <glyph glyph-name="uni01DF" unicode="&#x1df;" horiz-adv-x="1069" 
d="M937 0h-224.999v160h-4c-70.667 -122.667 -174.334 -184 -311.001 -184c-100.667 0 -179.5 27.333 -236.5 82s-85.5 127 -85.5 217c0 193.333 111.333 306 334 338l304 43c0 146 -69.333 219 -208 219c-122 0 -232 -42 -330 -126v203c108 64 232.667 96 374 96
c258.667 0 388 -127.333 388 -382v-666zM713.001 503l-214.999 -29.999c-66.667 -8.66699 -116.834 -24.834 -150.501 -48.501s-50.5 -65.167 -50.5 -124.5c0 -43.333 15.5 -78.833 46.5 -106.5s72.5 -41.5 124.5 -41.5c70.667 0 129.167 24.833 175.5 74.5
s69.5 112.167 69.5 187.5v89zM792.002 1494h-543v137h543v-137zM713.002 1218c-28.667 0 -53.333 9.66895 -74 29.002s-31 44 -31 74c0 29.333 10.667 53.666 32 72.999s46.333 29 75 29c30.667 0 56.667 -9.83301 78 -29.5s32 -43.834 32 -72.501s-10.667 -53 -32 -73
s-48 -30 -80 -30zM329.003 1218c-30.667 0 -57.334 9.83496 -80.001 29.502s-34 44.167 -34 73.5s10.5 53.666 31.5 72.999s46.833 29 77.5 29c30 0 55.833 -9.83301 77.5 -29.5s32.5 -43.834 32.5 -72.501s-10.167 -53 -30.5 -73s-45.166 -30 -74.499 -30z" />
    <glyph glyph-name="uni01E0" unicode="&#x1e0;" horiz-adv-x="1375" 
d="M1355 0h-261l-129 365h-564l-124 -365h-260l537 1434h268zM902 559l-199 572c-6 18.667 -12.333 48.667 -19 90h-4c-6 -38 -12.667 -68 -20 -90l-197 -572h439zM953 1846h-543v137h543v-137zM681 1573c-29.333 0 -54.666 9.83301 -75.999 29.5s-32 44.167 -32 73.5
c0 28.667 10.667 52.667 32 72s46.666 29 75.999 29c30.667 0 56.5 -9.66699 77.5 -29s31.5 -43.333 31.5 -72s-10.5 -53 -31.5 -73s-46.833 -30 -77.5 -30z" />
    <glyph glyph-name="uni01E1" unicode="&#x1e1;" horiz-adv-x="1069" 
d="M937 0h-224.999v160h-4c-70.667 -122.667 -174.334 -184 -311.001 -184c-100.667 0 -179.5 27.333 -236.5 82s-85.5 127 -85.5 217c0 193.333 111.333 306 334 338l304 43c0 146 -69.333 219 -208 219c-122 0 -232 -42 -330 -126v203c108 64 232.667 96 374 96
c258.667 0 388 -127.333 388 -382v-666zM713.001 503l-214.999 -29.999c-66.667 -8.66699 -116.834 -24.834 -150.501 -48.501s-50.5 -65.167 -50.5 -124.5c0 -43.333 15.5 -78.833 46.5 -106.5s72.5 -41.5 124.5 -41.5c70.667 0 129.167 24.833 175.5 74.5
s69.5 112.167 69.5 187.5v89zM777.002 1491h-543v137h543v-137zM505.002 1218c-29.333 0 -54.666 9.83301 -75.999 29.5s-32 44.167 -32 73.5c0 28.667 10.667 52.667 32 72s46.666 29 75.999 29c30.667 0 56.5 -9.66699 77.5 -29s31.5 -43.333 31.5 -72
s-10.5 -53 -31.5 -73s-46.833 -30 -77.5 -30z" />
    <glyph glyph-name="uni01E2" unicode="&#x1e2;" horiz-adv-x="1831" 
d="M1749 0h-804v365h-492l-172 -365h-275l710 1434h1000v-202h-534v-406h497v-201h-497v-424h567v-201zM945 559v673h-87l-317 -673h404zM1483 1575h-543v137h543v-137z" />
    <glyph glyph-name="uni01E3" unicode="&#x1e3;" horiz-adv-x="1700" 
d="M1630 449l-699 0.000976562c2 -94.667 30.333 -167.834 85 -219.501s129.667 -77.5 225 -77.5c114 0 217.333 33 310 99v-186c-90 -59.333 -212.333 -89 -367 -89c-183.333 0 -313.333 68.667 -390 206h-4c-93.333 -137.333 -217.333 -206 -372 -206
c-106.667 0 -190.5 27.5 -251.5 82.5s-91.5 128.5 -91.5 220.5c0 204 126.333 314.333 379 331l259 16c0 166.667 -67 250 -201 250c-118.667 0 -230.667 -38.333 -336 -115v196c101.333 60.667 220.333 91 357 91c160 0 263.667 -56.667 311 -170h4
c76 113.333 192.333 170 349 170c137.333 0 243.833 -45.167 319.5 -135.5s113.5 -215.833 113.5 -376.5v-87zM1406 613.001c-1.33301 84.667 -21 149.833 -59 195.5s-91.333 68.5 -160 68.5c-65.333 0 -121.5 -24 -168.5 -72s-75.833 -112 -86.5 -192h474zM713 412
l0.000976562 55l-177 -11c-80.667 -4.66699 -140.834 -19 -180.501 -43s-59.5 -63.667 -59.5 -119c0 -42.667 15.5 -77 46.5 -103s72.833 -39 125.5 -39c68.667 0 126.667 24.667 174 74s71 111.333 71 186zM1126 1214h-543v137h543v-137z" />
    <glyph glyph-name="uni01E4" unicode="&#x1e4;" horiz-adv-x="1428" 
d="M1437 322l-141 -0.000976562v-225c-149.333 -80.667 -315.333 -121 -498 -121c-212.667 0 -384.667 65.833 -516 197.5s-197 305.834 -197 522.501c0 222.667 72.5 405.334 217.5 548.001s328.5 214 550.5 214c157.333 0 289.666 -23.333 396.999 -70v-239
c-115.333 69.333 -251.666 104 -408.999 104c-148 0 -269.333 -50.333 -364 -151s-142 -231.334 -142 -392.001c0 -166 43.167 -296.5 129.5 -391.5s203.5 -142.5 351.5 -142.5c93.333 0 174.333 16.333 243 49v97h-301v162h301v127h-302v182h539v-309h141v-162z" />
    <glyph glyph-name="uni01E5" unicode="&#x1e5;" horiz-adv-x="1234" 
d="M1233 -193l-192.001 0.000976562c-86.667 -192 -264 -288 -532 -288c-130.667 0 -244.667 22 -342 66v207c120 -60.667 234.667 -91 344 -91c132.667 0 227.334 35.333 284.001 106h-246v162h295c4.66699 31.333 7 64.666 7 99.999v144h-4
c-72.667 -124 -182 -186 -328 -186c-128.667 0 -233.167 44.333 -313.5 133s-120.5 207 -120.5 355c0 158.667 42.5 287.167 127.5 385.5s198.167 147.5 339.5 147.5c132.667 0 231 -52 295 -156h4v132h232v-908c0 -52 -2 -101 -6 -147h156v-162zM852.999 520.001
l0.00195312 75c0 73.333 -24 136.333 -72 189s-108 79 -180 79c-86.667 0 -154.834 -30.333 -204.501 -91s-74.5 -143.667 -74.5 -249c0 -94 24.167 -169.167 72.5 -225.5s111.166 -84.5 188.499 -84.5c80 0 145 28.5 195 85.5s75 130.833 75 221.5z" />
    <glyph glyph-name="uni01E6" unicode="&#x1e6;" horiz-adv-x="1428" 
d="M1296 98c-149.333 -81.333 -315.666 -122 -498.999 -122c-212 0 -383.667 66 -515 198s-197 306.667 -197 524c0 222 71.833 404.167 215.5 546.5s326.167 213.5 547.5 213.5c159.333 0 293.333 -23.333 402 -70v-245c-110 73.333 -241 110 -393 110
c-152.667 0 -277.834 -50.333 -375.501 -151s-146.5 -231 -146.5 -391c0 -164.667 42 -294.167 126 -388.5s198 -141.5 342 -141.5c98.667 0 184 19 256 57v341h-302v200h539v-681zM1076 1886l-224 -327h-185l-224 327h155l160 -210l161 210h157z" />
    <glyph glyph-name="uni01E7" unicode="&#x1e7;" horiz-adv-x="1234" 
d="M1083 82c0 -376 -189 -564 -567 -564c-133.333 0 -249.666 22.333 -348.999 67v212c112 -64 218.333 -96 319 -96c243.333 0 365 119.667 365 359v112h-4c-76.667 -130.667 -192 -196 -346 -196c-124.667 0 -225.167 45.5 -301.5 136.5s-114.5 213.167 -114.5 366.5
c0 174 41 312.333 123 415s194.667 154 338 154c135.333 0 235.666 -55.333 300.999 -166h4v142h232v-942zM853 469l-0.000976562 133c0 72 -23.833 133.5 -71.5 184.5s-107.167 76.5 -178.5 76.5c-88 0 -156.833 -32.5 -206.5 -97.5s-74.5 -155.833 -74.5 -272.5
c0 -100.667 23.833 -181.167 71.5 -241.5s110.834 -90.5 189.501 -90.5c80 0 145 28.833 195 86.5s75 131.5 75 221.5zM905.999 1527l-224 -327h-185l-224 327h155l160 -210l161 210h157z" />
    <glyph glyph-name="uni01E8" unicode="&#x1e8;" horiz-adv-x="1251" 
d="M1262 0l-310 -0.000976562l-499 656c-18.667 24.667 -30 41.334 -34 50.001h-4v-706h-238v1434h238v-674h4c8 14.667 19.333 31 34 49l481 625h285l-563 -688zM957 1886l-224 -327h-185l-224 327h155l160 -210l161 210h157z" />
    </font>
</defs>
</svg>
